<?xml version="1.0" encoding="UTF-8"?>
<svg version="1.1" xmlns="http://www.w3.org/2000/svg" width="350" height="350">
<path d="M0 0 C0.85461319 -0.00902847 1.70922638 -0.01805695 2.58973694 -0.02735901 C4.39060009 -0.04177608 6.19151461 -0.0507268 7.99243164 -0.05444336 C10.68536039 -0.06624283 13.37591897 -0.11542903 16.06835938 -0.16601562 C32.10322334 -0.31488102 46.50839034 2.91413833 60.78515625 10.37109375 C61.51347656 10.7371875 62.24179688 11.10328125 62.9921875 11.48046875 C67.82020119 14.02061289 72.33981453 16.99643334 76.84765625 20.05859375 C77.43272949 20.45143555 78.01780273 20.84427734 78.62060547 21.24902344 C80.04693899 22.23677961 81.42158306 23.29835998 82.78515625 24.37109375 C82.78515625 25.03109375 82.78515625 25.69109375 82.78515625 26.37109375 C84.76515625 27.36109375 84.76515625 27.36109375 86.78515625 28.37109375 C86.78515625 29.03109375 86.78515625 29.69109375 86.78515625 30.37109375 C87.37683594 30.62890625 87.96851563 30.88671875 88.578125 31.15234375 C103.82934107 39.57425422 112.08405504 63.87765463 117.20703125 79.3359375 C118.5873173 84.19491743 118.95682671 88.84022463 118.98828125 93.875 C118.99398132 94.59413071 118.9996814 95.31326141 119.0055542 96.05418396 C119.01497243 97.57460069 119.02152551 99.09503753 119.02539062 100.61547852 C119.03502415 102.90223587 119.06604618 105.18806528 119.09765625 107.47460938 C119.16218512 116.2126508 118.5061863 123.98291555 115.78515625 132.37109375 C115.51912598 133.21534912 115.2530957 134.05960449 114.97900391 134.92944336 C111.96269522 144.09789043 108.7737724 152.71327897 102.78515625 160.37109375 C102.14449219 161.28246094 101.50382813 162.19382812 100.84375 163.1328125 C97.1852533 168.33245962 93.56570846 173.1596549 88.78515625 177.37109375 C88.12515625 177.37109375 87.46515625 177.37109375 86.78515625 177.37109375 C86.57890625 177.94085938 86.37265625 178.510625 86.16015625 179.09765625 C84.25177012 182.25299923 81.83682727 183.69485261 78.78515625 185.74609375 C77.91165527 186.3342688 77.91165527 186.3342688 77.02050781 186.93432617 C69.87177041 191.71027032 62.73638708 196.17020698 54.79296875 199.51171875 C52.79665741 200.32409269 52.79665741 200.32409269 51.04296875 201.34765625 C32.17737532 209.89918822 1.62044049 209.64079606 -17.6484375 202.7890625 C-19.41380859 202.08716797 -19.41380859 202.08716797 -21.21484375 201.37109375 C-22.23707031 200.97535156 -23.25929688 200.57960938 -24.3125 200.171875 C-34.51264127 195.85367173 -43.80338533 190.15199661 -52.05859375 182.77734375 C-54.07673605 181.1693912 -54.07673605 181.1693912 -56.296875 181.4296875 C-58.6582755 182.58874559 -59.76974611 183.87369895 -61.40234375 185.93359375 C-67.27101296 192.9183133 -73.58343737 199.09963008 -82.21484375 202.37109375 C-83.15199219 202.74234375 -84.08914062 203.11359375 -85.0546875 203.49609375 C-95.97828769 207.23687479 -106.8018479 206.7741607 -118.21484375 206.37109375 C-119.35429891 204.09218342 -119.34378589 202.80327271 -119.34765625 200.2734375 C-119.34894531 199.47228516 -119.35023437 198.67113281 -119.3515625 197.84570312 C-119.34769531 197.00845703 -119.34382813 196.17121094 -119.33984375 195.30859375 C-119.34371094 194.46748047 -119.34757812 193.62636719 -119.3515625 192.75976562 C-119.34147057 186.49772057 -119.34147057 186.49772057 -118.21484375 185.37109375 C-116.1208818 185.15746733 -114.02609259 184.94988722 -111.9284668 184.77587891 C-100.81666505 183.84317085 -91.37145307 182.07105179 -82.21484375 175.37109375 C-81.47234375 175.04109375 -80.72984375 174.71109375 -79.96484375 174.37109375 C-77.65059571 173.0486663 -77.19631498 171.82477184 -76.21484375 169.37109375 C-75.84359375 168.46359375 -75.47234375 167.55609375 -75.08984375 166.62109375 C-74.80109375 165.87859375 -74.51234375 165.13609375 -74.21484375 164.37109375 C-74.79363281 163.69820312 -75.37242188 163.0253125 -75.96875 162.33203125 C-90.99012695 142.52993781 -97.18824145 113.49073004 -93.90576172 89.07177734 C-89.11618507 61.25797784 -73.22679038 34.82800223 -50.21484375 18.37109375 C-35.3297532 8.02434237 -18.35103596 0.1239581 0 0 Z M-6.08984375 29.30859375 C-11.09531657 36.5223634 -12.96236853 42.68830594 -12.21484375 51.37109375 C-10.86587882 58.43966999 -6.4955982 63.67284567 -1.21484375 68.37109375 C4.65438805 72.22697161 12.01446342 72.28723131 18.78515625 71.37109375 C27.07408793 68.7516982 32.12084263 63.94579052 36.4140625 56.57421875 C39.06231787 50.38741134 38.98663693 43.06097441 36.90625 36.671875 C33.13543008 29.34179931 27.30142823 24.57925862 19.78515625 21.37109375 C9.49391125 19.92332189 0.97903474 21.4056293 -6.08984375 29.30859375 Z M55.78515625 68.37109375 C55.78515625 69.03109375 55.78515625 69.69109375 55.78515625 70.37109375 C55.16640625 70.61859375 54.54765625 70.86609375 53.91015625 71.12109375 C51.43446938 72.57738014 50.83390623 73.74921881 49.78515625 76.37109375 C49.12515625 76.37109375 48.46515625 76.37109375 47.78515625 76.37109375 C43.98280695 86.14856339 43.99713013 93.58825566 47.78515625 103.37109375 C48.44515625 104.36109375 49.10515625 105.35109375 49.78515625 106.37109375 C50.44515625 106.37109375 51.10515625 106.37109375 51.78515625 106.37109375 C52.04941406 106.9846875 52.31367188 107.59828125 52.5859375 108.23046875 C54.66766453 111.9463854 57.86651174 113.23508846 61.78515625 114.37109375 C70.50001142 115.51497908 77.53830027 115.1777397 84.828125 110.015625 C90.27034134 105.44242524 92.45810889 100.86213417 93.12109375 93.78515625 C93.2118549 84.98132502 93.028478 78.9918042 86.984375 72.41015625 C81.9206873 67.59227863 77.53439673 65.73159764 70.53515625 65.05859375 C65.41268415 65.48546643 60.69020085 66.88095362 55.78515625 68.37109375 Z M-60.21484375 73.37109375 C-60.91609375 73.94859375 -61.61734375 74.52609375 -62.33984375 75.12109375 C-66.40114364 79.99465362 -67.82556086 85.72745681 -67.5546875 92.01171875 C-66.43571236 99.78023583 -63.37667034 104.9916436 -57.3125 109.8984375 C-56.62027344 110.38441406 -55.92804688 110.87039062 -55.21484375 111.37109375 C-54.45429687 111.91765625 -53.69375 112.46421875 -52.91015625 113.02734375 C-47.41758984 115.76566671 -41.15737035 115.11467144 -35.21484375 114.37109375 C-28.27653287 111.84644386 -23.84717039 107.69837242 -20.21484375 101.37109375 C-17.94185057 94.61115299 -17.83562937 85.27589868 -20.90234375 78.80859375 C-24.57329629 72.80972009 -29.45185345 68.44003486 -36.21484375 66.37109375 C-45.96919318 65.20368491 -52.81677191 66.77281346 -60.21484375 73.37109375 Z M4.78515625 93.37109375 C2.5807124 97.13998162 1.79791097 99.63132005 1.72265625 103.99609375 C3.15046197 108.53147661 4.91763196 109.68750547 8.78515625 112.37109375 C11.65123754 113.80413439 13.59816408 113.6775353 16.78515625 113.37109375 C19.84548955 111.60551685 22.2910338 109.8652162 24.78515625 107.37109375 C25.48737672 102.3004087 25.59970483 97.79655377 23.03515625 93.30859375 C19.89847009 90.60755845 18.03633596 89.5342911 13.91015625 88.99609375 C9.81886558 89.48704863 7.8944111 90.67640622 4.78515625 93.37109375 Z M27.66015625 135.24609375 C22.81673752 141.56257171 21.82389152 148.59790368 22.78515625 156.37109375 C24.49787973 162.21286951 27.11208384 166.3989822 31.78515625 170.37109375 C32.42453125 170.92796875 33.06390625 171.48484375 33.72265625 172.05859375 C39.08847316 175.47320451 44.58612803 176.04467237 50.78515625 175.37109375 C57.00050198 173.92197854 62.21465536 170.95172758 66.0078125 165.66796875 C70.54872403 158.18116122 70.27071546 150.79604601 68.78515625 142.37109375 C66.11969395 135.80041925 61.73362762 131.8731452 55.47265625 128.68359375 C44.92552223 124.9295291 35.56357409 126.78168174 27.66015625 135.24609375 Z M-36.02734375 134.18359375 C-36.74921875 135.23546875 -37.47109375 136.28734375 -38.21484375 137.37109375 C-38.97796875 138.38171875 -39.74109375 139.39234375 -40.52734375 140.43359375 C-43.76222488 146.42607846 -43.25633014 153.86747595 -41.3671875 160.22265625 C-38.07580681 167.60873765 -33.21274286 171.77193411 -25.77734375 174.74609375 C-17.86970077 176.13339954 -12.02237777 175.95910355 -5.21484375 171.37109375 C-0.88579514 167.61925162 1.97116412 163.81307014 3.78515625 158.37109375 C4.6122005 146.10348697 4.6122005 146.10348697 -0.7265625 135.5078125 C-5.87789093 129.91659535 -10.91443032 127.27567346 -18.58984375 126.93359375 C-25.72495853 127.15901633 -30.96634612 129.12259612 -36.02734375 134.18359375 Z " fill="#773CC5" transform="translate(164.21484375,137.62890625)"/>
<path d="M0 0 C2.57966855 4.98564371 3.94231274 10.11177755 5.1875 15.5625 C5.36474609 16.29146484 5.54199219 17.02042969 5.72460938 17.77148438 C6.68213812 21.87887601 7.56391503 25.77366906 7 30 C0.45767916 38.91854115 -18.15738749 39.58861376 -28.29077148 41.72265625 C-35.23804839 43.18591473 -42.16281437 44.70170817 -49.0625 46.375 C-60.06085937 49.04120178 -71.09402667 51.54943775 -82.12915039 54.05810547 C-83.56008117 54.38368985 -84.99098953 54.70937279 -86.421875 55.03515625 C-87.12520462 55.1952417 -87.82853424 55.35532715 -88.55317688 55.52026367 C-94.40861602 56.85680263 -100.25521988 58.22971408 -106.09710693 59.62428284 C-124.53195614 64 -124.53195614 64 -130 64 C-130 64.66 -130 65.32 -130 66 C-128.87867172 65.98747192 -127.75734344 65.97494385 -126.60203552 65.96203613 C-115.88364019 65.84251209 -105.16522581 65.72483946 -94.44679165 65.60884857 C-88.94018483 65.54920216 -83.43358593 65.48896747 -77.92700195 65.42724609 C-35.95948514 64.95780417 -35.95948514 64.95780417 -17.22265625 64.90625 C-16.04303818 64.8997644 -14.8634201 64.89327881 -13.64805603 64.88659668 C-6.08702781 64.88244575 1.49037266 65.05055635 9 66 C10 67 10 67 10.12025452 69.17030334 C10.11803391 70.12738693 10.11581329 71.08447052 10.11352539 72.07055664 C10.11344986 73.15160172 10.11337433 74.23264679 10.11329651 75.34645081 C10.10813522 76.5224736 10.10297394 77.6984964 10.09765625 78.91015625 C10.09553383 80.70591347 10.09553383 80.70591347 10.09336853 82.53794861 C10.08774979 86.37949066 10.07519411 90.22097543 10.0625 94.0625 C10.05748741 96.65950437 10.05292409 99.25650965 10.04882812 101.85351562 C10.03777427 108.23569679 10.02101792 114.6178443 10 121 C5.41155983 122.09104644 2.76629728 121.58025135 -1.75 120.125 C-25.58784268 112.48192488 -52.95609336 117.11909544 -75 128 C-78.05751149 129.5755825 -81.03453207 131.25790993 -84 133 C-84.84304687 133.47953125 -85.68609375 133.9590625 -86.5546875 134.453125 C-92.02289007 137.71819668 -96.82345902 141.39321663 -101.5 145.6875 C-101.98500977 146.1316626 -102.47001953 146.5758252 -102.96972656 147.03344727 C-103.4644043 147.50065186 -103.95908203 147.96785645 -104.46875 148.44921875 C-105.01249268 148.96137939 -105.55623535 149.47354004 -106.11645508 150.0012207 C-108.15923256 152.09247665 -108.15923256 152.09247665 -110.2644043 155.03588867 C-117.08981265 163.95270198 -117.08981265 163.95270198 -122.87939453 165.01391602 C-127.20871053 165.43114844 -131.48073142 165.19697604 -135.8125 164.9375 C-137.30131935 164.90293667 -138.79026975 164.87360751 -140.27929688 164.84960938 C-146.85007055 164.66525359 -152.22692983 164.47877291 -158 161 C-162.38511586 156.14081756 -163.14999689 153.14763481 -163.17358398 146.77148438 C-163.180271 146.02647675 -163.18695801 145.28146912 -163.19384766 144.5138855 C-163.20791548 142.89224392 -163.21980399 141.27058234 -163.22979546 139.64891052 C-163.24621237 137.07515318 -163.26945572 134.50154149 -163.29469299 131.92785645 C-163.36541261 124.608554 -163.42529991 117.28918879 -163.47680664 109.96972656 C-163.50878682 105.49341677 -163.55012042 101.0172692 -163.59700203 96.54109192 C-163.61292227 94.84124199 -163.62528932 93.14135465 -163.63390923 91.44145203 C-163.70196462 78.20032259 -165.35225106 67.03510065 -169.96484375 54.61328125 C-171.75786466 49.53452745 -172.80848519 45.38610559 -172 40 C-167.71523249 35.83196494 -162.68337446 34.97037366 -157 33.9375 C-155.28902827 33.6017369 -153.57809095 33.26579839 -151.8671875 32.9296875 C-151.0328418 32.77081055 -150.19849609 32.61193359 -149.33886719 32.44824219 C-140.23846112 30.70415601 -131.20767539 28.61457087 -122.1875 26.5 C-121.31561035 26.29834229 -120.4437207 26.09668457 -119.54541016 25.88891602 C-114.65238852 24.7296993 -109.92609469 23.34506993 -105.17260742 21.70947266 C-101.68502348 20.57058976 -98.13806344 19.74876229 -94.5625 18.9375 C-93.87607422 18.77701172 -93.18964844 18.61652344 -92.48242188 18.45117188 C-88.68888539 17.57411469 -84.88679945 16.77097435 -81.06640625 16.01953125 C-76.13959312 15.04493968 -71.2575064 13.92483521 -66.375 12.75 C-65.48329102 12.53674072 -64.59158203 12.32348145 -63.67285156 12.10375977 C-56.68759718 10.4251468 -49.71764013 8.68758151 -42.75 6.9375 C-35.653271 5.15607271 -28.55542203 3.38258456 -21.4375 1.6875 C-20.15746094 1.38199219 -18.87742188 1.07648437 -17.55859375 0.76171875 C-5.74364784 -1.76727626 -5.74364784 -1.76727626 0 0 Z " fill="#763CC3" transform="translate(206,4)"/>
<path d="M0 0 C4.25628047 1.54773835 7.11387002 3.51673968 10 7 C10.495 8.5159375 10.495 8.5159375 11 10.0625 C13.49684488 13.72974091 14.57731316 13.56556232 18.8125 14.375 C23.28289764 15.30046973 25.80839643 16.07106503 28.6875 19.6875 C31.25472384 23.74536995 31.83019496 27.24545876 32 32 C32.886875 32.04125 33.77375 32.0825 34.6875 32.125 C39.25465858 33.33141925 40.28584999 35.20018998 43 39 C45.08929122 43.17858245 44.44618415 48.45123946 44 53 C42.95049881 55.75436774 41.7499752 57.59378409 40 60 C41.65 60.66 43.3 61.32 45 62 C44.58525633 67.28798182 43.64775386 70.11690718 40 74 C38.02 73.505 38.02 73.505 36 73 C35.896875 74.155 35.79375 75.31 35.6875 76.5 C35.11908476 80.99995396 33.74051235 84.83355228 32 89 C28.37967037 97.69178312 25.31907557 106.48814852 23.125 115.65625 C21.76774228 121.16017312 19.92860488 126.50441447 18.125 131.875 C17.61646484 133.41220703 17.61646484 133.41220703 17.09765625 134.98046875 C14.94675582 141.41681339 12.59178325 147.72881017 10 154 C9.61714844 154.93972656 9.23429687 155.87945312 8.83984375 156.84765625 C8.54207031 157.57855469 8.24429688 158.30945313 7.9375 159.0625 C6.3594669 162.99211184 4.97809884 166.95217898 3.7109375 170.9921875 C2.96559064 173.09717807 2.0366021 175.02425412 1 177 C-0.7717719 176.93983797 -2.54258679 176.85100672 -4.3125 176.75 C-5.29863281 176.70359375 -6.28476562 176.6571875 -7.30078125 176.609375 C-10.7219171 175.83702016 -11.14539302 174.90803116 -13 172 C-13.77946685 170.22360017 -14.49635217 168.41900955 -15.1640625 166.59765625 C-15.75755493 165.02298584 -15.75755493 165.02298584 -16.36303711 163.41650391 C-16.77948486 162.30968262 -17.19593262 161.20286133 -17.625 160.0625 C-21.5861125 149.82271982 -25.72174574 140.06851303 -33.75390625 132.3046875 C-35 131 -35 131 -35 129 C-35.58007812 128.77054688 -36.16015625 128.54109375 -36.7578125 128.3046875 C-39.57547434 126.66514211 -40.94228564 124.740762 -42.875 122.125 C-45.97936589 118.09048702 -48.67894727 115.59263164 -53 113 C-53 112.34 -53 111.68 -53 111 C-53.79083984 110.62488281 -53.79083984 110.62488281 -54.59765625 110.2421875 C-57.63415911 108.67209334 -60.52274451 106.91091955 -63.4375 105.125 C-64.54996094 104.44695312 -65.66242188 103.76890625 -66.80859375 103.0703125 C-67.86175781 102.38710937 -68.91492188 101.70390625 -70 101 C-70.87696533 100.43200684 -71.75393066 99.86401367 -72.6574707 99.27880859 C-75 97 -75 97 -75.64355469 93.98242188 C-75.65757324 92.2431543 -75.65757324 92.2431543 -75.671875 90.46875 C-75.69636719 89.18226562 -75.72085938 87.89578125 -75.74609375 86.5703125 C-75.74837787 85.21354296 -75.74967526 83.85677142 -75.75 82.5 C-75.78365511 79.86454604 -75.82008013 77.2291259 -75.859375 74.59375 C-75.87452148 73.31298584 -75.88966797 72.03222168 -75.90527344 70.71264648 C-76.01786668 66.29974601 -76.36163359 61.93551193 -76.76855469 57.54150391 C-77.04506424 54.50514904 -77.20022971 51.48593019 -77.25 48.4375 C-77.27578125 47.46683594 -77.3015625 46.49617188 -77.328125 45.49609375 C-76.93278058 42.48865223 -76.10830663 42.05018289 -74 40 C-73.20837507 37.27513278 -73.20837507 37.27513278 -72.8125 34.3125 C-72.65394531 33.31863281 -72.49539062 32.32476562 -72.33203125 31.30078125 C-72.22246094 30.54152344 -72.11289063 29.78226563 -72 29 C-70.906875 28.855625 -69.81375 28.71125 -68.6875 28.5625 C-66.70258797 28.10094044 -66.70258797 28.10094044 -65 27 C-63.95624078 24.81960469 -63.4128743 22.65911944 -62.78125 20.328125 C-61.49807938 16.50427656 -59.49639347 14.02078458 -56 12 C-51.3436817 10.89660704 -46.76152959 11 -42 11 C-40.65576661 9.34211215 -39.32381517 7.67423683 -38 6 C-32.16076727 2.3440581 -27.33235594 2.8618363 -20.65625 3.1875 C-13.10121452 2.80006228 -8.12130881 -0.89564359 0 0 Z " fill="#763DC2" transform="translate(304,35)"/>
<path d="M0 0 C2.57966855 4.98564371 3.94231274 10.11177755 5.1875 15.5625 C5.36474609 16.29146484 5.54199219 17.02042969 5.72460938 17.77148438 C6.68213812 21.87887601 7.56391503 25.77366906 7 30 C0.45767916 38.91854115 -18.15738749 39.58861376 -28.29077148 41.72265625 C-35.23804839 43.18591473 -42.16281437 44.70170817 -49.0625 46.375 C-60.06085937 49.04120178 -71.09402667 51.54943775 -82.12915039 54.05810547 C-83.56008117 54.38368985 -84.99098953 54.70937279 -86.421875 55.03515625 C-87.12520462 55.1952417 -87.82853424 55.35532715 -88.55317688 55.52026367 C-94.40861602 56.85680263 -100.25521988 58.22971408 -106.09710693 59.62428284 C-124.53195614 64 -124.53195614 64 -130 64 C-130 64.66 -130 65.32 -130 66 C-133.3 65.67 -136.6 65.34 -140 65 C-140 64.67 -140 64.34 -140 64 C-112.83596307 57.24947487 -112.83596307 57.24947487 -102 56 C-102 55.01 -102 54.02 -102 53 C-96.06 51.68 -90.12 50.36 -84 49 C-87.08421965 49 -89.83660504 49.41847243 -92.875 49.9375 C-93.90367188 50.11152344 -94.93234375 50.28554688 -95.9921875 50.46484375 C-98.66988196 50.94126471 -101.33566431 51.45435192 -104 52 C-102.11424438 45.56624552 -99.49505445 39.72991386 -96.42553711 33.78662109 C-95.09371266 31.20659419 -93.92038653 28.76115958 -93 26 C-96.69560175 26.15366327 -100.33085595 26.53454287 -104 27 C-105.26199219 27.15339844 -106.52398437 27.30679687 -107.82421875 27.46484375 C-115.50669781 28.85679554 -115.50669781 28.85679554 -121.30078125 33.88671875 C-123.4613371 38.16471515 -125.15018006 42.44551908 -126.66113281 46.98730469 C-128.08025737 51.23626875 -129.45616028 55.27150312 -132 59 C-136.03121036 60.74279659 -139.65443467 60.92844129 -144 61 C-144.99 61.495 -144.99 61.495 -146 62 C-147.99960012 62.039992 -150.00047242 62.04346799 -152 62 C-151.06371605 56.56232776 -148.94222097 51.94117678 -146.6875 46.9375 C-146.29626953 46.03966797 -145.90503906 45.14183594 -145.50195312 44.21679688 C-141.75345668 35.85572271 -141.75345668 35.85572271 -138 33 C-136.515 32.505 -136.515 32.505 -135 32 C-135.33 31.34 -135.66 30.68 -136 30 C-135.28158936 29.8141333 -134.56317871 29.6282666 -133.82299805 29.43676758 C-130.4443954 28.56241033 -127.0659479 27.68745497 -123.6875 26.8125 C-121.84345581 26.33538574 -121.84345581 26.33538574 -119.9621582 25.84863281 C-113.64128597 24.21121649 -107.32520823 22.55857474 -101.01733398 20.87182617 C-93.95962147 18.98814245 -86.90519885 17.2831662 -79.75 15.80078125 C-67.34864059 13.15257429 -55.04738354 10.02622679 -42.75 6.9375 C-35.65327045 5.15607489 -28.55542205 3.38258457 -21.4375 1.6875 C-20.15746094 1.38199219 -18.87742188 1.07648437 -17.55859375 0.76171875 C-5.74364784 -1.76727626 -5.74364784 -1.76727626 0 0 Z " fill="#753CC2" transform="translate(206,4)"/>
<path d="M0 0 C4.25628047 1.54773835 7.11387002 3.51673968 10 7 C10.495 8.5159375 10.495 8.5159375 11 10.0625 C13.49684488 13.72974091 14.57731316 13.56556232 18.8125 14.375 C23.28289764 15.30046973 25.80839643 16.07106503 28.6875 19.6875 C31.25472384 23.74536995 31.83019496 27.24545876 32 32 C32.886875 32.04125 33.77375 32.0825 34.6875 32.125 C39.25465858 33.33141925 40.28584999 35.20018998 43 39 C45.08929122 43.17858245 44.44618415 48.45123946 44 53 C42.95049881 55.75436774 41.7499752 57.59378409 40 60 C31.59701926 59.47734184 23.58418623 58.01529119 15.375 56.1875 C14.23160156 55.93935547 13.08820313 55.69121094 11.91015625 55.43554688 C6.92696514 54.34633992 1.95036372 53.24285468 -3.00097656 52.01635742 C-13.76208041 49.36571727 -24.53668476 47.53241824 -35.5 45.9375 C-38.80257947 45.44992083 -42.10453477 44.95823886 -45.40625 44.46484375 C-46.20272949 44.34636078 -46.99920898 44.22787781 -47.81982422 44.10580444 C-55.90712944 42.88951413 -63.95485034 41.46669865 -72 40 C-72 36.37 -72 32.74 -72 29 C-70.906875 28.855625 -69.81375 28.71125 -68.6875 28.5625 C-66.70258797 28.10094044 -66.70258797 28.10094044 -65 27 C-63.95624078 24.81960469 -63.4128743 22.65911944 -62.78125 20.328125 C-61.49807938 16.50427656 -59.49639347 14.02078458 -56 12 C-51.3436817 10.89660704 -46.76152959 11 -42 11 C-40.65576661 9.34211215 -39.32381517 7.67423683 -38 6 C-32.16076727 2.3440581 -27.33235594 2.8618363 -20.65625 3.1875 C-13.10121452 2.80006228 -8.12130881 -0.89564359 0 0 Z " fill="#F5F5F5" transform="translate(304,35)"/>
<path d="M0 0 C4.92611873 0.04105099 9.43736812 1.68657514 14.0625 3.25 C13.44948186 7.45293701 12.49858853 11.330638 11.171875 15.36328125 C10.79450195 16.52045654 10.41712891 17.67763184 10.02832031 18.86987305 C9.62709961 20.08843994 9.22587891 21.30700684 8.8125 22.5625 C5.59335651 32.43474113 2.48299118 42.3204298 -0.37695312 52.30224609 C-1.5834444 56.49448798 -2.82459855 60.67668994 -4.0612793 64.86010742 C-5.13412688 68.49533088 -6.19121025 72.13404444 -7.22265625 75.78125 C-9.33154352 83.18762357 -11.5320716 90.31301622 -14.9375 97.25 C-15.9275 97.25 -16.9175 97.25 -17.9375 97.25 C-18.5975 95.6 -19.2575 93.95 -19.9375 92.25 C-20.9275 92.25 -21.9175 92.25 -22.9375 92.25 C-25.03100689 88.8480513 -25.11692163 86.19727588 -24.9375 82.25 C-24.2775 82.25 -23.6175 82.25 -22.9375 82.25 C-22.91171875 81.3528125 -22.8859375 80.455625 -22.859375 79.53125 C-22.16564836 64.269264 -17.86541041 50.61892394 -12.9375 36.25 C-10.59097282 29.22084747 -9.09722372 22.17361889 -7.6953125 14.8984375 C-4.68356929 0.39860164 -4.68356929 0.39860164 0 0 Z " fill="#F3F3F5" transform="translate(307.9375,99.75)"/>
<path d="M0 0 C44.22 0 88.44 0 134 0 C134 3.3 134 6.6 134 10 C89.78 10 45.56 10 0 10 C0 6.7 0 3.4 0 0 Z " fill="#F5F5F5" transform="translate(62,94)"/>
<path d="M0 0 C6.53577694 -0.97341359 12.00751226 1.5726632 18 4 C17.32184944 10.48825128 15.50121256 16.51663267 13.625 22.75 C13.01205438 24.80700393 12.4000699 26.86429451 11.7890625 28.921875 C11.48621338 29.93983154 11.18336426 30.95778809 10.87133789 32.0065918 C10.0554055 34.80965904 9.28704844 37.62059369 8.53515625 40.44140625 C6.83114222 46.75581337 4.8277893 52.96670645 2.8125 59.1875 C2.44447266 60.33025391 2.07644531 61.47300781 1.69726562 62.65039062 C0.80035596 65.43430503 -0.09876573 68.21748323 -1 71 C-6.53350044 70.05083729 -7.70012543 68.43126014 -11 64 C-10.34 62.35 -9.68 60.7 -9 59 C-9.66 59 -10.32 59 -11 59 C-11.34111178 51.76085005 -10.84734032 45.73082989 -8.71484375 38.8125 C-7.95728887 35.83195621 -7.75420284 33.13204634 -7.625 30.0625 C-7.27922347 23.96359051 -6.04103902 18.28017282 -4.5625 12.375 C-4.34480957 11.497229 -4.12711914 10.61945801 -3.90283203 9.71508789 C-2.92757631 5.95165753 -2.18428394 3.27642591 0 0 Z " fill="#F3F2F4" transform="translate(271,92)"/>
<path d="M0 0 C0.79956055 1.94604492 0.79956055 1.94604492 1.38671875 4.48046875 C1.7105957 5.8562207 1.7105957 5.8562207 2.04101562 7.25976562 C2.36102539 8.70899414 2.36102539 8.70899414 2.6875 10.1875 C2.91244141 11.13431641 3.13738281 12.08113281 3.36914062 13.05664062 C4.44429459 17.73960608 5.44863542 22.16556662 5 27 C3.6875 28.875 3.6875 28.875 2 30 C1.01 30 0.02 30 -1 30 C-2.54432138 30.29715445 -4.08167704 30.63132487 -5.61328125 30.98828125 C-6.52529297 31.19880127 -7.43730469 31.40932129 -8.37695312 31.6262207 C-9.83004883 31.96592896 -9.83004883 31.96592896 -11.3125 32.3125 C-13.3084872 32.77129712 -15.30458105 33.22963053 -17.30078125 33.6875 C-19.96926232 34.30197902 -22.63772327 34.91654519 -25.30615234 35.53125 C-27.20258233 35.96502955 -29.10120586 36.38918898 -31 36.8125 C-32.546875 37.16248047 -32.546875 37.16248047 -34.125 37.51953125 C-37.13425555 38.02243673 -39.95468782 38.08610258 -43 38 C-43 36.66666667 -43 35.33333333 -43 34 C-40.36 33.67 -37.72 33.34 -35 33 C-34.505 31.2984375 -34.505 31.2984375 -34 29.5625 C-32.32251549 24.62499844 -30.34529966 19.83462525 -28.25 15.0625 C-27.93933594 14.30461182 -27.62867188 13.54672363 -27.30859375 12.76586914 C-25.44438078 8.64334041 -24.76220657 7.3024106 -20.38671875 5.56640625 C-19.26910156 5.37949219 -18.15148437 5.19257813 -17 5 C-15.64649406 4.37530495 -14.30065517 3.7283669 -13 3 C-15.78424368 1.60787816 -17.47026515 2.29297199 -20.5 2.875 C-21.96953125 3.14957031 -21.96953125 3.14957031 -23.46875 3.4296875 C-25.97676878 3.88851643 -25.97676878 3.88851643 -28 5 C-29.99960012 5.039992 -32.00047242 5.04346799 -34 5 C-29.8474068 2.23160454 -25.56574826 1.46552022 -20.75 0.3125 C-19.35587891 -0.04424805 -19.35587891 -0.04424805 -17.93359375 -0.40820312 C-11.40618188 -1.98235266 -6.47101451 -2.15700484 0 0 Z " fill="#773DC5" transform="translate(208,7)"/>
<path d="M0 0 C2.45840605 -0.02691685 4.91651882 -0.04679802 7.375 -0.0625 C8.07367188 -0.07087891 8.77234375 -0.07925781 9.4921875 -0.08789062 C14.7734375 -0.11328125 14.7734375 -0.11328125 17 1 C16.53529298 11.84599498 14.58677462 22.19933329 12.4375 32.8125 C12.10412382 34.48749225 11.77143689 36.16262184 11.43945312 37.83789062 C10.63422221 41.89355078 9.81974699 45.94725007 9 50 C5.68043709 51.10652097 5.11203583 50.95237748 2 49.75 C0.9790625 49.37101562 0.9790625 49.37101562 -0.0625 48.984375 C-2.33140409 47.83162534 -3.46486235 47.05123146 -5 45 C-5.34057617 41.90551758 -5.34057617 41.90551758 -5.29296875 38.14453125 C-5.28872391 37.48289474 -5.28447906 36.82125824 -5.28010559 36.13957214 C-5.26333693 34.0301309 -5.22569099 31.92165154 -5.1875 29.8125 C-5.17245068 28.38087319 -5.1587627 26.94923138 -5.14648438 25.51757812 C-5.1134403 22.01140712 -5.06167167 18.50579746 -5 15 C-4.01 15 -3.02 15 -2 15 C-1.93941406 14.25234375 -1.87882813 13.5046875 -1.81640625 12.734375 C-1.73261719 11.74953125 -1.64882812 10.7646875 -1.5625 9.75 C-1.48128906 8.77546875 -1.40007812 7.8009375 -1.31640625 6.796875 C-1.04925416 4.43538247 -0.64628032 2.28098935 0 0 Z " fill="#F3F2F5" transform="translate(234,87)"/>
<path d="M0 0 C-2.53780294 1.51625695 -4.4708357 2.07945688 -7.42578125 2.578125 C-15.3735943 3.8740101 -15.3735943 3.8740101 -21.328125 8.8828125 C-23.456171 13.16766189 -25.15255655 17.4526626 -26.66113281 21.98730469 C-28.08025737 26.23626875 -29.45616028 30.27150312 -32 34 C-36.03121036 35.74279659 -39.65443467 35.92844129 -44 36 C-44.99 36.495 -44.99 36.495 -46 37 C-47.99960012 37.039992 -50.00047242 37.04346799 -52 37 C-51.06371605 31.56232776 -48.94222097 26.94117678 -46.6875 21.9375 C-46.29626953 21.03966797 -45.90503906 20.14183594 -45.50195312 19.21679688 C-41.75345668 10.85572271 -41.75345668 10.85572271 -38 8 C-37.01 7.67 -36.02 7.34 -35 7 C-35.33 6.34 -35.66 5.68 -36 5 C-23.72175734 1.22622618 -12.85085243 -0.74044604 0 0 Z " fill="#F4F4F5" transform="translate(106,29)"/>
<path d="M0 0 C-3.15757396 2.10504931 -4.22133224 2.18263627 -7.84375 2.48046875 C-11.11104928 3.09011925 -12.55876977 3.47491095 -14.71875 6.04541016 C-16.16741659 8.75085674 -17.36230615 11.46253874 -18.5 14.3125 C-19.12261719 15.73852539 -19.12261719 15.73852539 -19.7578125 17.19335938 C-21.26349292 20.66856692 -22.71181804 24.13320452 -23.90698242 27.72802734 C-25 30 -25 30 -28.51953125 31.36328125 C-29.94551398 31.70153762 -31.37700233 32.01721954 -32.8125 32.3125 C-33.52470703 32.48072266 -34.23691406 32.64894531 -34.97070312 32.82226562 C-38.6947736 33.6662964 -42.18176839 34.20253881 -46 34 C-44.09367601 27.68652288 -41.6705475 21.9363743 -38.5625 16.125 C-38.18029297 15.37992188 -37.79808594 14.63484375 -37.40429688 13.8671875 C-37.02466797 13.15046875 -36.64503906 12.43375 -36.25390625 11.6953125 C-35.91689697 11.05609863 -35.5798877 10.41688477 -35.23266602 9.75830078 C-31.47156853 4.39339206 -25.81724159 3.69371575 -19.8125 2.3125 C-18.90435547 2.08755859 -17.99621094 1.86261719 -17.06054688 1.63085938 C-11.23012852 0.25776872 -5.98678752 -0.22626265 0 0 Z " fill="#F3F3F5" transform="translate(198,10)"/>
<path d="M0 0 C-1.58544659 5.1887343 -3.36642203 10.0758082 -5.8984375 14.87890625 C-6.71435332 16.44997821 -7.48350068 18.04553173 -8.2265625 19.65234375 C-8.64679688 20.55082031 -9.06703125 21.44929688 -9.5 22.375 C-9.8815625 23.20773438 -10.263125 24.04046875 -10.65625 24.8984375 C-12.25419586 27.3975505 -13.22007648 28.02433019 -16 29 C-17.96750635 29.41406942 -19.94915746 29.76412325 -21.9375 30.0625 C-25.64669117 30.6298984 -29.32591796 31.23541203 -33 32 C-30.46134832 23.11471913 -26.21711772 15.17893907 -22 7 C-21.67 6.34 -21.34 5.68 -21 5 C-22.65 5 -24.3 5 -26 5 C-22.28528034 2.78656601 -18.32097818 2.12950617 -14.125 1.375 C-13.08279297 1.17390625 -13.08279297 1.17390625 -12.01953125 0.96875 C-7.96157144 0.21982333 -4.12347359 -0.14218874 0 0 Z " fill="#F3F3F4" transform="translate(135,24)"/>
<path d="M0 0 C5.06367367 -0.03477577 10.1272374 -0.05729944 15.19100952 -0.0719986 C16.96734772 -0.08209709 16.96734772 -0.08209709 18.77957153 -0.0923996 C26.36093262 -0.09871176 33.95804071 0.06442348 41.48788452 1.01784515 C43.69416499 3.22412563 42.65961022 8.26530371 42.67733765 11.20241547 C42.67637085 13.09105316 42.67637085 13.09105316 42.67538452 15.01784515 C42.67602905 16.28467133 42.67667358 17.5514975 42.67733765 18.85671234 C42.62399031 28.37436224 41.99074812 37.62494765 40.48788452 47.01784515 C40.15788452 47.01784515 39.82788452 47.01784515 39.48788452 47.01784515 C39.48788452 32.49784515 39.48788452 17.97784515 39.48788452 3.01784515 C-9.02211548 3.01784515 -57.53211548 3.01784515 -107.51211548 3.01784515 C-107.51211548 2.68784515 -107.51211548 2.35784515 -107.51211548 2.01784515 C-97.02905005 0.72527319 -86.50953786 0.79335682 -75.96524048 0.7014389 C-73.94771987 0.68078868 -71.9302028 0.65979065 -69.91268921 0.63846588 C-65.68315761 0.59466224 -61.45361187 0.55375016 -57.22402954 0.51515961 C-51.90038796 0.46654738 -46.57681502 0.41282077 -41.25324249 0.35720634 C-27.50231927 0.21389412 -13.75131741 0.09768435 0 0 Z " fill="#8249E1" transform="translate(173.51211547851563,68.9821548461914)"/>
<path d="M0 0 C1.17280518 -0.01023193 2.34561035 -0.02046387 3.55395508 -0.03100586 C10.98626124 0.04437678 17.50718414 1.09406028 24.5625 3.4375 C24.5625 3.7675 24.5625 4.0975 24.5625 4.4375 C23.63953125 4.3653125 22.7165625 4.293125 21.765625 4.21875 C-7.02299656 2.17054768 -32.01533916 4.50302928 -57.4375 19.4375 C-58.28054687 19.91703125 -59.12359375 20.3965625 -59.9921875 20.890625 C-65.46039007 24.15569668 -70.26095902 27.83071663 -74.9375 32.125 C-75.42250977 32.5691626 -75.90751953 33.0133252 -76.40722656 33.47094727 C-76.9019043 33.93815186 -77.39658203 34.40535645 -77.90625 34.88671875 C-78.72222656 35.65495972 -78.72222656 35.65495972 -79.5546875 36.4387207 C-81.59675605 38.52926831 -81.59675605 38.52926831 -83.6953125 41.47338867 C-90.50625903 50.3917596 -90.50625903 50.3917596 -96.36523438 51.45141602 C-100.74116193 51.86731967 -105.05925342 51.63459684 -109.4375 51.375 C-110.95171208 51.34044599 -112.4660527 51.31111403 -113.98046875 51.28710938 C-124.74505124 50.98733978 -124.74505124 50.98733978 -127.3828125 48.89282227 C-127.90488281 48.17243774 -127.90488281 48.17243774 -128.4375 47.4375 C-127.4475 46.9425 -127.4475 46.9425 -126.4375 46.4375 C-125.4475 46.7675 -124.4575 47.0975 -123.4375 47.4375 C-121.1536483 47.52128628 -118.867399 47.54479915 -116.58203125 47.53515625 C-115.92039474 47.5337413 -115.25875824 47.53232635 -114.57707214 47.53086853 C-112.46800172 47.52527996 -110.35903823 47.51272965 -108.25 47.5 C-106.81836091 47.49498352 -105.38672015 47.49042087 -103.95507812 47.48632812 C-100.44918412 47.4753143 -96.9433525 47.45805755 -93.4375 47.4375 C-93.1075 46.4475 -92.7775 45.4575 -92.4375 44.4375 C-91.839375 44.14875 -91.24125 43.86 -90.625 43.5625 C-86.75670306 41.57309014 -84.78737609 38.48712827 -83.4375 34.4375 C-81.79123077 33.40426459 -80.12050784 32.40974605 -78.4375 31.4375 C-76.6676945 29.93976087 -74.91941131 28.41640107 -73.1875 26.875 C-52.49279773 9.19043624 -26.99409899 0.18190332 0 0 Z " fill="#8B48E6" transform="translate(179.4375,117.5625)"/>
<path d="M0 0 C0.85602814 -0.00902847 1.71205627 -0.01805695 2.59402466 -0.02735901 C4.40086414 -0.04179444 6.2077551 -0.05073145 8.01464844 -0.05444336 C10.71644922 -0.06622587 13.41587501 -0.11537837 16.1171875 -0.16601562 C32.17297305 -0.31471179 46.58669537 2.90403092 60.8828125 10.37109375 C61.61113281 10.7371875 62.33945313 11.10328125 63.08984375 11.48046875 C67.91785744 14.02061289 72.43747078 16.99643334 76.9453125 20.05859375 C77.53038574 20.45143555 78.11545898 20.84427734 78.71826172 21.24902344 C80.14459524 22.23677961 81.51923931 23.29835998 82.8828125 24.37109375 C82.8828125 25.03109375 82.8828125 25.69109375 82.8828125 26.37109375 C84.2028125 27.03109375 85.5228125 27.69109375 86.8828125 28.37109375 C86.8828125 29.03109375 86.8828125 29.69109375 86.8828125 30.37109375 C87.46933594 30.62246094 88.05585938 30.87382812 88.66015625 31.1328125 C94.00614562 34.11115807 98.05840241 40.05455712 100.8828125 45.37109375 C99.8928125 45.37109375 98.9028125 45.37109375 97.8828125 45.37109375 C92.8828125 40.02225654 92.8828125 40.02225654 92.8828125 37.37109375 C91.8928125 37.37109375 90.9028125 37.37109375 89.8828125 37.37109375 C88.8717578 35.71110996 87.87375507 34.04316151 86.8828125 32.37109375 C84.4186023 30.1610114 84.4186023 30.1610114 81.6953125 28.18359375 C80.05666679 26.9575398 78.44223181 25.69645388 76.8828125 24.37109375 C76.8828125 23.71109375 76.8828125 23.05109375 76.8828125 22.37109375 C76.32722656 22.273125 75.77164063 22.17515625 75.19921875 22.07421875 C72.33474546 21.20473276 70.29796341 19.79962014 67.8203125 18.12109375 C54.26719778 9.31966865 38.34535407 2.98513796 22.04296875 3.140625 C21.23597031 3.14108322 20.42897186 3.14154144 19.59751892 3.14201355 C17.90427159 3.14501135 16.2110264 3.15282246 14.51782227 3.1652832 C11.95513909 3.18352381 9.3928195 3.18579242 6.83007812 3.18554688 C-1.21571837 3.20343881 -9.12373184 3.34629174 -17.1171875 4.37109375 C-17.1171875 3.71109375 -17.1171875 3.05109375 -17.1171875 2.37109375 C-11.29112959 0.71201491 -6.0439897 0.04056241 0 0 Z " fill="#8748E1" transform="translate(164.1171875,137.62890625)"/>
<path d="M0 0 C0.495 1.485 0.495 1.485 1 3 C0.34 3 -0.32 3 -1 3 C-1.20625 3.56976563 -1.4125 4.13953125 -1.625 4.7265625 C-3.53338613 7.88190548 -5.94832898 9.32375886 -9 11.375 C-9.58233398 11.7671167 -10.16466797 12.1592334 -10.76464844 12.56323242 C-17.91338584 17.33917657 -25.04876917 21.79911323 -32.9921875 25.140625 C-34.98849884 25.95299894 -34.98849884 25.95299894 -36.7421875 26.9765625 C-48.72377955 32.40766478 -62.77891661 32.4061201 -75.6875 32.4375 C-76.37936401 32.44340149 -77.07122803 32.44930298 -77.78405762 32.4553833 C-85.75686287 32.50147571 -92.65325808 32.25549019 -100 29 C-100.33 28.34 -100.66 27.68 -101 27 C-100.36763428 27.14002441 -99.73526855 27.28004883 -99.08374023 27.42431641 C-72.91361154 32.75208448 -43.12501201 29.75061252 -20.125 15.5625 C-13.07049606 10.81407462 -6.48633506 5.48843736 0 0 Z " fill="#8C48E6" transform="translate(252,312)"/>
<path d="M0 0 C0 0.99 0 1.98 0 3 C-10.27224384 6.28248393 -20.72699798 8.50067253 -31.2722168 10.71728516 C-38.39415139 12.21777861 -45.48950924 13.78377495 -52.5625 15.5 C-60.82107337 17.49200947 -69.09066972 19.43022735 -77.375 21.3125 C-78.52299072 21.57933594 -79.67098145 21.84617187 -80.85375977 22.12109375 C-86.35024484 23.35927935 -91.36175062 24.34934398 -97 24 C-93.60389252 21.73592835 -90.45591195 21.02250898 -86.54296875 20.16015625 C-85.79476364 19.9898439 -85.04655853 19.81953156 -84.27568054 19.64405823 C-82.67354691 19.27938465 -81.07087096 18.91708694 -79.4677124 18.5569458 C-76.22463725 17.82500593 -72.98693586 17.07077911 -69.74905396 16.31625366 C-66.44163814 15.54601434 -63.13279699 14.78199268 -59.82397461 14.01782227 C-57.30363115 13.43545069 -54.78365309 12.8515149 -52.26367188 12.26757812 C-43.91511772 10.33686718 -35.56132585 8.4535545 -27.1784668 6.67700195 C-22.19348443 5.61521871 -17.22109472 4.4997449 -12.25 3.375 C-11.280625 3.1584375 -10.31125 2.941875 -9.3125 2.71875 C-8.38953125 2.50992188 -7.4665625 2.30109375 -6.515625 2.0859375 C-5.69352539 1.9007959 -4.87142578 1.7156543 -4.02441406 1.52490234 C-1.95101232 1.06234343 -1.95101232 1.06234343 0 0 Z " fill="#8D4BEA" transform="translate(209,35)"/>
<path d="M0 0 C1.24209229 0.00398804 1.24209229 0.00398804 2.50927734 0.00805664 C21.90639861 0.15639861 21.90639861 0.15639861 23.875 2.125 C24.13533312 6.45134272 24.06471818 10.79179337 24.0625 15.125 C24.06314453 16.39182617 24.06378906 17.65865234 24.06445312 18.96386719 C24.01110579 28.48151709 23.3778636 37.73210249 21.875 47.125 C21.545 47.125 21.215 47.125 20.875 47.125 C20.875 32.605 20.875 18.085 20.875 3.125 C8.665 3.125 -3.545 3.125 -16.125 3.125 C-16.125 2.465 -16.125 1.805 -16.125 1.125 C-10.70666643 0.21471996 -5.4893739 -0.03167588 0 0 Z " fill="#9870DA" transform="translate(192.125,68.875)"/>
<path d="M0 0 C0.53625 0.28875 1.0725 0.5775 1.625 0.875 C4.35280484 2.16711808 7.12612718 3.08558592 10 4 C10 7.3 10 10.6 10 14 C8.35 14.33 6.7 14.66 5 15 C4.5875 14.030625 4.175 13.06125 3.75 12.0625 C2.35100832 8.87739901 2.35100832 8.87739901 -0.1875 8.125 C-0.785625 8.08375 -1.38375 8.0425 -2 8 C-2.66 9.98 -3.32 11.96 -4 14 C-6.97 13.505 -6.97 13.505 -10 13 C-10.6875 11.1875 -10.6875 11.1875 -11 9 C-9.625 7.4375 -9.625 7.4375 -8 6 C-7.67 5.01 -7.34 4.02 -7 3 C-4.69 3 -2.38 3 0 3 C0 2.01 0 1.02 0 0 Z " fill="#703FB4" transform="translate(270,57)"/>
<path d="M0 0 C0.99 0.33 1.98 0.66 3 1 C-8.27366422 14.47340358 -19.92347322 25.35177109 -38 28 C-45.01271689 28.44824339 -51.97350081 28.18250647 -59 28 C-59 21.4 -59 14.8 -59 8 C-58.67 8 -58.34 8 -58 8 C-58 13.94 -58 19.88 -58 26 C-37.6537445 25.32739651 -20.80721454 21.93442429 -6 7 C-3.90840208 4.72090824 -1.94617978 2.4071171 0 0 Z " fill="#8C48E6" transform="translate(106,316)"/>
<path d="M0 0 C0.33 0 0.66 0 1 0 C2.2836318 5.06451091 1.49344824 8.55391168 -0.3125 13.3125 C-2.29385287 18.83664225 -3.81136196 24.25491616 -5 30 C-5.33 30.33 -5.66 30.66 -6 31 C-6.08713831 32.70772358 -6.10700007 34.41898649 -6.09765625 36.12890625 C-6.09443359 37.16337891 -6.09121094 38.19785156 -6.08789062 39.26367188 C-6.07951172 40.35228516 -6.07113281 41.44089844 -6.0625 42.5625 C-6.05798828 43.65498047 -6.05347656 44.74746094 -6.04882812 45.87304688 C-6.03699826 48.58208495 -6.02051543 51.29101599 -6 54 C-5.34 54 -4.68 54 -4 54 C-3.67 56.31 -3.34 58.62 -3 61 C-4.32 60.67 -5.64 60.34 -7 60 C-12.4910233 39.40866264 -8.13540262 19.17154307 0 0 Z " fill="#6D3AB9" transform="translate(79,199)"/>
<path d="M0 0 C0.680625 0.309375 1.36125 0.61875 2.0625 0.9375 C6.68647499 2.61000159 11.10366217 3 16 3 C15.814375 4.2375 15.62875 5.475 15.4375 6.75 C15.05288777 9.76279577 14.9125406 12.10010827 16 15 C14.02 15 12.04 15 10 15 C9.34 13.02 8.68 11.04 8 9 C6.68 9 5.36 9 4 9 C3.67 10.32 3.34 11.64 3 13 C2.01 13 1.02 13 0 13 C0 12.34 0 11.68 0 11 C-0.99 11 -1.98 11 -3 11 C-2.625 9.0625 -2.625 9.0625 -2 7 C-1.34 6.67 -0.68 6.34 0 6 C0 4.02 0 2.04 0 0 Z " fill="#7147AE" transform="translate(307,63)"/>
<path d="M0 0 C0.495 1.98 0.495 1.98 1 4 C0.42467529 3.66540771 -0.15064941 3.33081543 -0.7434082 2.98608398 C-7.0532335 0.22882072 -15.95124635 3.80311049 -22.3125 5.4375 C-23.19228516 5.65470703 -24.07207031 5.87191406 -24.97851562 6.09570312 C-29.64717756 7.23535945 -29.64717756 7.23535945 -34.07983398 9.04101562 C-36.88515817 10.44207264 -39.65190518 10.66001825 -42.75 11.0625 C-43.98492187 11.22621094 -45.21984375 11.38992188 -46.4921875 11.55859375 C-47.64976562 11.70425781 -48.80734375 11.84992187 -50 12 C-50.88945312 12.11472656 -51.77890625 12.22945312 -52.6953125 12.34765625 C-54.46261292 12.57252781 -56.23114094 12.78773691 -58 13 C-57.01 12.67 -56.02 12.34 -55 12 C-55 11.34 -55 10.68 -55 10 C-32.00682033 4.20452246 -32.00682033 4.20452246 -21.4375 1.6875 C-19.51744141 1.22923828 -19.51744141 1.22923828 -17.55859375 0.76171875 C-11.3365872 -0.57010483 -6.29602032 -1.1564119 0 0 Z " fill="#874DDF" transform="translate(206,4)"/>
<path d="M0 0 C0.66 0 1.32 0 2 0 C0.94048614 5.20927649 -0.34242369 10.2400351 -1.9375 15.3125 C-5.42683133 26.50689752 -7.64994664 37.37365816 -9 49 C-9.66 49 -10.32 49 -11 49 C-11.33 49.99 -11.66 50.98 -12 52 C-12.40992188 51.24074219 -12.81984375 50.48148438 -13.2421875 49.69921875 C-14.05042969 48.20841797 -14.05042969 48.20841797 -14.875 46.6875 C-15.40867187 45.70136719 -15.94234375 44.71523437 -16.4921875 43.69921875 C-18.00722126 40.90413542 -18.00722126 40.90413542 -20 38 C-17.625 38.3125 -17.625 38.3125 -15 39 C-13 42 -13 42 -13 46 C-12.34 46 -11.68 46 -11 46 C-10.96261719 45.16597656 -10.92523438 44.33195312 -10.88671875 43.47265625 C-10.82097656 42.34730469 -10.75523437 41.22195312 -10.6875 40.0625 C-10.62949219 38.96035156 -10.57148438 37.85820312 -10.51171875 36.72265625 C-9.89233667 32.21676983 -8.53629417 28.26331678 -7 24 C-6.4735707 22.46586711 -5.95011895 20.93070918 -5.4296875 19.39453125 C-4.64795167 17.09057113 -3.86615476 14.78680564 -3.07421875 12.48632812 C-1.67249472 8.33452115 -0.57095994 4.36575467 0 0 Z " fill="#714EA9" transform="translate(294,133)"/>
<path d="M0 0 C16.67383995 -0.79085407 16.67383995 -0.79085407 24 4 C24.66 4.66 25.32 5.32 26 6 C21.8787199 5.56156595 18.48106169 4.84408162 14.625 3.3125 C9.60281631 1.58159459 5.90154245 2.07936014 1 4 C-4.44970556 6.67653979 -9.5174715 9.91878648 -11.6796875 15.87109375 C-12.17726299 17.56489526 -12.59565994 19.28155476 -13 21 C-13.66 21 -14.32 21 -15 21 C-15 22.65 -15 24.3 -15 26 C-15.33 26 -15.66 26 -16 26 C-16.52225485 19.86350547 -15.31529574 15.23079994 -12 10 C-8.50805667 6.16458684 -5.22585002 2.9331875 0 2 C0 1.34 0 0.68 0 0 Z " fill="#8645DD" transform="translate(201,263)"/>
<path d="M0 0 C-0.33 0.66 -0.66 1.32 -1 2 C-3.29296875 2.30859375 -3.29296875 2.30859375 -6.1875 2.4375 C-10.82192718 2.76209023 -13.93140604 3.66055847 -18 6 C-18.99 6 -19.98 6 -21 6 C-21.66 7.32 -22.32 8.64 -23 10 C-23.66 10 -24.32 10 -25 10 C-25.28875 10.7425 -25.5775 11.485 -25.875 12.25 C-27 15 -27 15 -28.0703125 16.73046875 C-29.37364165 19.9121252 -29.11507736 22.64254483 -29 26.0625 C-28.77822178 32.66733267 -28.77822178 32.66733267 -31 36 C-33.01033194 33.98966806 -32.23043059 30.11960986 -32.25 27.375 C-32.270625 26.67503906 -32.29125 25.97507812 -32.3125 25.25390625 C-32.36289641 18.46299048 -30.41262766 12.65874958 -25.7578125 7.48828125 C-17.98612905 0.90825593 -9.95102659 -0.95275787 0 0 Z " fill="#8643DA" transform="translate(152,263)"/>
<path d="M0 0 C-2.62174804 2.62174804 -4.56179486 2.71235897 -8.1875 3.4375 C-9.4353125 3.69015625 -10.683125 3.9428125 -11.96875 4.203125 C-12.95488281 4.39745117 -12.95488281 4.39745117 -13.9609375 4.59570312 C-16.02850504 5.00565186 -18.09248629 5.43071731 -20.15625 5.859375 C-30.5608567 8 -30.5608567 8 -34 8 C-34 8.66 -34 9.32 -34 10 C-37.3 9.67 -40.6 9.34 -44 9 C-44 8.67 -44 8.34 -44 8 C-19.53902597 2.01613442 -19.53902597 2.01613442 -10.1875 0.0625 C-8.50720703 -0.29134766 -8.50720703 -0.29134766 -6.79296875 -0.65234375 C-4.13420513 -0.98329475 -2.50249527 -0.87860004 0 0 Z " fill="#8845DD" transform="translate(110,60)"/>
<path d="M0 0 C0.33 0.66 0.66 1.32 1 2 C1.66 2 2.32 2 3 2 C3.99 4.97 4.98 7.94 6 11 C6.66 11 7.32 11 8 11 C8.5775 11.598125 9.155 12.19625 9.75 12.8125 C14.50205181 17.43255037 19.43164063 18.46897522 25.875 18.6875 C26.56335938 18.72166016 27.25171875 18.75582031 27.9609375 18.79101562 C29.64008613 18.87264091 31.32001168 18.9380157 33 19 C33 19.66 33 20.32 33 21 C25.15763525 23.61412158 18.94842103 21.71457653 11.671875 18.41796875 C5.79982776 15.30166298 2.81111152 10.83045351 0 5 C-0.25 2.0625 -0.25 2.0625 0 0 Z " fill="#8847E3" transform="translate(208,233)"/>
<path d="M0 0 C0.495 0.99 0.495 0.99 1 2 C-0.57587891 2.02126953 -0.57587891 2.02126953 -2.18359375 2.04296875 C-11.93397947 2.31703867 -19.25479609 3.1299223 -26.375 10.4375 C-28.13280724 13.2094268 -29.61614284 16.0247071 -31 19 C-31.66 19 -32.32 19 -33 19 C-33.33 19.66 -33.66 20.32 -34 21 C-33.74109357 19.60190528 -33.46722539 18.20657858 -33.1875 16.8125 C-32.96126953 15.64654297 -32.96126953 15.64654297 -32.73046875 14.45703125 C-31.43679452 10.10558158 -29.89896241 7.64193862 -26.171875 4.98046875 C-17.05832349 0.20521744 -10.29778389 -0.90862799 0 0 Z " fill="#7F44DC" transform="translate(185,157)"/>
<path d="M0 0 C0.33 1.32 0.66 2.64 1 4 C1.66 4 2.32 4 3 4 C3.02481819 8.73225528 3.04291583 13.46447221 3.05493164 18.19677734 C3.05994375 19.80485698 3.06675519 21.4129321 3.07543945 23.02099609 C3.08764226 25.33952961 3.09325964 27.65800259 3.09765625 29.9765625 C3.10281754 30.68930328 3.10797882 31.40204407 3.11329651 32.13638306 C3.11374755 36.19856429 2.78775607 40.01488106 2 44 C1.34 44 0.68 44 0 44 C-0.33 44.66 -0.66 45.32 -1 46 C-0.83701416 44.70006104 -0.67402832 43.40012207 -0.50610352 42.06079102 C0.01384888 37.36425261 0.12959649 32.74836006 0.09765625 28.02734375 C0.09553383 26.81456505 0.09553383 26.81456505 0.09336853 25.57728577 C0.08783414 23.03065058 0.0752946 20.48410797 0.0625 17.9375 C0.0574765 16.19596482 0.05291509 14.45442825 0.04882812 12.71289062 C0.03788634 8.47522552 0.02066826 4.23762837 0 0 Z " fill="#7F3FDD" transform="translate(280,220)"/>
<path d="M0 0 C-3.84344382 2.24538034 -7.9638019 3.1026736 -12.25 4.125 C-12.99507812 4.30675781 -13.74015625 4.48851562 -14.5078125 4.67578125 C-16.3375026 5.12147499 -18.16861575 5.56131959 -20 6 C-20 5.34 -20 4.68 -20 4 C-20.90363281 4.23976563 -21.80726562 4.47953125 -22.73828125 4.7265625 C-23.91777344 5.02304687 -25.09726563 5.31953125 -26.3125 5.625 C-27.48425781 5.92664062 -28.65601562 6.22828125 -29.86328125 6.5390625 C-33 7 -33 7 -36 5 C-23.72175734 1.22622618 -12.85085243 -0.74044604 0 0 Z " fill="#DACAF0" transform="translate(106,29)"/>
<path d="M0 0 C3.6132927 2.06473869 6.7553513 4.40428104 10 7 C14.58573871 10.49759732 18.75987317 10.53411252 24.3125 10.6875 C25.14845703 10.72166016 25.98441406 10.75582031 26.84570312 10.79101562 C28.89667772 10.87305461 30.94831538 10.9382151 33 11 C29.03428381 14.45965032 26.14009126 14.56192024 21.01953125 14.41796875 C13.56966697 13.38674562 6.70714899 9.92189712 2 4 C0.6875 1.6875 0.6875 1.6875 0 0 Z " fill="#8344DC" transform="translate(99,241)"/>
<path d="M0 0 C0.33 0 0.66 0 1 0 C1.21275375 14.80602439 1.31479714 29.3465074 -1 44 C-1.33 44 -1.66 44 -2 44 C-2.18977289 19.97183315 -2.18977289 19.97183315 -1.5625 8.5 C-1.52326416 7.74799316 -1.48402832 6.99598633 -1.44360352 6.22119141 C-1.12999342 1.12999342 -1.12999342 1.12999342 0 0 Z " fill="#9C7ACB" transform="translate(215,72)"/>
<path d="M0 0 C4.48657784 1.73345053 7.14612057 3.60118377 9.37890625 7.96484375 C10.74850584 12.45265122 9.77628074 16.91649179 8.171875 21.22265625 C7 23 7 23 3.375 23.75 C2.26125 23.8325 1.1475 23.915 0 24 C0.825 23.401875 1.65 22.80375 2.5 22.1875 C5.19268091 19.50251247 5.47334086 17.24598082 5.625 13.5 C5.45690593 9.33126702 5.26459998 8.31751998 2.5 5 C1.675 4.34 0.85 3.68 0 3 C0 2.01 0 1.02 0 0 Z " fill="#753BC0" transform="translate(183,226)"/>
<path d="M0 0 C0.99 0 1.98 0 3 0 C4.66666667 1.66666667 6.33333333 3.33333333 8 5 C14.08838202 8.47907544 18.81417862 9.14772276 25.75 9.0625 C26.44738281 9.05798828 27.14476562 9.05347656 27.86328125 9.04882812 C29.57555803 9.0371002 31.28779033 9.01916653 33 9 C33 9.66 33 10.32 33 11 C26.30010037 13.23329988 17.49035439 13.33441943 10.86328125 10.80078125 C6.72580581 8.34550808 3.23052736 5.57977356 0 2 C0 1.34 0 0.68 0 0 Z " fill="#8245D9" transform="translate(124,303)"/>
<path d="M0 0 C2 2 2 2 2 5 C2.66 5 3.32 5 4 5 C8 9.47058824 8 9.47058824 8 12 C14.80192509 15.68437609 21.29626976 17.48285144 29 18 C29 18.66 29 19.32 29 20 C20.81252233 20.70044961 14.84139587 19.71351144 8 15 C4.28794912 11.67962835 1.92734491 7.56476426 0 3 C0 2.01 0 1.02 0 0 Z " fill="#8344DE" transform="translate(186,295)"/>
<path d="M0 0 C0.33 0 0.66 0 1 0 C1 10.89 1 21.78 1 33 C1.66 33 2.32 33 3 33 C3.33 35.31 3.66 37.62 4 40 C2.68 39.67 1.36 39.34 0 39 C-1.79569419 32.26614679 -2.21929316 25.86956967 -2.25 18.9375 C-2.25902344 18.09928711 -2.26804687 17.26107422 -2.27734375 16.39746094 C-2.25057787 10.69855957 -1.45771021 5.50625958 0 0 Z " fill="#40216A" transform="translate(72,220)"/>
<path d="M0 0 C0.6705542 0.16298584 1.3411084 0.32597168 2.03198242 0.49389648 C5.56446198 1.09625152 8.90421503 1.1119354 12.48828125 1.09765625 C13.5430793 1.09553383 13.5430793 1.09553383 14.6191864 1.09336853 C16.85033544 1.08780109 19.08138164 1.07525475 21.3125 1.0625 C22.83137875 1.05748079 24.35025909 1.05291862 25.86914062 1.04882812 C29.57946012 1.03784236 33.28972001 1.02060034 37 1 C36.67 1.99 36.34 2.98 36 4 C31.35526018 4.07416067 26.71086501 4.12860615 22.06567383 4.16479492 C20.48553464 4.17988094 18.90543731 4.2003525 17.32543945 4.22631836 C15.05409415 4.26271126 12.78330241 4.27972762 10.51171875 4.29296875 C9.45219246 4.31619453 9.45219246 4.31619453 8.3712616 4.33988953 C3.46209554 4.34157379 3.46209554 4.34157379 1.03051758 2.54418945 C0 1 0 1 0 0 Z " fill="#974AFB" transform="translate(51,164)"/>
<path d="M0 0 C0.33 0 0.66 0 1 0 C1 8.58 1 17.16 1 26 C-4.91485637 27.18297127 -5.88851053 26.50563209 -11 24 C-11 23.67 -11 23.34 -11 23 C-8.03 23.33 -5.06 23.66 -2 24 C-1.93941406 23.02160156 -1.87882813 22.04320313 -1.81640625 21.03515625 C-1.36678488 14.00031117 -0.85950635 6.99883741 0 0 Z " fill="#8954D6" transform="translate(215,99)"/>
<path d="M0 0 C-3.02283311 1.66966739 -5.79582469 2.50651086 -9.17578125 3.18359375 C-10.66561523 3.49200195 -10.66561523 3.49200195 -12.18554688 3.80664062 C-14.25816514 4.22478909 -16.33107941 4.64147326 -18.40429688 5.05664062 C-28.75521509 6.94756511 -28.75521509 6.94756511 -37 13 C-37.93423645 9.98968256 -38.04449911 9.13349732 -37 6 C-35.77023438 5.80664062 -34.54046875 5.61328125 -33.2734375 5.4140625 C-31.64058272 5.15130426 -30.00777254 4.88826875 -28.375 4.625 C-27.16263672 4.43550781 -27.16263672 4.43550781 -25.92578125 4.2421875 C-21.43447441 3.51189371 -17.30102176 2.5315211 -13 1 C-8.61528191 0.21701463 -4.45098719 -0.10856066 0 0 Z " fill="#6B44AB" transform="translate(199,8)"/>
<path d="M0 0 C0 0.33 0 0.66 0 1 C-1.07378906 1.03738281 -2.14757812 1.07476562 -3.25390625 1.11328125 C-4.6901362 1.17899112 -6.12633262 1.24543668 -7.5625 1.3125 C-8.26697266 1.33505859 -8.97144531 1.35761719 -9.69726562 1.38085938 C-15.6719655 1.68372435 -20.43167352 3.00241274 -25.25 6.75 C-25.8275 7.1625 -26.405 7.575 -27 8 C-27.99 7.67 -28.98 7.34 -30 7 C-20.37804656 -1.16011471 -12.27323104 -4.00758565 0 0 Z " fill="#8945E1" transform="translate(132,203)"/>
<path d="M0 0 C0 0.33 0 0.66 0 1 C-2.31 1.33 -4.62 1.66 -7 2 C-7.26554687 3.00160156 -7.53109375 4.00320312 -7.8046875 5.03515625 C-8.16142431 6.37761321 -8.51819707 7.72006061 -8.875 9.0625 C-9.04902344 9.71927734 -9.22304688 10.37605469 -9.40234375 11.05273438 C-10.25685978 14.26508169 -11.13478418 17.46381616 -12.0625 20.65625 C-12.88153654 23.57748033 -13.55395275 26.45989651 -14.125 29.4375 C-14.29257812 30.30246094 -14.46015625 31.16742188 -14.6328125 32.05859375 C-14.75398438 32.69925781 -14.87515625 33.33992188 -15 34 C-17.89310688 25.81664053 -14.20505619 14.6642648 -11 7 C-10.814375 5.865625 -10.62875 4.73125 -10.4375 3.5625 C-10.293125 2.716875 -10.14875 1.87125 -10 1 C-6.78548731 -0.60725635 -3.56387464 -0.05748185 0 0 Z " fill="#6B45A5" transform="translate(278,91)"/>
<path d="M0 0 C-2.32377005 2.32377005 -3.86656791 3.02515446 -7 4 C-9.33333333 4 -11.66666667 4 -14 4 C-15.34201342 4.29646056 -16.67602844 4.63123423 -18 5 C-21.79153437 6.05155836 -25.07658796 6.1634755 -29 6 C-29 5.34 -29 4.68 -29 4 C-27.99839844 3.80664062 -26.99679688 3.61328125 -25.96484375 3.4140625 C-24.62236492 3.15119951 -23.27991873 2.88816974 -21.9375 2.625 C-21.28072266 2.49867187 -20.62394531 2.37234375 -19.94726562 2.2421875 C-16.64071992 1.5906514 -13.48629916 0.84588975 -10.25 -0.125 C-6.47883649 -1.14031325 -3.79449844 -0.77438744 0 0 Z " fill="#7C53C0" transform="translate(73,35)"/>
<path d="M0 0 C2.47003634 2.47003634 2.95174298 4.49165453 4 7.8125 C4.95871771 10.82721781 5.90772525 13.77860469 7.125 16.69921875 C8 19 8 19 8 22 C5 21 5 21 4.0168457 19.37353516 C3.73929443 18.68565918 3.46174316 17.9977832 3.17578125 17.2890625 C2.71655273 16.16371094 2.71655273 16.16371094 2.24804688 15.015625 C1.93931641 14.22671875 1.63058594 13.4378125 1.3125 12.625 C0.99216797 11.84382813 0.67183594 11.06265625 0.34179688 10.2578125 C-2 4.42578958 -2 4.42578958 -2 1 C-1.34 0.67 -0.68 0.34 0 0 Z " fill="#6734AC" transform="translate(78,271)"/>
<path d="M0 0 C3.62755932 1.4264821 4.80099629 2.87548687 6.4375 6.375 C6.85257812 7.25671875 7.26765625 8.1384375 7.6953125 9.046875 C9.88220535 13.99684805 11.97391006 18.98219428 14 24 C13.34 24.66 12.68 25.32 12 26 C11.42765625 24.85273438 10.8553125 23.70546875 10.265625 22.5234375 C8.80772571 19.60635329 7.33900222 16.69518115 5.859375 13.7890625 C5.15625 12.40104167 4.453125 11.01302083 3.75 9.625 C3.20472656 8.55958984 3.20472656 8.55958984 2.6484375 7.47265625 C0 2.22556391 0 2.22556391 0 0 Z " fill="#8449DD" transform="translate(265,186)"/>
<path d="M0 0 C0.33 0 0.66 0 1 0 C0.49178412 4.74334825 -0.28618591 9.08651461 -1.5234375 13.703125 C-2.49848794 18.40254846 -2.69713202 23.21787398 -3 28 C-2.34 28 -1.68 28 -1 28 C-1.33 28.99 -1.66 29.98 -2 31 C-4.88437779 29.70700306 -6.87219421 28.34058637 -9 26 C-7.68 26 -6.36 26 -5 26 C-4.97421875 24.87722656 -4.9484375 23.75445312 -4.921875 22.59765625 C-4.63596086 14.19740515 -4.21706071 7.48188191 0 0 Z " fill="#7D63AC" transform="translate(263,123)"/>
<path d="M0 0 C0.33 1.98 0.66 3.96 1 6 C-1.39614575 5.85834107 -3.79182897 5.71181159 -6.1875 5.5625 C-6.86103516 5.52318359 -7.53457031 5.48386719 -8.22851562 5.44335938 C-11.89699102 5.21072435 -15.41694206 4.82792989 -19 4 C-12.79513053 -0.13657964 -7.22892855 -0.25715556 0 0 Z " fill="#966ED4" transform="translate(113,25)"/>
<path d="M0 0 C0.33 0 0.66 0 1 0 C1 2.31 1 4.62 1 7 C1.66 7 2.32 7 3 7 C3 5.02 3 3.04 3 1 C3.33 1 3.66 1 4 1 C4.31602565 7.53119676 4.14203104 14.09110581 1 20 C-1.109375 20.78125 -1.109375 20.78125 -3 21 C-2.690625 20.13375 -2.38125 19.2675 -2.0625 18.375 C-0.32696438 12.42986735 -0.32405969 6.14860618 0 0 Z " fill="#542E91" transform="translate(168,282)"/>
<path d="M0 0 C0.33 0 0.66 0 1 0 C1.0825 1.27875 1.165 2.5575 1.25 3.875 C1.48290756 6.05906126 1.48290756 6.05906126 2 8 C3.71502233 9.44123112 3.71502233 9.44123112 6 10 C6.73089844 10.515625 7.46179688 11.03125 8.21484375 11.5625 C11.74762294 13.3858699 13.89437145 13.12284762 17.8125 12.6875 C18.97394531 12.56761719 20.13539063 12.44773438 21.33203125 12.32421875 C22.21246094 12.21722656 23.09289062 12.11023438 24 12 C21.15428122 15.11673962 19.07162831 15.8949384 14.8125 16.3125 C9.12492769 15.84630555 4.76833161 14.04463343 1 9.6875 C-0.24613351 6.33851618 -0.20846145 3.54384464 0 0 Z " fill="#8748E4" transform="translate(164,237)"/>
<path d="M0 0 C0.66 0.66 1.32 1.32 2 2 C0.99839844 2.13277344 -0.00320312 2.26554688 -1.03515625 2.40234375 C-2.37760654 2.58071127 -3.72005433 2.7590977 -5.0625 2.9375 C-6.04766602 3.06801758 -6.04766602 3.06801758 -7.05273438 3.20117188 C-11.37231192 3.77569697 -15.68707577 4.37745827 -20 5 C-20 5.66 -20 6.32 -20 7 C-21.98 7.99 -21.98 7.99 -24 9 C-24 8.01 -24 7.02 -24 6 C-17.4217231 0.08809401 -8.54859339 -1.02722405 0 0 Z " fill="#8B48E7" transform="translate(240,201)"/>
<path d="M0 0 C4.24455719 0.04055309 7.83876947 0.81518162 11.875 2.1875 C12.865 2.5175 13.855 2.8475 14.875 3.1875 C14.875 4.8375 14.875 6.4875 14.875 8.1875 C14.545 7.1975 14.215 6.2075 13.875 5.1875 C8.11418159 3.8892874 2.78760345 2.93043028 -3.125 3.1875 C-3.785 5.4975 -4.445 7.8075 -5.125 10.1875 C-5.455 10.1875 -5.785 10.1875 -6.125 10.1875 C-5.98450482 8.70781676 -5.83745174 7.22875484 -5.6875 5.75 C-5.60628906 4.92628906 -5.52507812 4.10257812 -5.44140625 3.25390625 C-4.88271412 -0.39483616 -3.35013503 0.02839097 0 0 Z " fill="#7251AA" transform="translate(308.125,97.8125)"/>
<path d="M0 0 C1.32 0 2.64 0 4 0 C4 3.3 4 6.6 4 10 C2.35 10.33 0.7 10.66 -1 11 C-3.125 5.375 -3.125 5.375 -2 2 C-1.34 1.34 -0.68 0.68 0 0 Z " fill="#805FB5" transform="translate(276,61)"/>
<path d="M0 0 C6.93 0.495 6.93 0.495 14 1 C14 3.42829336 13.91868747 5.8081333 13.78125 8.23046875 C13.73613281 9.03291016 13.69101563 9.83535156 13.64453125 10.66210938 C13.57298828 11.91217773 13.57298828 11.91217773 13.5 13.1875 C13.45230469 14.03248047 13.40460938 14.87746094 13.35546875 15.74804688 C13.23772712 17.83207364 13.11896189 19.91604253 13 22 C12.67 22 12.34 22 12 22 C12 15.73 12 9.46 12 3 C7.38 3 2.76 3 -2 3 C-1.34 2.67 -0.68 2.34 0 2 C0 1.34 0 0.68 0 0 Z " fill="#D4C4EE" transform="translate(201,69)"/>
<path d="M0 0 C0.66 0 1.32 0 2 0 C0.72451525 4.03469667 -0.7612968 7.80826546 -2.6015625 11.6171875 C-3.09140625 12.63554688 -3.58125 13.65390625 -4.0859375 14.703125 C-4.59382813 15.74984375 -5.10171875 16.7965625 -5.625 17.875 C-6.3984375 19.47988281 -6.3984375 19.47988281 -7.1875 21.1171875 C-8.45513521 23.74635682 -9.7260566 26.37388302 -11 29 C-12.20681069 25.05432816 -11.61287128 22.81995829 -10 19 C-9.34 18.67 -8.68 18.34 -8 18 C-7.00658903 15.92906601 -7.00658903 15.92906601 -6.125 13.4375 C-4.34520401 8.78728114 -2.29120317 4.41874897 0 0 Z " fill="#6A45A8" transform="translate(64,38)"/>
<path d="M0 0 C2.72069771 0.62187376 4.9519179 1.40080754 7.5625 2.5 C12.5795895 4.44424073 17.66770401 4.71574157 23 5 C23 5.66 23 6.32 23 7 C7.79204055 7.49501496 7.79204055 7.49501496 2.0625 2.375 C1.381875 1.59125 0.70125 0.8075 0 0 Z " fill="#8B48EB" transform="translate(159,204)"/>
<path d="M0 0 C0.33 0.66 0.66 1.32 1 2 C1.66 2 2.32 2 3 2 C3.99 4.97 4.98 7.94 6 11 C6.66 11 7.32 11 8 11 C9.37562854 12.28965176 10.70766393 13.62689293 12 15 C12.66 15.66 13.32 16.32 14 17 C11 18 11 18 8.51953125 16.8671875 C5.77305728 14.83181609 4.41312133 13.05900216 2.6875 10.125 C2.17574219 9.28195313 1.66398438 8.43890625 1.13671875 7.5703125 C-0.08304304 4.81222571 -0.2296149 2.97965377 0 0 Z " fill="#8344DA" transform="translate(208,233)"/>
<path d="M0 0 C0.66 0 1.32 0 2 0 C3.05711427 3.19957435 2.95184778 4.96645088 1.78515625 8.109375 C1.51123047 8.86347656 1.23730469 9.61757812 0.95507812 10.39453125 C0.51325195 11.56048828 0.51325195 11.56048828 0.0625 12.75 C-0.22818359 13.54277344 -0.51886719 14.33554688 -0.81835938 15.15234375 C-1.53594814 17.10512629 -2.26670906 19.05305941 -3 21 C-3.66 21 -4.32 21 -5 21 C-4.52398732 15.47825287 -3.53758006 11.96942761 -1 7 C-0.2863276 3.26228166 -0.2863276 3.26228166 0 0 Z " fill="#7F42D6" transform="translate(323,151)"/>
<path d="M0 0 C5.875 0.875 5.875 0.875 7 2 C6.82741843 6.48712078 6.43095011 8.50598402 3.4375 11.9375 C2.633125 12.618125 1.82875 13.29875 1 14 C1 13.34 1 12.68 1 12 C0.34 12 -0.32 12 -1 12 C-1 11.34 -1 10.68 -1 10 C-0.34 9.566875 0.32 9.13375 1 8.6875 C3.25773961 7.1505141 3.25773961 7.1505141 3.4375 4.4375 C3.293125 3.633125 3.14875 2.82875 3 2 C2.01 1.34 1.02 0.68 0 0 Z " fill="#8449D9" transform="translate(342,95)"/>
<path d="M0 0 C0.33 0.66 0.66 1.32 1 2 C-0.10859375 2.04898438 -1.2171875 2.09796875 -2.359375 2.1484375 C-3.82294065 2.22349215 -5.28648112 2.29903881 -6.75 2.375 C-7.84441406 2.42140625 -7.84441406 2.42140625 -8.9609375 2.46875 C-12.85380799 2.68108839 -15.57359352 3.22505971 -19 5 C-21.25 4.625 -21.25 4.625 -23 4 C-15.58521483 -0.84230868 -8.5168236 -0.39922611 0 0 Z " fill="#8747E3" transform="translate(185,157)"/>
<path d="M0 0 C-0.33 0.66 -0.66 1.32 -1 2 C-3.29296875 2.30859375 -3.29296875 2.30859375 -6.1875 2.4375 C-10.84980957 2.75758084 -13.86194023 3.77957768 -18 6 C-20.16015625 5.5859375 -20.16015625 5.5859375 -22 5 C-14.55361975 0.38719808 -8.70057407 -0.6727248 0 0 Z " fill="#8F44E9" transform="translate(152,263)"/>
<path d="M0 0 C0.33 1.32 0.66 2.64 1 4 C0.34 4 -0.32 4 -1 4 C-1.66 6.97 -2.32 9.94 -3 13 C-3.66 13 -4.32 13 -5 13 C-5 15.97 -5 18.94 -5 22 C-5.33 22 -5.66 22 -6 22 C-6.02701408 19.89590361 -6.04640223 17.79170822 -6.0625 15.6875 C-6.07410156 14.51574219 -6.08570313 13.34398437 -6.09765625 12.13671875 C-6 9 -6 9 -5 6 C-4.34 6 -3.68 6 -3 6 C-2.690625 5.195625 -2.38125 4.39125 -2.0625 3.5625 C-1 1 -1 1 0 0 Z " fill="#8941DC" transform="translate(213,210)"/>
<path d="M0 0 C0.33 0 0.66 0 1 0 C1.36615094 2.03955149 1.71739279 4.08178248 2.0625 6.125 C2.25972656 7.26195312 2.45695312 8.39890625 2.66015625 9.5703125 C2.99756134 12.9753892 2.72330588 15.67178131 2 19 C1.31379969 17.67661368 0.65213539 16.34050052 0 15 C-0.37125 14.2575 -0.7425 13.515 -1.125 12.75 C-2.33061773 8.96091571 -2.26075121 5.9764559 -2 2 C-1.34 1.34 -0.68 0.68 0 0 Z " fill="#743DBF" transform="translate(36,42)"/>
<path d="M0 0 C1.31283358 3.93850075 0.74838957 6.44996467 -1.04296875 10.16015625 C-1.51669922 11.07087891 -1.51669922 11.07087891 -2 12 C-3.4800841 11.88637738 -4.95910074 11.75877092 -6.4375 11.625 C-7.26121094 11.55539063 -8.08492188 11.48578125 -8.93359375 11.4140625 C-9.61550781 11.27742187 -10.29742187 11.14078125 -11 11 C-11.33 10.34 -11.66 9.68 -12 9 C-9.03 9 -6.06 9 -3 9 C-2.87625 8.071875 -2.7525 7.14375 -2.625 6.1875 C-2 3 -2 3 0 0 Z " fill="#8948DC" transform="translate(307,200)"/>
<path d="M0 0 C0.66 0.33 1.32 0.66 2 1 C3.55033393 5.80603519 3.0872355 11.00819059 3 16 C2.01 16.33 1.02 16.66 0 17 C-1.22329074 13.33012779 -0.88021006 10.66032178 -0.5625 6.8125 C-0.46066406 5.54019531 -0.35882813 4.26789063 -0.25390625 2.95703125 C-0.17011719 1.98121094 -0.08632813 1.00539062 0 0 Z " fill="#522B8A" transform="translate(257,221)"/>
<path d="M0 0 C0.33 0 0.66 0 1 0 C1.33 4.29 1.66 8.58 2 13 C2.66 13 3.32 13 4 13 C5.91847864 15.87771795 7.50079488 18.88626628 9 22 C8.34 22.33 7.68 22.66 7 23 C3.398614 19.89535689 1.1019825 16.6283265 0 12 C-0.23613132 7.98576755 -0.17803442 4.0156652 0 0 Z " fill="#8941DF" transform="translate(150,180)"/>
<path d="M0 0 C0.66 0.66 1.32 1.32 2 2 C0 3 0 3 -2.75 2.8125 C-6.86866926 3.05011553 -8.80291653 4.47207354 -12 7 C-12.33 7.66 -12.66 8.32 -13 9 C-13.66 9 -14.32 9 -15 9 C-15.33 9.66 -15.66 10.32 -16 11 C-15.42274324 7.10351684 -13.68124732 4.8302055 -11 2 C-7.3166622 -0.03552878 -4.17680952 -0.37127196 0 0 Z " fill="#8949E9" transform="translate(181,225)"/>
<path d="M0 0 C0.98484375 0.00902344 1.9696875 0.01804688 2.984375 0.02734375 C4.10585937 0.04474609 4.10585937 0.04474609 5.25 0.0625 C-1.54456706 5.18304329 -1.54456706 5.18304329 -6.5 4.6875 C-7.5725 4.48125 -8.645 4.275 -9.75 4.0625 C-9.75 3.0725 -9.75 2.0825 -9.75 1.0625 C-6.43929162 0.06140485 -3.44915231 -0.04106134 0 0 Z " fill="#7B3FCF" transform="translate(113.75,55.9375)"/>
<path d="M0 0 C0.66 0.33 1.32 0.66 2 1 C0.75264433 1.6509259 -0.49801832 2.29551669 -1.75 2.9375 C-2.44609375 3.29714844 -3.1421875 3.65679687 -3.859375 4.02734375 C-8.29485585 6.0427356 -12.14015613 6.09345854 -17 6 C-17 5.34 -17 4.68 -17 4 C-16.02417969 3.79503906 -15.04835937 3.59007812 -14.04296875 3.37890625 C-12.77066406 3.10949219 -11.49835938 2.84007812 -10.1875 2.5625 C-8.92292969 2.29566406 -7.65835938 2.02882813 -6.35546875 1.75390625 C-3.02954587 1.06572114 -3.02954587 1.06572114 0 0 Z " fill="#8B46E2" transform="translate(77,318)"/>
<path d="M0 0 C1.21699956 2.87654441 1.00071999 3.99796709 -0.0625 7 C-2.27589379 10.42719038 -4.49637496 11.97568331 -8 14 C-9.32 13.34 -10.64 12.68 -12 12 C-11.46890625 11.72027344 -10.9378125 11.44054687 -10.390625 11.15234375 C-5.0589253 8.12650688 -2.6102597 5.54680186 0 0 Z " fill="#6834AB" transform="translate(255,238)"/>
<path d="M0 0 C0.99 0 1.98 0 3 0 C5.54759899 11.50968829 5.54759899 11.50968829 5 16 C3.48046875 17.66015625 3.48046875 17.66015625 2 19 C2.04125 17.72125 2.0825 16.4425 2.125 15.125 C2.14157783 9.91127144 1.18311358 5.05992328 0 0 Z " fill="#7E40D3" transform="translate(208,18)"/>
<path d="M0 0 C4.62 1.65 9.24 3.3 14 5 C14 5.99 14 6.98 14 8 C9.27934033 6.45730076 4.58335908 4.92205381 0 3 C0 2.01 0 1.02 0 0 Z " fill="#8D44E0" transform="translate(134,332)"/>
<path d="M0 0 C0.66796875 1.7734375 0.66796875 1.7734375 1 4 C-0.07421875 5.8515625 -0.07421875 5.8515625 -1.6875 7.625 C-2.20699219 8.21539062 -2.72648437 8.80578125 -3.26171875 9.4140625 C-5.0703504 11.06418486 -6.76855046 12.01796774 -9 13 C-8.1875 10.5625 -8.1875 10.5625 -7 8 C-6.01 7.67 -5.02 7.34 -4 7 C-2.89163577 5.11683841 -2.89163577 5.11683841 -2 3 C-1.34 2.01 -0.68 1.02 0 0 Z " fill="#743DC2" transform="translate(90,304)"/>
<path d="M0 0 C0.33 0 0.66 0 1 0 C1.33 1.65 1.66 3.3 2 5 C2.33 5 2.66 5 3 5 C2.67 11.27 2.34 17.54 2 24 C1.67 24 1.34 24 1 24 C0.20318916 15.97497656 -0.12867289 8.06350113 0 0 Z " fill="#361E58" transform="translate(227,78)"/>
<path d="M0 0 C0.66 0.99 1.32 1.98 2 3 C1.3203125 5.48046875 1.3203125 5.48046875 0.125 8.1875 C-0.45894531 9.53908203 -0.45894531 9.53908203 -1.0546875 10.91796875 C-1.36664063 11.60503906 -1.67859375 12.29210937 -2 13 C-2.99 13 -3.98 13 -5 13 C-5 12.01 -5 11.02 -5 10 C-4.34 10 -3.68 10 -3 10 C-2.87625 8.906875 -2.7525 7.81375 -2.625 6.6875 C-2 3 -2 3 0 0 Z " fill="#7D43D2" transform="translate(312,186)"/>
<path d="M0 0 C1.32 0 2.64 0 4 0 C3 3 3 3 1 4 C0.09656316 5.88263881 0.09656316 5.88263881 -0.625 8.0625 C-0.88539062 8.79597656 -1.14578125 9.52945313 -1.4140625 10.28515625 C-1.60742188 10.85105469 -1.80078125 11.41695312 -2 12 C-2.66 12 -3.32 12 -4 12 C-3.45660208 7.43545749 -2.20536179 4.0271824 0 0 Z " fill="#7840D9" transform="translate(100,211)"/>
<path d="M0 0 C0 0.66 0 1.32 0 2 C-5.22512279 3.46670113 -9.5814234 4.22577402 -15 4 C-15 3.34 -15 2.68 -15 2 C-13.06302033 1.66365624 -11.12539514 1.33102835 -9.1875 1 C-7.56908203 0.7215625 -7.56908203 0.7215625 -5.91796875 0.4375 C-3 0 -3 0 0 0 Z " fill="#8B4FE6" transform="translate(59,37)"/>
<path d="M0 0 C0.33 1.32 0.66 2.64 1 4 C-0.43359375 6.140625 -0.43359375 6.140625 -2.4375 8.25 C-3.09621094 8.95640625 -3.75492187 9.6628125 -4.43359375 10.390625 C-4.95050781 10.92171875 -5.46742188 11.4528125 -6 12 C-6.99 11.67 -7.98 11.34 -9 11 C-6.03 7.37 -3.06 3.74 0 0 Z " fill="#8845E0" transform="translate(263,299)"/>
<path d="M0 0 C0.33 0 0.66 0 1 0 C0.125 6.75 0.125 6.75 -1 9 C-3.31 8.34 -5.62 7.68 -8 7 C-8.33 5.35 -8.66 3.7 -9 2 C-8.34 2 -7.68 2 -7 2 C-6.34 3.65 -5.68 5.3 -5 7 C-4.01 7 -3.02 7 -2 7 C-1.34 4.69 -0.68 2.38 0 0 Z " fill="#927CB6" transform="translate(295,190)"/>
<path d="M0 0 C-3.43772727 3.43772727 -7.10960984 3.97127774 -11.875 4.125 C-12.90625 4.08375 -13.9375 4.0425 -15 4 C-14.34 3.67 -13.68 3.34 -13 3 C-13 2.34 -13 1.68 -13 1 C-8.61414671 0.29826347 -4.44209357 -0.10834375 0 0 Z " fill="#974EEA" transform="translate(133,20)"/>
<path d="M0 0 C1.6254308 0.14095064 3.25034051 0.28792087 4.875 0.4375 C5.77992188 0.51871094 6.68484375 0.59992188 7.6171875 0.68359375 C10 1 10 1 12 2 C12 4.64 12 7.28 12 10 C11.34 10 10.68 10 10 10 C10.33 8.02 10.66 6.04 11 4 C7.37 3.01 3.74 2.02 0 1 C0 0.67 0 0.34 0 0 Z " fill="#6F4DAA" transform="translate(278,92)"/>
<path d="M0 0 C1.21940034 4.87760136 0.3649428 5.92704618 -1.9375 10.25 C-2.50339844 11.32765625 -3.06929688 12.4053125 -3.65234375 13.515625 C-4.09707031 14.33546875 -4.54179688 15.1553125 -5 16 C-5.66 15.67 -6.32 15.34 -7 15 C-3.535 7.575 -3.535 7.575 0 0 Z " fill="#784EB6" transform="translate(130,35)"/>
<path d="M0 0 C0.99 0 1.98 0 3 0 C4.05404945 3.98196457 3.84098656 6.98195309 3 11 C2.34 11 1.68 11 1 11 C0.67 7.37 0.34 3.74 0 0 Z " fill="#562A9A" transform="translate(233,281)"/>
<path d="M0 0 C2.95817972 2.44371368 3.58824483 4.21185245 4 8 C4.07064019 11.00220826 4.05886846 13.99770843 4 17 C3.67 17 3.34 17 3 17 C2.86722656 16.28972656 2.73445313 15.57945312 2.59765625 14.84765625 C2.42105469 13.92855469 2.24445313 13.00945312 2.0625 12.0625 C1.88847656 11.14597656 1.71445312 10.22945312 1.53515625 9.28515625 C1.22285012 7.04710156 1.22285012 7.04710156 0 6 C-0.04080783 4.00041636 -0.04254356 1.99954746 0 0 Z " fill="#8244D7" transform="translate(257,215)"/>
<path d="M0 0 C2.475 0.495 2.475 0.495 5 1 C6.8125 4.5625 6.8125 4.5625 8 8 C7.34 8.66 6.68 9.32 6 10 C4.02 6.7 2.04 3.4 0 0 Z " fill="#5E3798" transform="translate(274,171)"/>
<path d="M0 0 C0.33 0.99 0.66 1.98 1 3 C-0.28716647 4.00578589 -1.57988658 5.00446798 -2.875 6 C-3.95394531 6.8353125 -3.95394531 6.8353125 -5.0546875 7.6875 C-7 9 -7 9 -9 9 C-7.48328036 4.44984107 -3.83108947 2.49942736 0 0 Z " fill="#853FD4" transform="translate(119,153)"/>
<path d="M0 0 C-1.91315119 2.57619276 -2.9016314 2.98395232 -6.13671875 3.51171875 C-7.30847656 3.56972656 -8.48023437 3.62773438 -9.6875 3.6875 C-10.86699219 3.75324219 -12.04648438 3.81898437 -13.26171875 3.88671875 C-14.61716797 3.94279297 -14.61716797 3.94279297 -16 4 C-11.17353323 0.78235549 -5.80178176 -0.36261136 0 0 Z " fill="#934AED" transform="translate(128,55)"/>
<path d="M0 0 C-2.85478326 1.90318884 -4.41941308 2.4619099 -7.6875 3.125 C-8.49574219 3.29257812 -9.30398437 3.46015625 -10.13671875 3.6328125 C-10.75160156 3.75398438 -11.36648437 3.87515625 -12 4 C-12 3.34 -12 2.68 -12 2 C-12.66 1.67 -13.32 1.34 -14 1 C-12.23103898 0.63659714 -10.45973374 0.28459117 -8.6875 -0.0625 C-7.70136719 -0.25972656 -6.71523437 -0.45695312 -5.69921875 -0.66015625 C-3 -1 -3 -1 0 0 Z " fill="#8749E4" transform="translate(188,42)"/>
<path d="M0 0 C-3.2645028 3.2645028 -7.41047299 3.93236055 -11.9375 4.125 C-12.618125 4.08375 -13.29875 4.0425 -14 4 C-13.01 3.67 -12.02 3.34 -11 3 C-11 2.34 -11 1.68 -11 1 C-3.375 -1.125 -3.375 -1.125 0 0 Z " fill="#944BEA" transform="translate(162,13)"/>
<path d="M0 0 C0.33 0 0.66 0 1 0 C1 2.97 1 5.94 1 9 C1.66 9 2.32 9 3 9 C2.67 9.99 2.34 10.98 2 12 C-0.88437779 10.70700306 -2.87219421 9.34058637 -5 7 C-3.68 7 -2.36 7 -1 7 C-0.67 4.69 -0.34 2.38 0 0 Z " fill="#B09FCF" transform="translate(259,142)"/>
<path d="M0 0 C1.8871875 0.0309375 1.8871875 0.0309375 3.8125 0.0625 C3.8125 0.7225 3.8125 1.3825 3.8125 2.0625 C1.40704362 3.26522819 -0.13746953 3.16321472 -2.8125 3.125 C-4.03839844 3.11146484 -4.03839844 3.11146484 -5.2890625 3.09765625 C-6.22878906 3.08025391 -6.22878906 3.08025391 -7.1875 3.0625 C-7.1875 2.4025 -7.1875 1.7425 -7.1875 1.0625 C-4.43671116 0.14557039 -2.82801087 -0.04636083 0 0 Z " fill="#B091E3" transform="translate(197.1875,68.9375)"/>
<path d="M0 0 C0.66 0 1.32 0 2 0 C2.33 0.99 2.66 1.98 3 3 C3.66 3 4.32 3 5 3 C4.67 6.96 4.34 10.92 4 15 C3.67 15 3.34 15 3 15 C2 10 1 5 0 0 Z " fill="#432371" transform="translate(39,65)"/>
<path d="M0 0 C0.89203125 0.00902344 1.7840625 0.01804687 2.703125 0.02734375 C3.37859375 0.03894531 4.0540625 0.05054687 4.75 0.0625 C0.23332093 3.07361938 -2.9139991 3.16317926 -8.25 3.0625 C-8.58 2.4025 -8.91 1.7425 -9.25 1.0625 C-6.09493858 0.12630187 -3.28413498 -0.0432123 0 0 Z " fill="#8A49E0" transform="translate(142.25,16.9375)"/>
<path d="M0 0 C1.38609004 3.15020465 0.89180331 4.31918022 -0.25 7.6875 C-2 11 -2 11 -5 12 C-3.68938409 7.76570244 -2.05643741 3.92592596 0 0 Z " fill="#7D44DD" transform="translate(274,279)"/>
<path d="M0 0 C3.74525799 3.74525799 3.68909949 7.98270909 4 13 C1.26734423 10.67273822 0.45596502 8.87066551 -0.25 5.375 C-0.42015625 4.57835937 -0.5903125 3.78171875 -0.765625 2.9609375 C-0.84296875 2.31382812 -0.9203125 1.66671875 -1 1 C-0.67 0.67 -0.34 0.34 0 0 Z " fill="#7B42D0" transform="translate(278,211)"/>
<path d="M0 0 C0.33 0 0.66 0 1 0 C2.0257259 4.41062136 2.03684712 6.92630576 0 11 C-0.99 10.67 -1.98 10.34 -3 10 C-2.01 6.7 -1.02 3.4 0 0 Z " fill="#552E8F" transform="translate(79,199)"/>
<path d="M0 0 C0.66 0 1.32 0 2 0 C1.64950425 3.24208567 1.43778819 4.61527704 -1.0625 6.8125 C-1.701875 7.204375 -2.34125 7.59625 -3 8 C-3.33 7.01 -3.66 6.02 -4 5 C-2.1875 2.3125 -2.1875 2.3125 0 0 Z " fill="#7B42CF" transform="translate(97,172)"/>
<path d="M0 0 C0.33 0 0.66 0 1 0 C1.06058594 0.84304687 1.12117187 1.68609375 1.18359375 2.5546875 C1.26738281 3.65039062 1.35117188 4.74609375 1.4375 5.875 C1.51871094 6.96554688 1.59992188 8.05609375 1.68359375 9.1796875 C1.83001703 11.94728971 1.83001703 11.94728971 3 14 C2.34 14 1.68 14 1 14 C0.67 15.32 0.34 16.64 0 18 C-0.66 17.67 -1.32 17.34 -2 17 C-1.76990234 16.21882813 -1.76990234 16.21882813 -1.53515625 15.421875 C-0.86017489 12.36721485 -0.65588882 9.36984029 -0.4375 6.25 C-0.35371094 5.07953125 -0.26992187 3.9090625 -0.18359375 2.703125 C-0.12300781 1.81109375 -0.06242188 0.9190625 0 0 Z " fill="#2F1750" transform="translate(145,222)"/>
<path d="M0 0 C0.33 0 0.66 0 1 0 C1.12375 1.051875 1.2475 2.10375 1.375 3.1875 C1.82992066 6.8852232 1.82992066 6.8852232 3.125 9.6875 C4.11341176 12.29973109 3.95398577 13.42423842 3 16 C-0.39366878 10.62669111 -0.32712342 6.13053511 0 0 Z " fill="#8D45E4" transform="translate(95,224)"/>
<path d="M0 0 C2.84550012 0.66010476 5.52325999 1.51724966 8.25 2.5625 C8.95640625 2.83191406 9.6628125 3.10132813 10.390625 3.37890625 C10.92171875 3.58386719 11.4528125 3.78882813 12 4 C11.01 4.66 10.02 5.32 9 6 C4.98923553 4.97159885 2.73611164 3.04012404 0 0 Z " fill="#8244DB" transform="translate(159,204)"/>
<path d="M0 0 C5.03985731 0.44469329 7.37634988 2.71343362 11 6 C10.01 6.495 10.01 6.495 9 7 C2.5 3.75 2.5 3.75 0 0 Z " fill="#8E4CED" transform="translate(243,203)"/>
<path d="M0 0 C0.33 0 0.66 0 1 0 C0.8125 3.3125 0.8125 3.3125 0 7 C-2.4375 9 -2.4375 9 -5 10 C-5.66 9.67 -6.32 9.34 -7 9 C-6.57847656 8.51789063 -6.15695313 8.03578125 -5.72265625 7.5390625 C-5.17480469 6.90742188 -4.62695312 6.27578125 -4.0625 5.625 C-3.51722656 4.99851563 -2.97195312 4.37203125 -2.41015625 3.7265625 C-0.93041376 2.04367666 -0.93041376 2.04367666 0 0 Z " fill="#5C2D9A" transform="translate(199,195)"/>
<path d="M0 0 C0 0.66 0 1.32 0 2 C-6.435 2.495 -6.435 2.495 -13 3 C-9.25711729 -0.74288271 -5.09766283 -0.09803198 0 0 Z " fill="#964BF5" transform="translate(166,119)"/>
<path d="M0 0 C1.09570312 0.00902344 2.19140625 0.01804687 3.3203125 0.02734375 C4.16335937 0.03894531 5.00640625 0.05054687 5.875 0.0625 C5.875 0.3925 5.875 0.7225 5.875 1.0625 C3.565 1.0625 1.255 1.0625 -1.125 1.0625 C-1.125 1.7225 -1.125 2.3825 -1.125 3.0625 C-3.105 3.0625 -5.085 3.0625 -7.125 3.0625 C-7.455 2.4025 -7.785 1.7425 -8.125 1.0625 C-5.36047967 -0.31976016 -3.0788637 -0.03275387 0 0 Z " fill="#8454D4" transform="translate(177.125,68.9375)"/>
<path d="M0 0 C-1 2 -1 2 -3.125 3.1875 C-6.71324334 4.20156877 -9.37513066 3.71075869 -13 3 C-8.54370064 0.02913376 -5.32064558 -0.12092376 0 0 Z " fill="#6E39BB" transform="translate(167,42)"/>
<path d="M0 0 C0.99 0 1.98 0 3 0 C3 0.66 3 1.32 3 2 C2.3503125 2.61875 2.3503125 2.61875 1.6875 3.25 C-0.53321447 5.55296316 -1.65526461 8.11842417 -3 11 C-3.66 11 -4.32 11 -5 11 C-3.78310457 6.97488434 -2.50546238 3.40742883 0 0 Z " fill="#764AB8" transform="translate(185,13)"/>
<path d="M0 0 C-2.95769397 1.97179598 -4.16417962 2.36929854 -7.5625 2.75 C-8.34753906 2.84796875 -9.13257813 2.9459375 -9.94140625 3.046875 C-12 3 -12 3 -14 1 C-9.32798795 -0.20568053 -4.78503708 -0.09382426 0 0 Z " fill="#DDD8E8" transform="translate(198,10)"/>
<path d="M0 0 C0.33 0.66 0.66 1.32 1 2 C0.06553465 4.03144641 -0.93224776 6.03533587 -2 8 C-2.99 7.67 -3.98 7.34 -5 7 C-4.1875 4.0625 -4.1875 4.0625 -3 1 C-2.01 0.67 -1.02 0.34 0 0 Z " fill="#6131A2" transform="translate(170,295)"/>
<path d="M0 0 C0.33 0 0.66 0 1 0 C1.3690205 9.41002278 1.3690205 9.41002278 -1 14 C-1.33 14 -1.66 14 -2 14 C-2 11.36 -2 8.72 -2 6 C-1.34 6 -0.68 6 0 6 C0 4.02 0 2.04 0 0 Z " fill="#8244DC" transform="translate(236,286)"/>
<path d="M0 0 C0.66 0.33 1.32 0.66 2 1 C1.34 2.65 0.68 4.3 0 6 C-0.66 6 -1.32 6 -2 6 C-2 6.66 -2 7.32 -2 8 C-3.32 8 -4.64 8 -6 8 C-6 6 -6 6 -3.5625 3.4375 C-2.716875 2.633125 -1.87125 1.82875 -1 1 C-0.67 0.67 -0.34 0.34 0 0 Z " fill="#6735AC" transform="translate(142,241)"/>
<path d="M0 0 C0 0.99 0 1.98 0 3 C-3.3 3.33 -6.6 3.66 -10 4 C-10 3.34 -10 2.68 -10 2 C-8.7090864 1.66376204 -7.41723903 1.33110751 -6.125 1 C-5.40570313 0.814375 -4.68640625 0.62875 -3.9453125 0.4375 C-2 0 -2 0 0 0 Z " fill="#9443EA" transform="translate(157,138)"/>
<path d="M0 0 C0.66 0 1.32 0 2 0 C1.67 2.97 1.34 5.94 1 9 C0.01 9.33 -0.98 9.66 -2 10 C-1.34 6.7 -0.68 3.4 0 0 Z " fill="#8147D8" transform="translate(338,107)"/>
<path d="M0 0 C-0.99 0 -1.98 0 -3 0 C-3 0.66 -3 1.32 -3 2 C-6.3 1.67 -9.6 1.34 -13 1 C-13 0.67 -13 0.34 -13 0 C-11.58800422 -0.39222105 -10.17007236 -0.76311059 -8.75 -1.125 C-7.96109375 -1.33382812 -7.1721875 -1.54265625 -6.359375 -1.7578125 C-3.5796929 -2.04314411 -2.34112451 -1.44977894 0 0 Z " fill="#8745DE" transform="translate(79,68)"/>
<path d="M0 0 C0.33 0 0.66 0 1 0 C1 1.65 1 3.3 1 5 C1.99 5.33 2.98 5.66 4 6 C4.33 6.99 4.66 7.98 5 9 C4.01 9.99 3.02 10.98 2 12 C0.40861915 7.82262526 -0.21278058 4.46839215 0 0 Z " fill="#43217A" transform="translate(73,260)"/>
<path d="M0 0 C0.99 0.99 1.98 1.98 3 3 C3.33 3 3.66 3 4 3 C4.33 5.31 4.66 7.62 5 10 C3.68 9.67 2.36 9.34 1 9 C0.67 6.03 0.34 3.06 0 0 Z " fill="#512991" transform="translate(71,250)"/>
<path d="M0 0 C1.98 0 3.96 0 6 0 C6 0.66 6 1.32 6 2 C2.71480525 3.09506492 0.26336585 3.09960608 -3.1875 3.0625 C-4.81751953 3.04896484 -4.81751953 3.04896484 -6.48046875 3.03515625 C-7.31191406 3.02355469 -8.14335937 3.01195312 -9 3 C-9 2.67 -9 2.34 -9 2 C-6.03 2 -3.06 2 0 2 C0 1.34 0 0.68 0 0 Z " fill="#8745E1" transform="translate(151,312)"/>
<path d="M0 0 C0.99 0 1.98 0 3 0 C4.25664978 2.90600261 5 4.79604584 5 8 C4.01 7.67 3.02 7.34 2 7 C0.8125 3.4375 0.8125 3.4375 0 0 Z " fill="#5B2F94" transform="translate(81,285)"/>
<path d="M0 0 C0.66 0 1.32 0 2 0 C2 0.66 2 1.32 2 2 C2.61875 2.061875 3.2375 2.12375 3.875 2.1875 C6 3 6 3 7.25 5.5625 C7.4975 6.366875 7.745 7.17125 8 8 C3.96615872 5.92856799 2.07143201 4.03384128 0 0 Z " fill="#5B3096" transform="translate(44,159)"/>
<path d="M0 0 C5.875 0.875 5.875 0.875 7 2 C7.04063832 3.66617115 7.042721 5.33388095 7 7 C6.01 7 5.02 7 4 7 C3.896875 6.21625 3.79375 5.4325 3.6875 4.625 C3.22404978 1.66954819 3.22404978 1.66954819 0 0 Z " fill="#9350D9" transform="translate(342,95)"/>
<path d="M0 0 C-2.61973266 2.61973266 -4.35166422 2.70813314 -8 3 C-10.375 2.0625 -10.375 2.0625 -12 1 C-3.96428571 -1.27678571 -3.96428571 -1.27678571 0 0 Z " fill="#9944F1" transform="translate(110,60)"/>
<path d="M0 0 C1.32 0.33 2.64 0.66 4 1 C5.2380014 4.57644848 4.74926071 7.33694766 4 11 C2.03698408 7.49461443 1.04097612 3.86648272 0 0 Z " fill="#49277C" transform="translate(34,50)"/>
<path d="M0 0 C2 2 2 2 2.1953125 4.1640625 C2.16050781 5.38222656 2.16050781 5.38222656 2.125 6.625 C2.10695312 7.44226563 2.08890625 8.25953125 2.0703125 9.1015625 C2.04710937 9.72804688 2.02390625 10.35453125 2 11 C1.34 11 0.68 11 0 11 C-1.125 3.375 -1.125 3.375 0 0 Z " fill="#8648E0" transform="translate(169,278)"/>
<path d="M0 0 C1.15866723 4.63466892 0.70010994 7.33260039 0 12 C-0.99 12.33 -1.98 12.66 -3 13 C-2.01 8.71 -1.02 4.42 0 0 Z " fill="#6A37AF" transform="translate(297,120)"/>
<path d="M0 0 C0.99 0.33 1.98 0.66 3 1 C2.67 2.98 2.34 4.96 2 7 C1.34 7 0.68 7 0 7 C-0.33 7.66 -0.66 8.32 -1 9 C-0.67 6.03 -0.34 3.06 0 0 Z " fill="#8E43E2" transform="translate(280,257)"/>
<path d="M0 0 C0.33 0.66 0.66 1.32 1 2 C3.01669827 3.13350534 3.01669827 3.13350534 5 4 C4.67 5.98 4.34 7.96 4 10 C0 4 0 4 0 0 Z " fill="#472675" transform="translate(288,197)"/>
<path d="M0 0 C0.66 0 1.32 0 2 0 C4 3 4 3 4 6 C2.68 5.67 1.36 5.34 0 5 C-0.5625 3.0625 -0.5625 3.0625 -1 1 C-0.67 0.67 -0.34 0.34 0 0 Z " fill="#6630AD" transform="translate(318,71)"/>
<path d="M0 0 C-0.99 0.33 -1.98 0.66 -3 1 C-3 1.66 -3 2.32 -3 3 C-5.97 3 -8.94 3 -12 3 C-7.86112344 0.24074896 -4.92824278 -0.13689563 0 0 Z " fill="#924DF1" transform="translate(88,64)"/>
<path d="M0 0 C0.33 0 0.66 0 1 0 C1 1.98 1 3.96 1 6 C0.34 6 -0.32 6 -1 6 C-1.33 6.99 -1.66 7.98 -2 9 C-2.6875 6.75 -2.6875 6.75 -3 4 C-1.625 1.6875 -1.625 1.6875 0 0 Z " fill="#6D5597" transform="translate(284,176)"/>
<path d="M0 0 C0.33 0 0.66 0 1 0 C1.33 3.3 1.66 6.6 2 10 C0.02 10.99 0.02 10.99 -2 12 C-1.34 8.04 -0.68 4.08 0 0 Z " fill="#604683" transform="translate(231,67)"/>
<path d="M0 0 C0.33 0.66 0.66 1.32 1 2 C0.67 2.99 0.34 3.98 0 5 C-2.97 4.505 -2.97 4.505 -6 4 C-5.67 3.01 -5.34 2.02 -5 1 C-3.35 0.67 -1.7 0.34 0 0 Z " fill="#7150A7" transform="translate(266,66)"/>
<path d="M0 0 C4.44870215 -0.39253254 7.14243493 0.84694043 11 3 C11 3.33 11 3.66 11 4 C6.44262737 3.56179109 3.42346555 3.14958831 0 0 Z " fill="#894AE9" transform="translate(108,250)"/>
<path d="M0 0 C0.99 0.33 1.98 0.66 3 1 C2.67 1.99 2.34 2.98 2 4 C-0.31 4.33 -2.62 4.66 -5 5 C-3.35 3.35 -1.7 1.7 0 0 Z " fill="#5E31AD" transform="translate(188,245)"/>
<path d="M0 0 C2.9375 0.8125 2.9375 0.8125 6 2 C6.33 2.99 6.66 3.98 7 5 C4.69 4.34 2.38 3.68 0 3 C0 2.01 0 1.02 0 0 Z " fill="#8048D8" transform="translate(134,332)"/>
<path d="M0 0 C0.33 1.32 0.66 2.64 1 4 C-1.64 4.66 -4.28 5.32 -7 6 C-7 5.34 -7 4.68 -7 4 C-4.69 2.68 -2.38 1.36 0 0 Z " fill="#7836BA" transform="translate(81,314)"/>
<path d="M0 0 C0.625 1.8125 0.625 1.8125 1 4 C0.01 5.485 0.01 5.485 -1 7 C-1.99 7 -2.98 7 -4 7 C-2.79618552 4.50638429 -1.54571278 2.31856917 0 0 Z " fill="#5B2A99" transform="translate(90,304)"/>
<path d="M0 0 C-2.5654594 2.5654594 -4.47686668 2.54046087 -8 3 C-7.67 2.01 -7.34 1.02 -7 0 C-3.86650268 -1.04449911 -3.01031744 -0.93423645 0 0 Z " fill="#7F42D7" transform="translate(190,208)"/>
<path d="M0 0 C-3.4352048 2.29013653 -4.985331 2.17842973 -9 2 C-9 1.34 -9 0.68 -9 0 C-5.93109813 -1.53445094 -3.29905734 -0.54984289 0 0 Z " fill="#B07BEC" transform="translate(73,35)"/>
</svg>
