<svg version="1.1" id="Layer_1" xmlns="http://www.w3.org/2000/svg" xmlns:xlink="http://www.w3.org/1999/xlink" x="0px" y="0px"
	 width="100%" viewBox="0 0 350 350" enable-background="new 0 0 350 350" xml:space="preserve">
<path fill="#000000" opacity="1.000000" stroke="none" 
	d="
M351.000000,103.000000 
	C351.000000,185.640747 351.000000,268.281494 351.000000,350.961121 
	C234.395859,350.961121 117.791687,350.961121 1.093760,350.961121 
	C1.093760,234.432495 1.093760,117.864883 1.093760,1.148637 
	C117.666534,1.148637 234.333237,1.148637 351.000000,1.148637 
	C351.000000,33.082771 351.000000,65.072731 350.731781,97.843063 
	C348.673798,97.718414 346.884064,96.813385 345.061371,95.924347 
	C345.028442,95.940346 345.075500,95.996361 345.006897,95.623795 
	C348.850891,90.549316 349.679779,85.017021 348.890381,79.221947 
	C348.182037,74.021851 345.208221,69.776756 340.320099,68.387848 
	C336.808258,67.389992 336.069153,65.890060 335.923401,62.832424 
	C335.702057,58.188473 330.112915,52.074558 325.546661,50.962322 
	C321.366974,49.944248 316.366516,50.230568 314.849823,44.328278 
	C310.359161,36.002583 298.050049,33.437214 290.839935,38.395039 
	C289.436829,39.359848 287.035736,39.173882 285.125854,39.048443 
	C277.411987,38.541813 270.032349,38.491009 264.817200,45.832645 
	C263.898010,47.126625 261.122437,48.017395 259.458527,47.711369 
	C251.456848,46.239731 245.659378,49.419910 242.880219,56.767540 
	C241.889648,59.386471 239.950287,63.357727 238.063568,63.587475 
	C233.448822,64.149414 233.540115,67.162697 233.007523,70.053238 
	C232.650833,71.989105 232.837967,74.025154 232.568695,76.009689 
	C232.069351,76.145172 231.926666,76.376076 231.537155,76.810966 
	C230.420456,78.779419 229.055756,80.641586 229.081680,82.484192 
	C229.178772,89.386398 229.730469,96.282219 230.065399,103.635757 
	C229.989151,109.855507 230.431213,115.670418 229.821091,121.372749 
	C228.853668,130.414581 231.447510,136.744736 240.993896,139.379196 
	C241.541931,139.731461 241.960114,139.777649 242.450317,139.848938 
	C242.522354,139.874054 242.674774,139.867264 242.853302,140.194794 
	C247.680298,143.987045 252.328766,147.451767 257.305725,151.003616 
	C258.135132,151.439301 258.636047,151.787842 259.202179,152.468628 
	C262.485229,156.567001 265.703094,160.333130 269.040222,164.421036 
	C271.147186,166.995789 273.231873,169.171570 275.100403,171.519379 
	C278.106415,175.296387 280.969696,179.186996 283.944519,183.428436 
	C286.058624,189.149979 288.121521,194.472687 290.169067,200.169739 
	C291.096832,202.772675 292.217957,204.945129 292.942841,207.242584 
	C294.132599,211.013519 302.649719,214.256012 305.859161,211.936829 
	C306.166504,211.714752 305.885590,210.678665 306.036072,209.687302 
	C308.021027,205.468597 310.199768,201.705475 311.602173,197.672394 
	C314.659912,188.879135 317.322449,179.948456 320.450806,170.889923 
	C321.142914,169.140457 321.530670,167.575012 321.985321,165.714294 
	C322.057098,165.015488 322.062012,164.611923 322.427551,164.107651 
	C324.510956,159.414322 326.457062,154.890488 327.898743,150.211243 
	C329.606659,144.667831 330.705261,138.937241 332.398193,133.388504 
	C333.681519,129.182266 335.482025,125.133812 337.361572,120.820679 
	C338.795380,116.774727 339.919983,112.923256 341.362793,109.045151 
	C342.105896,109.042114 342.530823,109.065720 343.123657,109.383301 
	C344.857239,108.301933 346.417328,106.920227 347.990448,105.553543 
	C348.983582,104.690765 349.996155,103.850418 351.000000,103.000000 
M66.410439,36.976040 
	C65.926361,37.252419 65.442276,37.528801 64.071419,37.931339 
	C56.393448,39.256748 48.634922,40.240131 41.064701,42.023048 
	C35.661060,43.295700 33.828873,48.088821 36.118259,53.017223 
	C36.922215,54.747913 37.952541,56.373447 38.934582,58.868885 
	C39.285244,60.600433 39.524067,62.363941 40.008015,64.057396 
	C41.338551,68.713249 42.771885,73.339714 43.992111,78.743767 
	C44.303280,80.171692 44.614452,81.599609 44.978970,83.960007 
	C44.981834,107.783150 44.947742,131.606491 45.071304,155.429016 
	C45.079483,157.005615 46.288387,158.575974 47.169632,160.769226 
	C48.745361,162.520248 50.321091,164.271255 52.206299,166.722763 
	C54.294441,167.481354 56.365345,168.833496 58.473747,168.894745 
	C67.115074,169.145767 75.769859,169.099396 84.414497,168.916641 
	C85.959770,168.883987 87.480431,167.687393 89.637764,166.766434 
	C90.342415,166.063202 91.125259,165.422058 91.740166,164.647568 
	C103.935204,149.287628 119.217064,138.194946 137.141739,130.208145 
	C153.725494,122.818840 170.879379,120.124886 189.283524,121.796730 
	C196.079773,123.189407 202.855255,124.699234 209.683807,125.909721 
	C211.999420,126.320213 214.449051,125.974777 216.743576,125.974777 
	C216.743576,116.911781 216.743576,108.480171 216.915176,99.119293 
	C216.867676,91.765152 216.820175,84.411003 216.907608,76.200920 
	C216.772308,74.167297 218.066208,71.034248 213.059921,72.015083 
	C211.785797,72.009308 210.511658,72.003540 208.789825,71.256325 
	C204.205475,70.894875 199.621109,70.533417 194.495911,70.031960 
	C194.319321,70.091064 194.142715,70.150162 193.312698,70.111816 
	C192.875793,70.151894 192.438873,70.191971 191.127853,70.046898 
	C188.740677,70.083305 186.353485,70.119720 183.059357,70.010773 
	C178.635635,70.341194 174.212341,70.950401 169.788116,70.957291 
	C138.539230,71.005936 107.290146,70.930885 76.033363,70.101723 
	C77.370934,69.351685 78.708511,68.601646 80.500816,67.966461 
	C80.500816,67.966461 80.963707,67.890999 81.645744,68.041702 
	C82.105400,67.987617 82.565063,67.933525 83.853386,67.976326 
	C93.909256,65.641144 103.955681,63.264305 114.023155,60.980259 
	C130.293961,57.288834 146.572128,53.629292 162.859680,50.012550 
	C173.623657,47.622353 184.445663,45.482460 195.169968,42.929276 
	C200.351562,41.695671 205.511810,40.110249 210.414612,38.048843 
	C214.505081,36.328976 215.041550,31.726749 212.037064,28.245274 
	C211.990433,27.826395 211.943787,27.407516 212.012451,26.115406 
	C211.028809,21.402885 210.045166,16.690363 209.006622,11.286426 
	C208.754593,10.226845 208.502548,9.167265 207.993744,7.352525 
	C206.044235,3.885804 202.784332,4.045530 199.657318,4.691471 
	C193.473923,5.968760 187.364517,7.599414 181.204025,8.993388 
	C166.669983,12.282102 152.105591,15.438753 137.589828,18.805462 
	C129.369522,20.712034 121.220917,22.927753 113.040176,25.004829 
	C105.290901,26.972359 97.541809,28.940657 89.017578,31.025723 
	C84.362373,32.044075 79.662849,32.899384 75.070122,34.147614 
	C72.672028,34.799370 70.461845,36.142483 67.600792,36.995300 
	C67.406609,37.032188 67.212425,37.069077 66.410439,36.976040 
M265.080597,184.945007 
	C265.080597,184.945007 265.164764,184.923737 265.246216,184.301819 
	C262.209595,177.999390 258.349976,172.398468 252.064682,168.938141 
	C252.064682,168.938141 252.147751,168.916763 251.979553,168.229904 
	C245.258011,162.985886 239.031631,156.859741 231.682220,152.734253 
	C223.568024,148.179459 214.516052,145.201630 205.689545,142.049301 
	C201.333847,140.493668 196.566345,140.091064 191.059402,139.024200 
	C182.668167,139.014969 174.275909,138.939362 165.886810,139.068481 
	C164.636002,139.087723 163.400009,140.069550 162.322174,140.971069 
	C162.322174,140.971069 162.691177,140.815170 162.770340,139.860626 
	C157.749664,140.466599 152.574768,140.510056 147.750534,141.832596 
	C142.660095,143.228104 137.692322,145.459747 133.052902,148.018616 
	C126.468277,151.650330 120.232979,155.915390 113.933990,159.914078 
	C113.933990,159.914078 113.910614,159.831650 113.238274,159.961197 
	C111.754982,161.288284 110.271698,162.615372 108.358910,164.048676 
	C108.081100,164.218811 107.942719,164.466766 107.327431,164.969543 
	C106.529915,165.591568 105.732407,166.213608 104.313553,167.130035 
	C95.269989,175.978043 88.157005,186.122803 82.637970,197.558578 
	C77.621300,207.953430 74.297935,218.772720 72.011330,230.959976 
	C72.317902,237.689224 72.624474,244.418457 72.969627,251.993973 
	C73.843468,261.695740 76.224442,271.025269 79.993690,280.782745 
	C82.644348,286.144623 85.543983,291.401978 87.855186,296.906403 
	C89.314705,300.382416 93.620667,303.251923 90.926979,307.918701 
	C90.926979,307.918701 90.902275,307.833801 90.214157,307.994537 
	C89.415031,309.294617 88.615906,310.594696 87.909348,311.910492 
	C87.909348,311.910492 87.891609,311.818298 87.211174,311.987823 
	C81.402115,315.199646 75.746826,318.749725 69.722710,321.488525 
	C66.437943,322.981934 62.527828,323.099823 58.078026,323.905090 
	C56.710011,323.989502 55.341999,324.073883 53.327457,324.061920 
	C52.894993,324.101898 52.462532,324.141846 51.349995,324.021271 
	C50.890404,324.074890 50.430817,324.128479 49.159161,324.076111 
	C48.443611,325.320099 47.237183,326.516327 47.110664,327.817596 
	C46.810642,330.903320 47.023880,334.038849 47.027668,337.154266 
	C47.037491,345.235535 47.037064,345.235535 55.922798,344.967682 
	C67.501266,345.664520 78.649399,343.871979 88.245827,337.144562 
	C94.587128,332.699097 100.348915,327.326477 105.882973,321.874451 
	C108.467995,319.327698 110.273582,317.898773 113.305275,320.702423 
	C114.579079,321.880463 115.830017,323.164703 117.309753,324.024963 
	C125.120354,328.565918 132.742645,333.554108 140.933731,337.280365 
	C148.220627,340.595276 156.036346,344.027649 163.843521,344.668365 
	C183.741394,346.301361 203.630081,345.118042 222.314514,336.893433 
	C226.852585,334.895874 230.866364,331.707245 235.039658,329.045013 
	C235.039658,329.045013 235.063324,329.125916 235.771072,328.991974 
	C241.862076,324.358612 247.953079,319.725220 254.645935,314.787781 
	C267.827301,302.056488 276.071960,286.485107 281.655762,268.673279 
	C281.769775,267.444427 281.883789,266.215576 282.453064,264.849792 
	C282.793976,264.663574 282.890167,264.390961 282.929016,263.253235 
	C283.249542,252.978439 283.839722,242.701874 283.771667,232.429657 
	C283.739838,227.619507 282.437378,222.817780 281.828522,217.271072 
	C280.506226,213.615463 279.661926,209.683899 277.748657,206.369431 
	C274.932495,201.490829 274.872711,194.906662 268.989960,191.391266 
	C268.989960,191.391266 268.829010,190.959045 268.845123,190.450363 
	C268.572601,190.261307 268.300079,190.072250 267.846710,189.338593 
	C267.509705,188.883011 267.172699,188.427429 266.944824,187.325424 
	C266.324463,186.503021 265.704102,185.680634 265.080597,184.945007 
z"/>
<path fill="#8B51E1" opacity="1.000000" stroke="none" 
	d="
M345.094299,95.908356 
	C346.884064,96.813385 348.673798,97.718414 350.731781,98.311722 
	C351.000000,99.388893 351.000000,100.777779 351.000000,102.583344 
	C349.996155,103.850418 348.983582,104.690765 347.990448,105.553543 
	C346.417328,106.920227 344.857239,108.301933 343.188293,109.032242 
	C346.303406,104.637970 348.333221,100.697350 345.094299,95.908356 
z"/>
<path fill="#783CC6" opacity="1.000000" stroke="none" 
	d="
M266.835663,187.971848 
	C267.172699,188.427429 267.509705,188.883011 268.018188,189.826782 
	C268.327637,190.604248 268.540741,190.818939 268.829010,190.959045 
	C268.829010,190.959045 268.989960,191.391266 269.005463,192.006683 
	C272.667206,201.082047 276.313416,209.541962 279.967041,218.429688 
	C282.375824,235.622269 283.221771,252.357208 278.862793,269.324097 
	C273.953033,282.248627 268.906342,294.683472 259.975800,305.085724 
	C257.523773,307.941833 255.291733,310.986786 252.618530,313.996826 
	C248.450577,317.206390 244.574142,320.307709 240.814667,323.544861 
	C238.793930,325.284851 236.973907,327.257996 235.063324,329.125916 
	C235.063324,329.125916 235.039658,329.045013 234.680374,329.031921 
	C229.817551,330.983551 225.354172,333.047180 220.803116,334.894867 
	C205.846115,340.967194 190.278625,343.433014 174.148666,343.056732 
	C158.671097,342.695618 144.424088,338.060028 131.188705,330.552094 
	C123.635406,326.267395 116.858665,320.613739 109.003166,315.061127 
	C95.911331,333.127655 78.444656,344.003204 54.602119,343.022766 
	C52.595085,343.012299 50.988209,343.012299 48.627968,343.012299 
	C49.084274,336.615601 49.527748,330.398865 49.971222,324.182098 
	C50.430817,324.128479 50.890404,324.074890 51.733994,324.373718 
	C52.430603,325.006836 52.743214,325.287506 53.055828,325.568176 
	C53.361881,325.098206 53.667938,324.628265 53.973991,324.158264 
	C55.341999,324.073883 56.710011,323.989502 58.766495,324.187195 
	C70.542152,326.447052 79.220894,321.730225 86.930717,314.474365 
	C87.542442,313.898651 87.584702,312.717896 87.891609,311.818298 
	C87.891609,311.818298 87.909348,311.910492 88.243240,311.912170 
	C89.352173,310.553864 90.127220,309.193817 90.902275,307.833801 
	C90.902275,307.833801 90.926979,307.918701 91.245064,307.920959 
	C92.499886,306.291046 94.649902,304.045990 94.183464,303.122711 
	C90.053085,294.946594 85.458801,287.004852 81.002823,278.590149 
	C78.692711,268.620758 76.381294,259.055176 73.898102,248.778717 
	C73.394470,250.012436 73.162758,250.580063 72.931038,251.147705 
	C72.624474,244.418457 72.317902,237.689224 72.351868,230.716919 
	C74.980850,233.046188 74.806152,230.757492 75.018272,229.287079 
	C76.879219,216.386734 80.917274,204.122269 87.659584,193.054352 
	C92.778778,184.650848 99.176735,177.026321 105.307121,168.889801 
	C106.386955,167.413773 107.165359,166.103149 107.943771,164.792526 
	C107.942719,164.466766 108.081100,164.218811 108.957199,164.018784 
	C111.007187,162.603149 112.458900,161.217392 113.910614,159.831650 
	C113.910614,159.831650 113.933990,159.914078 114.275665,159.945221 
	C116.131355,159.399078 117.827110,159.089325 119.131317,158.203247 
	C132.382477,149.200699 146.525101,142.490234 162.691177,140.815170 
	C162.691177,140.815170 162.322174,140.971069 162.773438,140.926727 
	C172.485886,140.917404 181.747101,140.952423 191.419876,140.993530 
	C212.804550,144.745209 231.879639,152.515533 247.784775,167.149704 
	C248.865845,168.144394 250.676437,168.346207 252.147751,168.916763 
	C252.147751,168.916763 252.064682,168.938141 252.064575,169.257874 
	C256.431213,174.692993 260.798004,179.808365 265.164764,184.923737 
	C265.164764,184.923737 265.080597,184.945007 265.054352,185.254089 
	C265.630615,186.366058 266.233154,187.168945 266.835663,187.971848 
M198.994919,168.261749 
	C197.653336,167.184555 196.311737,166.107361 194.925964,164.317688 
	C194.122589,163.311920 193.499527,162.047104 192.486771,161.342148 
	C185.526184,156.496933 169.665909,157.082764 162.585037,161.874741 
	C154.107071,167.612228 151.355652,176.257065 150.118668,185.558578 
	C149.317780,191.580811 154.635788,201.080292 159.066010,203.673630 
	C159.474030,204.378723 159.740326,205.236786 160.311401,205.765869 
	C168.389587,213.250641 178.013855,213.127899 187.789978,210.761826 
	C190.101669,210.202316 191.922729,207.615646 194.709091,205.993515 
	C195.349243,205.857025 196.170029,205.928970 196.603119,205.553589 
	C207.419693,196.177933 209.338654,181.552368 201.175598,169.924026 
	C200.792175,169.377838 199.727005,169.310211 198.994919,168.261749 
M169.012497,277.999237 
	C169.012497,277.999237 169.025528,277.979004 169.021362,277.251923 
	C168.778656,276.475769 168.732117,275.546539 168.263748,274.946503 
	C161.446213,266.211853 152.442215,262.523926 141.539001,264.146362 
	C132.986877,265.418976 125.419540,272.132996 123.351646,279.338989 
	C122.561798,282.936737 121.684563,286.517883 120.997200,290.135101 
	C117.980942,306.007812 139.100555,321.538239 155.943298,315.042755 
	C171.329987,309.108734 176.176529,290.749847 169.803970,278.555695 
	C169.612137,278.264221 169.347839,278.072815 169.012497,277.999237 
M234.949905,278.276611 
	C231.628830,270.721161 225.032288,267.042206 217.860748,264.270630 
	C216.523300,263.753754 214.564377,264.845032 212.132217,265.115021 
	C211.114197,265.121826 210.096176,265.128632 208.611938,264.532928 
	C207.654175,264.369812 206.655869,263.943726 205.744919,264.084167 
	C196.529587,265.504974 186.649002,275.819336 186.130844,285.318237 
	C185.798080,291.418121 184.505783,298.042725 190.036301,303.741364 
	C194.261459,314.858215 212.369736,319.396912 223.096039,313.983124 
	C236.809097,307.061829 242.371445,290.801270 234.949905,278.276611 
M189.589661,248.901398 
	C190.578018,247.886017 191.911621,247.037384 192.496277,245.827011 
	C195.359833,239.898758 193.592499,233.004807 188.367783,228.928391 
	C183.194550,224.892166 175.438614,224.984589 170.381897,229.142639 
	C165.080368,233.501999 163.236832,240.672363 166.031769,246.062241 
	C169.132477,252.041718 176.451859,255.540222 182.741592,253.451797 
	C185.051453,252.684814 186.865540,250.424667 188.959564,248.953812 
	C188.959564,248.953812 188.848221,248.907059 189.589661,248.901398 
M140.941391,211.052444 
	C140.941391,211.052444 140.871826,211.180725 140.908401,210.457809 
	C135.056931,202.490585 126.944771,201.829865 117.977180,202.881927 
	C104.838898,204.423294 94.162949,220.423492 95.208321,229.004120 
	C97.196518,245.323593 106.883423,255.062866 122.224396,255.819504 
	C143.242493,256.856110 156.481354,234.605804 146.323639,216.153625 
	C145.188309,214.091232 142.683884,212.782516 140.941391,211.052444 
M259.819214,222.842545 
	C259.314606,220.194214 259.491852,217.137741 258.191650,214.965668 
	C251.234772,203.343765 238.883865,199.196335 224.877701,203.602051 
	C216.115540,206.358246 207.136337,215.871658 207.865540,229.889343 
	C208.550613,243.058762 217.797577,253.907516 231.549805,255.900650 
	C243.260468,257.597900 257.308380,250.236176 260.230682,237.404160 
	C260.636383,235.622711 259.744843,233.545853 259.093811,230.919739 
	C259.110901,228.272232 259.127991,225.624725 259.819214,222.842545 
z"/>
<path fill="#773DC5" opacity="1.000000" stroke="none" 
	d="
M208.250504,8.107685 
	C208.502548,9.167265 208.754593,10.226845 208.684052,11.700930 
	C207.443359,17.571589 207.170929,22.874256 211.897141,26.988640 
	C211.943787,27.407516 211.990433,27.826395 212.059982,28.649097 
	C212.082901,29.052921 211.994476,29.211342 211.635178,29.217001 
	C210.185059,31.816311 209.094238,34.409958 207.658325,37.161522 
	C196.367828,39.777557 185.413788,42.198021 174.478714,44.701248 
	C147.564590,50.862331 120.640450,56.982189 93.771904,63.336697 
	C90.040123,64.219276 86.599907,66.334724 83.024719,67.879440 
	C82.565063,67.933525 82.105400,67.987617 81.229797,67.813141 
	C80.557938,67.673592 80.302010,67.762604 80.046082,67.851608 
	C78.708511,68.601646 77.370934,69.351685 75.765694,70.794968 
	C73.070946,71.783066 70.643867,72.077919 68.216789,72.372772 
	C68.235237,72.562859 68.253693,72.752945 68.272141,72.943031 
	C103.865067,72.943031 139.458008,72.943031 175.512115,72.952805 
	C181.019638,72.929642 186.065964,72.896690 191.572647,72.886551 
	C197.767838,72.605492 203.502686,72.301628 209.237534,71.997772 
	C210.511658,72.003540 211.785797,72.009308 213.360260,72.378525 
	C213.156235,73.586395 212.157379,74.474159 212.227005,75.268257 
	C212.713989,80.822990 213.421829,86.358360 214.031342,92.374161 
	C214.012741,101.886276 214.021759,110.924156 214.020645,120.356750 
	C214.144409,123.462654 213.189209,124.004204 210.418442,123.379539 
	C204.038498,121.941185 197.542603,121.017197 190.762665,119.623611 
	C181.836823,119.452179 173.111633,118.618431 164.672684,119.810692 
	C142.684692,122.917168 123.120255,132.125137 106.315491,146.578766 
	C99.605293,152.350143 94.024017,159.434067 87.557877,166.105148 
	C85.417290,166.516815 83.642197,166.974594 81.878975,166.932724 
	C71.883347,166.695374 61.890568,166.338486 51.896820,166.022278 
	C50.321091,164.271255 48.745361,162.520248 47.198574,160.104401 
	C47.151558,156.502533 47.012173,153.565536 47.009727,150.628448 
	C46.991146,128.318130 47.023354,106.007736 46.956211,83.697609 
	C46.950485,81.796883 46.338280,79.897972 46.006710,77.588638 
	C44.015240,70.785042 42.024879,64.391037 40.017693,57.600800 
	C39.746223,56.246517 39.530479,55.276100 39.230812,54.332336 
	C36.659328,46.233829 37.751690,44.533207 46.147812,42.931316 
	C52.153194,41.785561 58.112278,40.397125 64.067543,39.499001 
	C63.253513,42.153908 62.450665,44.422272 61.677494,46.700703 
	C60.494007,50.188278 59.330975,53.682793 58.132843,57.128071 
	C58.106430,57.081779 58.211006,57.061146 57.901978,57.244621 
	C57.419952,58.107933 57.246948,58.787773 57.123188,59.568073 
	C57.172428,59.668533 57.060028,59.862015 56.803307,60.074356 
	C56.385437,60.695625 56.224285,61.104557 56.132126,61.597939 
	C56.201118,61.682392 56.091682,61.871044 55.849304,62.037369 
	C55.425961,62.543510 55.244999,62.883327 55.050552,63.427177 
	C55.037060,63.631207 54.896820,64.015366 54.690224,64.166306 
	C54.344013,64.623940 54.204391,64.930649 54.054199,65.441475 
	C54.043625,65.645599 53.877987,66.019325 53.675789,66.221375 
	C54.037632,66.928947 54.601673,67.434464 55.462009,67.948929 
	C56.150291,67.917221 56.542271,67.876564 57.151810,68.111542 
	C62.690098,67.554543 68.022049,66.782738 73.316185,65.805962 
	C73.922050,65.694183 74.316383,64.435898 74.819611,63.764755 
	C74.830421,63.820305 74.725655,63.777470 75.095459,63.798901 
	C77.272224,60.623940 79.393860,57.560562 80.814087,54.200695 
	C83.073486,48.855602 84.865219,43.312824 86.867989,37.899479 
	C86.881226,37.945297 86.789948,37.917603 87.157837,37.796535 
	C95.386810,35.462448 103.092735,32.475025 112.183083,31.974039 
	C111.241219,34.162598 110.781448,35.372093 110.212753,36.527992 
	C107.736969,41.560112 105.036552,46.495178 102.859383,51.651962 
	C102.261200,53.068790 98.870171,55.618355 103.495468,56.874809 
	C103.659668,56.841183 103.970787,56.965965 104.235252,57.248634 
	C110.906097,56.391407 117.319359,55.287384 123.709152,54.061066 
	C124.417229,53.925179 125.313202,53.220501 125.577599,52.561260 
	C128.068436,46.350803 130.440887,40.092869 132.858734,33.894096 
	C132.869934,33.939552 132.779434,33.915508 133.074860,33.781029 
	C133.527985,33.047588 133.685684,32.448635 133.862839,31.905502 
	C133.882294,31.961325 133.785477,31.893469 134.128540,31.795082 
	C135.556656,29.232635 140.290848,27.510359 136.032562,23.636818 
	C136.004318,22.877275 135.987320,22.443335 136.237656,21.731792 
	C147.034012,19.020994 157.563034,16.587799 167.999435,14.479374 
	C166.167587,16.423744 163.802826,17.728689 162.801498,19.719440 
	C159.184357,26.910585 155.957092,34.303055 152.793015,41.709393 
	C152.449280,42.513985 153.471039,43.901928 154.142456,44.968735 
	C154.615402,44.943748 154.805344,44.969322 155.260529,45.272987 
	C161.147522,44.700165 166.779724,43.907894 172.375595,42.911453 
	C172.962387,42.806965 173.334564,41.497158 173.833374,40.806686 
	C173.860413,40.866802 173.745148,40.802807 174.114044,40.822823 
	C175.589203,39.310528 176.904449,37.886681 177.765701,36.227222 
	C181.580795,28.876385 185.265503,21.457884 189.381821,13.957729 
	C190.823395,13.849101 191.880539,13.846612 193.142334,14.111315 
	C195.231277,13.604908 197.115570,12.831308 199.170898,11.971269 
	C199.341934,11.884828 199.723846,11.917237 200.071838,11.897103 
	C200.191132,10.953860 200.207214,9.447048 199.683517,9.227457 
	C198.544022,8.749632 197.129288,8.928126 195.950729,8.492329 
	C200.122131,4.674251 204.187210,6.671389 208.250504,8.107685 
M193.670074,94.278114 
	C194.422897,94.071167 195.175720,93.864212 197.326691,93.272911 
	C151.978363,93.272911 108.071983,93.272911 64.165596,93.272911 
	C64.158936,93.515953 64.152267,93.758987 64.145599,94.002029 
	C65.942101,94.002029 67.738594,94.001961 69.535088,94.002037 
	C107.834007,94.003777 146.132950,93.996292 184.431824,94.036720 
	C186.201187,94.038582 187.970093,94.469978 188.856369,94.904144 
	C178.868164,94.920715 168.879974,94.954582 158.891769,94.950630 
	C128.426407,94.938576 97.960907,94.950554 67.495903,94.835197 
	C64.209114,94.822762 62.081501,95.309242 61.948257,99.186081 
	C61.809231,103.231079 62.966148,105.095917 67.548592,105.079933 
	C109.333893,104.934113 151.119949,105.006287 192.905792,104.993683 
	C194.171890,104.993301 195.437912,104.762810 196.805222,104.629753 
	C196.805222,101.318863 196.805222,98.365173 196.805222,95.299583 
	C195.504578,95.080353 194.377396,94.890350 193.670074,94.278114 
z"/>
<path fill="#773BC5" opacity="1.000000" stroke="none" 
	d="
M345.061371,95.924347 
	C348.333221,100.697350 346.303406,104.637970 343.020325,108.738258 
	C342.530823,109.065720 342.105896,109.042114 341.151367,108.805222 
	C339.069672,112.723358 337.517670,116.854790 335.651398,121.164017 
	C331.878723,131.644119 328.330231,141.917511 325.008240,152.263611 
	C323.757660,156.158447 323.031952,160.221817 322.066956,164.208359 
	C322.062012,164.611923 322.057098,165.015488 321.652496,165.766266 
	C320.884033,167.766983 320.515259,169.420456 320.146484,171.073929 
	C317.322449,179.948456 314.659912,188.879135 311.602173,197.672394 
	C310.199768,201.705475 308.021027,205.468597 305.598145,209.678406 
	C301.708588,209.402069 297.431366,211.817841 295.527313,206.959213 
	C294.628418,204.665588 293.819702,202.336624 293.281494,199.863953 
	C294.280457,199.002747 295.335480,198.417801 295.600494,197.582306 
	C299.461975,185.407257 303.217804,173.198715 307.268860,160.754318 
	C309.031403,154.682648 310.523956,148.854828 312.291199,142.800476 
	C315.700836,132.704956 318.835754,122.835960 322.120239,112.647690 
	C321.778961,109.526237 327.418762,107.145988 322.883484,104.069321 
	C322.928192,104.076279 322.889343,104.158028 322.875275,103.783020 
	C319.456879,100.349190 308.867889,97.538803 306.351837,99.608902 
	C302.210541,103.016121 301.291992,107.865479 302.024719,113.023682 
	C302.012878,112.993958 302.065918,113.029762 301.689087,113.095520 
	C300.332184,116.563278 299.265289,119.943001 298.386536,123.370972 
	C293.540100,142.277008 288.739563,161.194839 283.670593,179.876953 
	C279.611145,174.434143 275.804443,169.223007 272.141663,163.677521 
	C275.718109,152.809082 279.344604,142.333130 282.524292,131.723282 
	C285.272217,122.553925 287.512299,113.232384 290.143585,103.614029 
	C290.813110,99.845314 293.089386,95.832489 287.775635,94.200058 
	C284.630615,93.233879 281.353210,92.666084 278.108551,92.063248 
	C270.612244,90.670494 268.217377,92.974579 268.680359,101.065132 
	C267.573761,104.921768 266.724518,108.473892 265.504120,112.126434 
	C264.757874,113.575615 264.308594,114.908684 264.019348,116.275620 
	C261.709961,127.188133 259.430908,138.107056 256.826721,148.881104 
	C252.062363,145.717850 247.613861,142.697510 243.306442,139.482422 
	C243.447540,139.287659 243.846252,139.018631 244.194489,138.848389 
	C245.027939,137.681076 245.753738,136.730621 245.957458,135.679001 
	C246.928711,130.665466 247.700760,125.613571 248.650421,120.595520 
	C250.367462,111.522362 252.246094,102.479050 253.888931,93.392838 
	C254.842941,88.116463 253.376724,86.714005 248.354019,88.129311 
	C243.375610,88.198860 238.847366,88.198860 234.871582,88.198860 
	C233.839828,91.786285 233.061966,94.490929 231.948639,96.910301 
	C231.717987,89.981926 231.822784,83.338814 231.927582,76.695702 
	C231.926666,76.376076 232.069351,76.145172 232.869812,76.061584 
	C233.580460,76.173553 233.776932,76.226944 234.100159,76.636841 
	C240.145935,77.999092 246.064957,79.004837 252.416107,79.953949 
	C256.229309,80.278419 259.610413,80.659538 263.248474,81.313324 
	C272.341339,83.054565 281.177155,84.523117 290.278931,86.262726 
	C297.701477,88.021034 304.858124,89.508301 312.338379,90.948570 
	C313.096924,90.929123 313.531830,90.956673 314.214417,91.259125 
	C324.252380,93.178886 334.042664,94.823738 344.134094,96.325523 
	C344.648651,96.120422 344.862091,96.058395 345.075500,95.996361 
	C345.075500,95.996361 345.028442,95.940346 345.061371,95.924347 
z"/>
<path fill="#F6F6F7" opacity="1.000000" stroke="none" 
	d="
M313.966766,90.984222 
	C313.531830,90.956673 313.096924,90.929123 312.127686,90.660950 
	C304.392548,88.631889 297.191711,86.843460 289.640076,84.893166 
	C280.523315,83.501083 271.757416,82.270866 262.991486,81.040649 
	C259.610413,80.659538 256.229309,80.278419 252.199539,79.659378 
	C246.364136,78.229065 241.177429,77.036690 235.934357,75.461845 
	C234.808014,71.644218 233.516068,67.485069 238.180847,66.361122 
	C242.463730,65.329178 243.619003,62.697014 244.817703,59.311104 
	C247.658539,51.286896 251.990295,49.036373 260.133026,50.403091 
	C261.929016,50.704540 264.693085,49.774689 265.877014,48.420258 
	C271.770782,41.677757 276.885590,39.992504 285.239044,42.059967 
	C287.145721,42.531860 289.761810,41.872211 291.535065,40.843430 
	C298.629761,36.727352 303.476227,37.122589 309.567108,42.439667 
	C310.927917,43.627590 313.023743,43.973495 314.781189,44.707058 
	C316.366516,50.230568 321.366974,49.944248 325.546661,50.962322 
	C330.112915,52.074558 335.702057,58.188473 335.923401,62.832424 
	C336.069153,65.890060 336.808258,67.389992 340.320099,68.387848 
	C345.208221,69.776756 348.182037,74.021851 348.890381,79.221947 
	C349.679779,85.017021 348.850891,90.549316 345.006897,95.623795 
	C344.862091,96.058395 344.648651,96.120422 343.759766,96.166229 
	C341.785736,95.893799 340.491364,95.613747 339.187927,95.385284 
	C330.781952,93.911995 322.374054,92.449959 313.966766,90.984222 
M275.587433,61.262955 
	C274.614197,59.972351 273.640961,58.681751 273.337067,58.278759 
	C269.609375,59.704689 267.012939,60.697876 264.381409,61.704491 
	C263.037048,63.941685 261.547760,66.420097 259.980713,69.027924 
	C263.198914,71.765648 265.749634,72.372704 268.248688,68.439461 
	C270.713837,64.559616 272.222076,64.589943 274.367706,68.844238 
	C276.047668,72.175232 277.940094,72.168152 280.512146,70.646851 
	C280.512146,67.834122 280.512146,65.267754 280.512146,62.503674 
	C279.095551,62.241467 277.655121,61.974838 275.587433,61.262955 
M316.236908,73.225929 
	C317.071381,75.186508 317.905884,77.147079 318.934784,79.564484 
	C320.607819,79.185760 322.218201,78.821220 323.145416,78.611328 
	C322.794464,74.652893 322.513794,71.487610 322.277802,68.825989 
	C317.887146,67.429680 313.229095,65.948341 307.320465,64.069305 
	C312.562408,69.503471 305.653229,70.441345 304.722595,74.162354 
	C306.366608,75.159325 307.939331,76.113075 309.512085,77.066818 
	C309.447205,76.459297 309.382324,75.851776 309.317444,75.244255 
	C311.476501,74.366936 313.635590,73.489624 316.236908,73.225929 
z"/>
<path fill="#F4F4F6" opacity="1.000000" stroke="none" 
	d="
M290.184418,199.795395 
	C288.121521,194.472687 286.058624,189.149979 284.201508,183.376450 
	C284.582825,182.637146 284.758362,182.348648 285.175598,181.754242 
	C289.194000,166.376068 293.020905,151.316132 296.726532,136.226395 
	C298.618591,128.521744 300.293091,120.763687 302.065918,113.029762 
	C302.065918,113.029762 302.012878,112.993958 302.281677,112.763947 
	C306.401367,99.428543 306.402893,99.423004 319.616150,103.030403 
	C320.727051,103.333687 321.799194,103.778809 322.889343,104.158035 
	C322.889343,104.158028 322.928192,104.076279 322.898926,104.451057 
	C322.255768,107.249786 321.641876,109.673737 320.822083,112.388489 
	C317.723206,122.070190 314.830231,131.461075 311.728943,141.158020 
	C309.693298,147.974991 307.865875,154.485931 305.859009,161.322723 
	C305.071533,163.701904 304.550140,165.785706 303.840942,167.803497 
	C300.200256,178.161530 296.511261,188.502563 292.547852,198.855927 
	C291.565796,199.173325 290.875122,199.484360 290.184418,199.795395 
z"/>
<path fill="#F4F4F6" opacity="1.000000" stroke="none" 
	d="
M265.875305,112.026016 
	C266.724518,108.473892 267.573761,104.921768 268.955139,100.855881 
	C271.640167,92.850471 272.172852,92.491951 278.963074,93.964455 
	C290.050201,96.368752 290.050201,96.368752 288.790894,104.309235 
	C282.670319,124.391556 276.731934,144.158325 270.478821,163.915848 
	C269.749695,163.970825 269.335297,164.035034 268.920929,164.099258 
	C265.703094,160.333130 262.485229,156.567001 259.540955,152.214233 
	C260.527252,146.919571 261.232758,142.210419 261.954254,137.503723 
	C263.256226,129.010376 264.567749,120.518509 265.875305,112.026016 
z"/>
<path fill="#F4F3F6" opacity="1.000000" stroke="none" 
	d="
M232.284088,97.195564 
	C233.061966,94.490929 233.839828,91.786285 234.871582,88.198860 
	C238.847366,88.198860 243.375610,88.198860 248.689850,88.338196 
	C253.134262,89.256683 252.328568,91.756096 251.863007,94.310379 
	C249.148117,109.205360 246.510193,124.114365 243.846252,139.018631 
	C243.846252,139.018631 243.447540,139.287659 243.163071,139.464996 
	C242.878601,139.642349 242.674774,139.867264 242.674774,139.867264 
	C242.674774,139.867264 242.522354,139.874054 242.249298,139.626892 
	C241.605515,139.277542 241.234787,139.175339 240.864059,139.073120 
	C231.447510,136.744736 228.853668,130.414581 229.821091,121.372749 
	C230.431213,115.670418 229.989151,109.855507 230.357513,103.667877 
	C235.160431,102.261436 231.667984,99.189163 232.284088,97.195564 
z"/>
<path fill="#F2F0F6" opacity="1.000000" stroke="none" 
	d="
M56.091682,61.871044 
	C56.091682,61.871044 56.201118,61.682392 56.422058,61.401321 
	C56.782009,60.700840 56.921017,60.281429 57.060028,59.862015 
	C57.060028,59.862015 57.172428,59.668533 57.421249,59.364250 
	C57.850384,58.393692 58.030693,57.727421 58.211006,57.061146 
	C58.211006,57.061146 58.106430,57.081779 58.446999,56.972153 
	C61.913971,50.299465 65.040375,43.736401 68.166786,37.173336 
	C70.461845,36.142483 72.672028,34.799370 75.070122,34.147614 
	C79.662849,32.899384 84.362373,32.044075 89.795868,30.985317 
	C94.379501,30.961382 98.184830,30.977850 101.864685,31.346851 
	C98.084061,32.634830 94.353149,33.355473 90.808983,34.605556 
	C89.271210,35.147945 88.117889,36.780312 86.789948,37.917603 
	C86.789948,37.917603 86.881226,37.945297 86.590469,38.104843 
	C82.441696,46.768753 78.583672,55.273109 74.725647,63.777466 
	C74.725655,63.777470 74.830421,63.820305 74.405586,63.791428 
	C68.298584,65.120338 62.616417,66.478119 56.934254,67.835899 
	C56.542271,67.876564 56.150291,67.917221 55.329865,67.686966 
	C54.560276,66.950470 54.219131,66.484901 53.877987,66.019325 
	C53.877987,66.019325 54.043625,65.645599 54.299473,65.315369 
	C54.669151,64.661880 54.782986,64.338623 54.896820,64.015366 
	C54.896820,64.015366 55.037060,63.631207 55.341454,63.299500 
	C55.794456,62.602211 55.943069,62.236629 56.091682,61.871044 
z"/>
<path fill="#8A49E5" opacity="1.000000" stroke="none" 
	d="
M55.002281,343.033234 
	C78.444656,344.003204 95.911331,333.127655 109.003166,315.061127 
	C116.858665,320.613739 123.635406,326.267395 131.188705,330.552094 
	C144.424088,338.060028 158.671097,342.695618 174.148666,343.056732 
	C190.278625,343.433014 205.846115,340.967194 220.803116,334.894867 
	C225.354172,333.047180 229.817551,330.983551 234.721161,329.042572 
	C230.866364,331.707245 226.852585,334.895874 222.314514,336.893433 
	C203.630081,345.118042 183.741394,346.301361 163.843521,344.668365 
	C156.036346,344.027649 148.220627,340.595276 140.933731,337.280365 
	C132.742645,333.554108 125.120354,328.565918 117.309753,324.024963 
	C115.830017,323.164703 114.579079,321.880463 113.305275,320.702423 
	C110.273582,317.898773 108.467995,319.327698 105.882973,321.874451 
	C100.348915,327.326477 94.587128,332.699097 88.245827,337.144562 
	C78.649399,343.871979 67.501266,345.664520 55.462063,344.597107 
	C55.001644,343.828766 55.001961,343.431000 55.002281,343.033234 
z"/>
<path fill="#8C4BE8" opacity="1.000000" stroke="none" 
	d="
M83.439056,67.927887 
	C86.599907,66.334724 90.040123,64.219276 93.771904,63.336697 
	C120.640450,56.982189 147.564590,50.862331 174.478714,44.701248 
	C185.413788,42.198021 196.367828,39.777557 208.024002,37.113968 
	C212.735382,35.576862 211.968445,32.226192 211.994476,29.211342 
	C211.994476,29.211342 212.082901,29.052921 212.055206,28.966528 
	C215.041550,31.726749 214.505081,36.328976 210.414612,38.048843 
	C205.511810,40.110249 200.351562,41.695671 195.169968,42.929276 
	C184.445663,45.482460 173.623657,47.622353 162.859680,50.012550 
	C146.572128,53.629292 130.293961,57.288834 114.023155,60.980259 
	C103.955681,63.264305 93.909256,65.641144 83.439056,67.927887 
z"/>
<path fill="#8F56E7" opacity="1.000000" stroke="none" 
	d="
M101.990166,30.994316 
	C98.184830,30.977850 94.379501,30.961382 90.183403,30.926765 
	C97.541809,28.940657 105.290901,26.972359 113.040176,25.004829 
	C121.220917,22.927753 129.369522,20.712034 137.589828,18.805462 
	C152.105591,15.438753 166.669983,12.282102 181.204025,8.993388 
	C187.364517,7.599414 193.473923,5.968760 199.657318,4.691471 
	C202.784332,4.045530 206.044235,3.885804 208.122131,7.730105 
	C204.187210,6.671389 200.122131,4.674251 195.538177,8.514874 
	C191.002014,9.583837 187.002075,10.284213 182.702301,11.005657 
	C181.909210,11.329325 181.415955,11.631925 180.510406,11.941215 
	C176.096085,12.683471 172.094070,13.419036 168.092072,14.154602 
	C157.563034,16.587799 147.034012,19.020994 135.832153,21.736572 
	C129.207687,23.391315 123.245972,24.723228 117.320557,26.200714 
	C116.749199,26.343184 116.403152,27.389273 115.555511,28.094339 
	C112.841476,28.741438 110.524445,29.310087 107.820084,29.916275 
	C105.618568,30.300650 103.804367,30.647484 101.990166,30.994316 
z"/>
<path fill="#FDFDFD" opacity="1.000000" stroke="none" 
	d="
M314.849823,44.328278 
	C313.023743,43.973495 310.927917,43.627590 309.567108,42.439667 
	C303.476227,37.122589 298.629761,36.727352 291.535065,40.843430 
	C289.761810,41.872211 287.145721,42.531860 285.239044,42.059967 
	C276.885590,39.992504 271.770782,41.677757 265.877014,48.420258 
	C264.693085,49.774689 261.929016,50.704540 260.133026,50.403091 
	C251.990295,49.036373 247.658539,51.286896 244.817703,59.311104 
	C243.619003,62.697014 242.463730,65.329178 238.180847,66.361122 
	C233.516068,67.485069 234.808014,71.644218 235.594391,75.526199 
	C234.864975,76.075462 234.419189,76.177902 233.973389,76.280342 
	C233.776932,76.226944 233.580460,76.173553 233.082886,76.068268 
	C232.837967,74.025154 232.650833,71.989105 233.007523,70.053238 
	C233.540115,67.162697 233.448822,64.149414 238.063568,63.587475 
	C239.950287,63.357727 241.889648,59.386471 242.880219,56.767540 
	C245.659378,49.419910 251.456848,46.239731 259.458527,47.711369 
	C261.122437,48.017395 263.898010,47.126625 264.817200,45.832645 
	C270.032349,38.491009 277.411987,38.541813 285.125854,39.048443 
	C287.035736,39.173882 289.436829,39.359848 290.839935,38.395039 
	C298.050049,33.437214 310.359161,36.002583 314.849823,44.328278 
z"/>
<path fill="#8A49E7" opacity="1.000000" stroke="none" 
	d="
M87.928848,165.920517 
	C94.024017,159.434067 99.605293,152.350143 106.315491,146.578766 
	C123.120255,132.125137 142.684692,122.917168 164.672684,119.810692 
	C173.111633,118.618431 181.836823,119.452179 190.556778,119.895004 
	C190.056839,120.643959 189.431717,120.860664 188.806580,121.077370 
	C170.879379,120.124886 153.725494,122.818840 137.141739,130.208145 
	C119.217064,138.194946 103.935204,149.287628 91.740166,164.647568 
	C91.125259,165.422058 90.342415,166.063202 89.198677,166.665100 
	C88.482674,166.349365 88.205765,166.134933 87.928848,165.920517 
z"/>
<path fill="#834BE1" opacity="1.000000" stroke="none" 
	d="
M175.050934,72.943031 
	C139.458008,72.943031 103.865067,72.943031 68.272141,72.943031 
	C68.253693,72.752945 68.235237,72.562859 68.216789,72.372772 
	C70.643867,72.077919 73.070946,71.783066 75.769577,71.191765 
	C107.290146,70.930885 138.539230,71.005936 169.788116,70.957291 
	C174.212341,70.950401 178.635635,70.341194 183.210587,70.331680 
	C180.591522,71.416077 177.821228,72.179558 175.050934,72.943031 
z"/>
<path fill="#8043D6" opacity="1.000000" stroke="none" 
	d="
M105.005692,169.055191 
	C99.176735,177.026321 92.778778,184.650848 87.659584,193.054352 
	C80.917274,204.122269 76.879219,216.386734 75.018272,229.287079 
	C74.806152,230.757492 74.980850,233.046188 72.456955,230.262192 
	C74.297935,218.772720 77.621300,207.953430 82.637970,197.558578 
	C88.157005,186.122803 95.269989,175.978043 104.641891,167.352188 
	C104.982048,168.067963 104.993874,168.561569 105.005692,169.055191 
z"/>
<path fill="#8043D6" opacity="1.000000" stroke="none" 
	d="
M46.007816,77.998222 
	C46.338280,79.897972 46.950485,81.796883 46.956211,83.697609 
	C47.023354,106.007736 46.991146,128.318130 47.009727,150.628448 
	C47.012173,153.565536 47.151558,156.502533 47.083153,159.794403 
	C46.288387,158.575974 45.079483,157.005615 45.071304,155.429016 
	C44.947742,131.606491 44.981834,107.783150 45.220737,83.285690 
	C45.309418,81.073639 45.156330,79.535919 45.254387,77.998657 
	C45.672958,77.998833 45.840385,77.998528 46.007816,77.998222 
z"/>
<path fill="#894AE3" opacity="1.000000" stroke="none" 
	d="
M252.063660,168.573334 
	C250.676437,168.346207 248.865845,168.144394 247.784775,167.149704 
	C231.879639,152.515533 212.804550,144.745209 191.517746,140.754272 
	C191.464432,140.061523 191.724808,139.614136 191.985184,139.166748 
	C196.566345,140.091064 201.333847,140.493668 205.689545,142.049301 
	C214.516052,145.201630 223.568024,148.179459 231.682220,152.734253 
	C239.031631,156.859741 245.258011,162.985886 252.063660,168.573334 
z"/>
<path fill="#8145D9" opacity="1.000000" stroke="none" 
	d="
M252.958755,313.945099 
	C255.291733,310.986786 257.523773,307.941833 259.975800,305.085724 
	C268.906342,294.683472 273.953033,282.248627 279.192017,269.323730 
	C280.109924,268.995972 280.549164,268.997498 280.988434,268.999023 
	C276.071960,286.485107 267.827301,302.056488 254.218155,314.702393 
	C253.513168,314.393005 253.235962,314.169067 252.958755,313.945099 
z"/>
<path fill="#8647E0" opacity="1.000000" stroke="none" 
	d="
M281.322083,268.836151 
	C280.549164,268.997498 280.109924,268.995972 279.341431,268.994751 
	C283.221771,252.357208 282.375824,235.622269 280.259399,218.430359 
	C280.933167,218.006226 281.321991,218.009232 281.710785,218.012238 
	C282.437378,222.817780 283.739838,227.619507 283.771667,232.429657 
	C283.839722,242.701874 283.249542,252.978439 282.664459,263.761169 
	C282.194305,264.468170 282.060272,264.707397 281.997803,264.986725 
	C281.883789,266.215576 281.769775,267.444427 281.322083,268.836151 
z"/>
<path fill="#8043D6" opacity="1.000000" stroke="none" 
	d="
M322.427551,164.107651 
	C323.031952,160.221817 323.757660,156.158447 325.008240,152.263611 
	C328.330231,141.917511 331.878723,131.644119 335.923279,121.171799 
	C336.690430,121.006241 336.871399,121.010696 337.052399,121.015152 
	C335.482025,125.133812 333.681519,129.182266 332.398193,133.388504 
	C330.705261,138.937241 329.606659,144.667831 327.898743,150.211243 
	C326.457062,154.890488 324.510956,159.414322 322.427551,164.107651 
z"/>
<path fill="#8A49E7" opacity="1.000000" stroke="none" 
	d="
M162.730759,140.337891 
	C146.525101,142.490234 132.382477,149.200699 119.131317,158.203247 
	C117.827110,159.089325 116.131355,159.399078 114.232880,159.943085 
	C120.232979,155.915390 126.468277,151.650330 133.052902,148.018616 
	C137.692322,145.459747 142.660095,143.228104 147.750534,141.832596 
	C152.574768,140.510056 157.749664,140.466599 162.730759,140.337891 
z"/>
<path fill="#894AE3" opacity="1.000000" stroke="none" 
	d="
M64.092018,39.116966 
	C58.112278,40.397125 52.153194,41.785561 46.147812,42.931316 
	C37.751690,44.533207 36.659328,46.233829 39.230812,54.332336 
	C39.530479,55.276100 39.746223,56.246517 39.728638,57.610703 
	C39.264103,58.026886 39.071804,58.036942 38.879505,58.046997 
	C37.952541,56.373447 36.922215,54.747913 36.118259,53.017223 
	C33.828873,48.088821 35.661060,43.295700 41.064701,42.023048 
	C48.634922,40.240131 56.393448,39.256748 64.525955,38.171745 
	C64.986931,38.614502 64.993370,38.816849 64.772446,39.039742 
	C64.545074,39.060287 64.092018,39.116966 64.092018,39.116966 
z"/>
<path fill="#8B51E1" opacity="1.000000" stroke="none" 
	d="
M189.045044,121.437050 
	C189.431717,120.860664 190.056839,120.643959 190.887863,120.155869 
	C197.542603,121.017197 204.038498,121.941185 210.418442,123.379539 
	C213.189209,124.004204 214.144409,123.462654 214.300537,120.103775 
	C215.057510,116.891548 215.688354,114.343781 215.952942,111.758530 
	C216.351044,107.868980 216.492828,103.953194 216.743561,100.048561 
	C216.743576,108.480171 216.743576,116.911781 216.743576,125.974777 
	C214.449051,125.974777 211.999420,126.320213 209.683807,125.909721 
	C202.855255,124.699234 196.079773,123.189407 189.045044,121.437050 
z"/>
<path fill="#9571CB" opacity="1.000000" stroke="none" 
	d="
M216.829376,99.583923 
	C216.492828,103.953194 216.351044,107.868980 215.952942,111.758530 
	C215.688354,114.343781 215.057510,116.891548 214.310699,119.709068 
	C214.021759,110.924156 214.012741,101.886276 214.324036,92.101288 
	C215.353790,86.588417 216.063232,81.822639 216.772675,77.056862 
	C216.820175,84.411003 216.867676,91.765152 216.829376,99.583923 
z"/>
<path fill="#6F4DA8" opacity="1.000000" stroke="none" 
	d="
M265.504150,112.126434 
	C264.567749,120.518509 263.256226,129.010376 261.954254,137.503723 
	C261.232758,142.210419 260.527252,146.919571 259.475769,151.882004 
	C258.636047,151.787842 258.135132,151.439301 257.347290,150.689423 
	C257.087738,149.866745 257.115143,149.445389 257.142548,149.024017 
	C259.430908,138.107056 261.709961,127.188133 264.019348,116.275620 
	C264.308594,114.908684 264.757874,113.575615 265.504150,112.126434 
z"/>
<path fill="#8647E0" opacity="1.000000" stroke="none" 
	d="
M87.551392,311.903076 
	C87.584702,312.717896 87.542442,313.898651 86.930717,314.474365 
	C79.220894,321.730225 70.542152,326.447052 59.177353,324.153687 
	C62.527828,323.099823 66.437943,322.981934 69.722710,321.488525 
	C75.746826,318.749725 81.402115,315.199646 87.551392,311.903076 
z"/>
<path fill="#964BFB" opacity="1.000000" stroke="none" 
	d="
M87.557877,166.105148 
	C88.205765,166.134933 88.482674,166.349365 88.886017,166.795990 
	C87.480431,167.687393 85.959770,168.883987 84.414497,168.916641 
	C75.769859,169.099396 67.115074,169.145767 58.473747,168.894745 
	C56.365345,168.833496 54.294441,167.481354 52.051559,166.372528 
	C61.890568,166.338486 71.883347,166.695374 81.878975,166.932724 
	C83.642197,166.974594 85.417290,166.516815 87.557877,166.105148 
z"/>
<path fill="#894AE3" opacity="1.000000" stroke="none" 
	d="
M81.001511,278.993896 
	C85.458801,287.004852 90.053085,294.946594 94.183464,303.122711 
	C94.649902,304.045990 92.499886,306.291046 91.200882,307.919250 
	C93.620667,303.251923 89.314705,300.382416 87.855186,296.906403 
	C85.543983,291.401978 82.644348,286.144623 80.182144,280.298889 
	C80.580902,279.541290 80.791206,279.267609 81.001511,278.993896 
z"/>
<path fill="#8145D9" opacity="1.000000" stroke="none" 
	d="
M281.769653,217.641663 
	C281.321991,218.009232 280.933167,218.006226 280.252014,218.002563 
	C276.313416,209.541962 272.667206,201.082047 269.034027,192.235519 
	C274.872711,194.906662 274.932495,201.490829 277.748657,206.369431 
	C279.661926,209.683899 280.506226,213.615463 281.769653,217.641663 
z"/>
<path fill="#8043D6" opacity="1.000000" stroke="none" 
	d="
M81.002823,278.590149 
	C80.791206,279.267609 80.580902,279.541290 80.132973,279.925598 
	C76.224442,271.025269 73.843468,261.695740 72.950333,251.570831 
	C73.162758,250.580063 73.394470,250.012436 73.898102,248.778717 
	C76.381294,259.055176 78.692711,268.620758 81.002823,278.590149 
z"/>
<path fill="#8445DE" opacity="1.000000" stroke="none" 
	d="
M191.522293,139.095474 
	C191.724808,139.614136 191.464432,140.061523 191.106171,140.748169 
	C181.747101,140.952423 172.485886,140.917404 162.690918,140.744232 
	C163.400009,140.069550 164.636002,139.087723 165.886810,139.068481 
	C174.275909,138.939362 182.668167,139.014969 191.522293,139.095474 
z"/>
<path fill="#8A49E5" opacity="1.000000" stroke="none" 
	d="
M252.618530,313.996826 
	C253.235962,314.169067 253.513168,314.393005 253.917236,314.854431 
	C247.953079,319.725220 241.862076,324.358612 235.417206,329.058960 
	C236.973907,327.257996 238.793930,325.284851 240.814667,323.544861 
	C244.574142,320.307709 248.450577,317.206390 252.618530,313.996826 
z"/>
<path fill="#8B51E1" opacity="1.000000" stroke="none" 
	d="
M269.040222,164.421036 
	C269.335297,164.035034 269.749695,163.970825 270.779907,163.937622 
	C271.596375,163.983032 271.797028,163.997437 271.997711,164.011856 
	C275.804443,169.223007 279.611145,174.434143 283.711487,180.159119 
	C284.314697,181.135361 284.624298,181.597748 284.933899,182.060150 
	C284.758362,182.348648 284.582825,182.637146 284.150269,182.977615 
	C280.969696,179.186996 278.106415,175.296387 275.100403,171.519379 
	C273.231873,169.171570 271.147186,166.995789 269.040222,164.421036 
z"/>
<path fill="#8847E4" opacity="1.000000" stroke="none" 
	d="
M54.602119,343.022766 
	C55.001961,343.431000 55.001644,343.828766 55.001732,344.525177 
	C47.037064,345.235535 47.037491,345.235535 47.027668,337.154266 
	C47.023880,334.038849 46.810642,330.903320 47.110664,327.817596 
	C47.237183,326.516327 48.443611,325.320099 49.565193,324.129089 
	C49.527748,330.398865 49.084274,336.615601 48.627968,343.012299 
	C50.988209,343.012299 52.595085,343.012299 54.602119,343.022766 
z"/>
<path fill="#8452CF" opacity="1.000000" stroke="none" 
	d="
M231.948639,96.910301 
	C231.667984,99.189163 235.160431,102.261436 230.403839,103.212540 
	C229.730469,96.282219 229.178772,89.386398 229.081680,82.484192 
	C229.055756,80.641586 230.420456,78.779419 231.537140,76.810966 
	C231.822784,83.338814 231.717987,89.981926 231.948639,96.910301 
z"/>
<path fill="#894AE3" opacity="1.000000" stroke="none" 
	d="
M290.169067,200.169739 
	C290.875122,199.484360 291.565796,199.173325 292.583374,199.148941 
	C292.930206,199.631622 292.950165,199.827637 292.970093,200.023666 
	C293.819702,202.336624 294.628418,204.665588 295.527313,206.959213 
	C297.431366,211.817841 301.708588,209.402069 305.439850,210.011566 
	C305.885590,210.678665 306.166504,211.714752 305.859161,211.936829 
	C302.649719,214.256012 294.132599,211.013519 292.942841,207.242584 
	C292.217957,204.945129 291.096832,202.772675 290.169067,200.169739 
z"/>
<path fill="#894AE3" opacity="1.000000" stroke="none" 
	d="
M265.205505,184.612778 
	C260.798004,179.808365 256.431213,174.692993 252.071426,169.215546 
	C258.349976,172.398468 262.209595,177.999390 265.205505,184.612778 
z"/>
<path fill="#BBA2E8" opacity="1.000000" stroke="none" 
	d="
M209.013672,71.627045 
	C203.502686,72.301628 197.767838,72.605492 191.567993,72.605438 
	C191.402649,71.611710 191.702316,70.921883 192.001984,70.232056 
	C192.438873,70.191971 192.875793,70.151894 193.745758,70.305725 
	C194.464813,70.390419 194.750793,70.281197 195.036758,70.171967 
	C199.621109,70.533417 204.205475,70.894875 209.013672,71.627045 
z"/>
<path fill="#8445DE" opacity="1.000000" stroke="none" 
	d="
M38.907043,58.457939 
	C39.071804,58.036942 39.264103,58.026886 39.745461,58.006927 
	C42.024879,64.391037 44.015240,70.785042 46.006710,77.588638 
	C45.840385,77.998528 45.672958,77.998833 45.044739,77.991806 
	C44.583946,77.984489 44.164547,77.977806 44.164547,77.977806 
	C42.771885,73.339714 41.338551,68.713249 40.008015,64.057396 
	C39.524067,62.363941 39.285244,60.600433 38.907043,58.457939 
z"/>
<path fill="#8043D6" opacity="1.000000" stroke="none" 
	d="
M211.954803,26.552023 
	C207.170929,22.874256 207.443359,17.571589 208.711487,12.046638 
	C210.045166,16.690363 211.028809,21.402885 211.954803,26.552023 
z"/>
<path fill="#986EDA" opacity="1.000000" stroke="none" 
	d="
M191.564911,70.139481 
	C191.702316,70.921883 191.402649,71.611710 191.107651,72.582642 
	C186.065964,72.896690 181.019638,72.929642 175.512115,72.952805 
	C177.821228,72.179558 180.591522,71.416077 183.664062,70.404358 
	C186.353485,70.119720 188.740677,70.083305 191.564911,70.139481 
z"/>
<path fill="#BBA2E8" opacity="1.000000" stroke="none" 
	d="
M216.840149,76.628891 
	C216.063232,81.822639 215.353790,86.588417 214.351654,91.627060 
	C213.421829,86.358360 212.713989,80.822990 212.227005,75.268257 
	C212.157379,74.474159 213.156235,73.586395 213.734451,72.456963 
	C218.066208,71.034248 216.772308,74.167297 216.840149,76.628891 
z"/>
<path fill="#6F4DA8" opacity="1.000000" stroke="none" 
	d="
M64.067543,39.499001 
	C64.092018,39.116966 64.545074,39.060287 65.085602,39.001232 
	C66.090164,38.330105 66.554199,37.718037 67.018242,37.105965 
	C67.212425,37.069077 67.406609,37.032188 67.883789,37.084320 
	C65.040375,43.736401 61.913971,50.299465 58.473412,57.018448 
	C59.330975,53.682793 60.494007,50.188278 61.677494,46.700703 
	C62.450665,44.422272 63.253513,42.153908 64.067543,39.499001 
z"/>
<path fill="#8F56E7" opacity="1.000000" stroke="none" 
	d="
M256.826721,148.881104 
	C257.115143,149.445389 257.087738,149.866745 257.018799,150.602295 
	C252.328766,147.451767 247.680298,143.987045 242.853302,140.194794 
	C242.674774,139.867264 242.878601,139.642349 243.021973,139.659760 
	C247.613861,142.697510 252.062363,145.717850 256.826721,148.881104 
z"/>
<path fill="#8145D9" opacity="1.000000" stroke="none" 
	d="
M337.361572,120.820679 
	C336.871399,121.010696 336.690430,121.006241 336.237549,120.994003 
	C337.517670,116.854790 339.069672,112.723358 340.833160,108.831856 
	C339.919983,112.923256 338.795380,116.774727 337.361572,120.820679 
z"/>
<path fill="#8A49E7" opacity="1.000000" stroke="none" 
	d="
M113.574448,159.896423 
	C112.458900,161.217392 111.007187,162.603149 109.171951,163.965668 
	C110.271698,162.615372 111.754982,161.288284 113.574448,159.896423 
z"/>
<path fill="#8647E0" opacity="1.000000" stroke="none" 
	d="
M90.558212,307.914185 
	C90.127220,309.193817 89.352173,310.553864 88.196960,311.904327 
	C88.615906,310.594696 89.415031,309.294617 90.558212,307.914185 
z"/>
<path fill="#8043D6" opacity="1.000000" stroke="none" 
	d="
M320.450836,170.889923 
	C320.515259,169.420456 320.884033,167.766983 321.585632,166.061523 
	C321.530670,167.575012 321.142914,169.140457 320.450836,170.889923 
z"/>
<path fill="#773DC5" opacity="1.000000" stroke="none" 
	d="
M44.078331,78.360786 
	C44.164547,77.977806 44.583946,77.984489 44.793594,77.991341 
	C45.156330,79.535919 45.309418,81.073639 45.194065,82.819450 
	C44.614452,81.599609 44.303280,80.171692 44.078331,78.360786 
z"/>
<path fill="#8A49E7" opacity="1.000000" stroke="none" 
	d="
M105.307121,168.889801 
	C104.993874,168.561569 104.982048,168.067963 104.952560,167.204987 
	C105.732407,166.213608 106.529915,165.591568 107.635597,164.881042 
	C107.165359,166.103149 106.386955,167.413773 105.307121,168.889801 
z"/>
<path fill="#894AE3" opacity="1.000000" stroke="none" 
	d="
M266.890259,187.648636 
	C266.233154,187.168945 265.630615,186.366058 265.055908,185.210693 
	C265.704102,185.680634 266.324463,186.503021 266.890259,187.648636 
z"/>
<path fill="#773DC5" opacity="1.000000" stroke="none" 
	d="
M66.714340,37.041000 
	C66.554199,37.718037 66.090164,38.330105 65.312973,38.980690 
	C64.993370,38.816849 64.986931,38.614502 64.969345,38.108665 
	C65.442276,37.528801 65.926361,37.252419 66.714340,37.041000 
z"/>
<path fill="#8847E4" opacity="1.000000" stroke="none" 
	d="
M53.650726,324.110107 
	C53.667938,324.628265 53.361881,325.098206 53.055828,325.568176 
	C52.743214,325.287506 52.430603,325.006836 52.074028,324.453979 
	C52.462532,324.141846 52.894993,324.101898 53.650726,324.110107 
z"/>
<path fill="#8C4BE8" opacity="1.000000" stroke="none" 
	d="
M80.273453,67.909042 
	C80.302010,67.762604 80.557938,67.673592 80.888779,67.737793 
	C80.963707,67.890999 80.500816,67.966461 80.273453,67.909042 
z"/>
<path fill="#8145D9" opacity="1.000000" stroke="none" 
	d="
M282.225433,264.918274 
	C282.060272,264.707397 282.194305,264.468170 282.570740,264.150543 
	C282.890167,264.390961 282.793976,264.663574 282.225433,264.918274 
z"/>
<path fill="#986EDA" opacity="1.000000" stroke="none" 
	d="
M194.766327,70.101967 
	C194.750793,70.281197 194.464813,70.390419 194.072479,70.354454 
	C194.142715,70.150162 194.319321,70.091064 194.766327,70.101967 
z"/>
<path fill="#8145D9" opacity="1.000000" stroke="none" 
	d="
M268.837067,190.704712 
	C268.540741,190.818939 268.327637,190.604248 268.108643,190.099075 
	C268.300079,190.072250 268.572601,190.261307 268.837067,190.704712 
z"/>
<path fill="#8F56E7" opacity="1.000000" stroke="none" 
	d="
M240.993896,139.379196 
	C241.234787,139.175339 241.605515,139.277542 242.177277,139.601791 
	C241.960114,139.777649 241.541931,139.731461 240.993896,139.379196 
z"/>
<path fill="#000000" opacity="1.000000" stroke="none" 
	d="
M259.145081,222.977219 
	C259.127991,225.624725 259.110901,228.272232 259.115173,231.627991 
	C255.960526,249.857025 243.172729,256.198395 227.595551,252.501236 
	C210.047729,248.336365 205.164749,227.362381 215.034988,213.589981 
	C221.899017,204.012268 240.305099,200.893463 249.967575,209.106949 
	C254.691971,213.122849 256.760956,217.922272 259.145081,222.977219 
z"/>
<path fill="#000000" opacity="1.000000" stroke="none" 
	d="
M209.078156,265.135437 
	C210.096176,265.128632 211.114197,265.121826 212.746613,265.452698 
	C222.316574,266.922485 228.663971,272.073364 233.863159,279.479156 
	C234.280426,284.652130 234.966415,289.412140 234.960815,294.171356 
	C234.945007,307.606445 218.394485,316.873230 206.049530,313.266174 
	C199.649506,311.396149 195.357590,307.431274 191.024506,302.586426 
	C186.518082,293.166473 186.806793,284.243347 192.067093,275.695374 
	C195.917587,269.438263 202.943192,267.917755 209.078156,265.135437 
z"/>
<path fill="#8546DF" opacity="1.000000" stroke="none" 
	d="
M140.814377,211.124298 
	C142.683884,212.782516 145.188309,214.091232 146.323639,216.153625 
	C156.481354,234.605804 143.242493,256.856110 122.224396,255.819504 
	C106.883423,255.062866 97.196518,245.323593 95.208321,229.004120 
	C94.162949,220.423492 104.838898,204.423294 117.977180,202.881927 
	C126.944771,201.829865 135.056931,202.490585 140.533737,210.738525 
	C136.331223,209.138641 132.689148,206.472992 128.642868,205.515518 
	C112.502975,201.696304 97.358574,214.227539 98.011734,229.931900 
	C98.461899,240.755432 107.979553,254.281128 124.836693,253.124176 
	C144.879135,251.748657 151.163498,232.734787 144.805466,217.735535 
	C143.810974,215.389420 142.161163,213.321075 140.814377,211.124298 
z"/>
<path fill="#8647E0" opacity="1.000000" stroke="none" 
	d="
M259.482147,222.909882 
	C256.760956,217.922272 254.691971,213.122849 249.967575,209.106949 
	C240.305099,200.893463 221.899017,204.012268 215.034988,213.589981 
	C205.164749,227.362381 210.047729,248.336365 227.595551,252.501236 
	C243.172729,256.198395 255.960526,249.857025 259.295197,231.971008 
	C259.744843,233.545853 260.636383,235.622711 260.230682,237.404160 
	C257.308380,250.236176 243.260468,257.597900 231.549805,255.900650 
	C217.797577,253.907516 208.550613,243.058762 207.865540,229.889343 
	C207.136337,215.871658 216.115540,206.358246 224.877701,203.602051 
	C238.883865,199.196335 251.234772,203.343765 258.191650,214.965668 
	C259.491852,217.137741 259.314606,220.194214 259.482147,222.909882 
z"/>
<path fill="#8445DC" opacity="1.000000" stroke="none" 
	d="
M170.009109,279.010162 
	C176.176529,290.749847 171.329987,309.108734 155.943298,315.042755 
	C139.100555,321.538239 117.980942,306.007812 120.997200,290.135101 
	C121.684563,286.517883 122.561798,282.936737 123.927444,279.165863 
	C124.503250,278.992737 124.993279,278.998627 124.946533,279.392395 
	C122.053146,285.364105 121.903740,291.399109 123.685600,297.038208 
	C127.560905,309.302521 138.236542,315.277069 150.271927,313.772339 
	C158.766434,312.710327 166.011581,308.002380 168.718887,299.209198 
	C170.860947,292.251923 170.882095,284.999298 168.124786,278.044861 
	C168.624954,278.005341 168.825241,277.992188 169.025528,277.979004 
	C169.025528,277.979004 169.012497,277.999237 169.119446,278.212952 
	C169.425247,278.704376 169.686157,278.898865 170.009109,279.010162 
z"/>
<path fill="#8847E4" opacity="1.000000" stroke="none" 
	d="
M188.905777,248.845642 
	C186.865540,250.424667 185.051453,252.684814 182.741592,253.451797 
	C176.451859,255.540222 169.132477,252.041718 166.031769,246.062241 
	C163.236832,240.672363 165.080368,233.501999 170.381897,229.142639 
	C175.438614,224.984589 183.194550,224.892166 188.367783,228.928391 
	C193.592499,233.004807 195.359833,239.898758 192.496277,245.827011 
	C191.911621,247.037384 190.578018,247.886017 189.281647,248.516281 
	C189.533325,246.622421 190.189331,245.141586 190.635956,243.600098 
	C192.504639,237.150284 189.567184,231.263580 183.426285,229.025238 
	C177.327179,226.802124 171.141754,229.212234 168.599579,234.802383 
	C165.461807,241.702240 167.482986,247.057312 174.049561,250.708145 
	C179.630325,253.810928 184.077881,250.379913 188.905777,248.845642 
z"/>
<path fill="#8445DE" opacity="1.000000" stroke="none" 
	d="
M159.034119,202.969788 
	C154.635788,201.080292 149.317780,191.580811 150.118668,185.558578 
	C151.355652,176.257065 154.107071,167.612228 162.585037,161.874741 
	C169.665909,157.082764 185.526184,156.496933 192.486771,161.342148 
	C193.499527,162.047104 194.122589,163.311920 194.926422,164.695236 
	C194.926880,165.072784 194.883774,165.115601 194.522629,165.074692 
	C188.932510,161.961456 183.725815,159.949097 177.237274,159.765228 
	C160.644180,159.295044 149.259598,178.766937 153.910599,192.012451 
	C155.234085,195.781586 157.357681,199.269760 159.094025,202.907257 
	C159.073669,202.927734 159.034119,202.969788 159.034119,202.969788 
z"/>
<path fill="#8445DC" opacity="1.000000" stroke="none" 
	d="
M191.085922,302.969788 
	C195.357590,307.431274 199.649506,311.396149 206.049530,313.266174 
	C218.394485,316.873230 234.945007,307.606445 234.960815,294.171356 
	C234.966415,289.412140 234.280426,284.652130 234.173782,279.456268 
	C234.644470,279.004700 234.851532,278.989319 235.058594,278.973969 
	C242.371445,290.801270 236.809097,307.061829 223.096039,313.983124 
	C212.369736,319.396912 194.261459,314.858215 190.273499,303.370728 
	C190.702423,302.989960 190.894165,302.979889 191.085922,302.969788 
z"/>
<path fill="#8A49E7" opacity="1.000000" stroke="none" 
	d="
M169.023438,277.615479 
	C168.825241,277.992188 168.624954,278.005341 167.819061,277.895508 
	C162.170258,268.262146 147.459702,262.423492 137.124802,268.144836 
	C132.066299,270.945221 128.509048,274.797272 124.993279,278.998627 
	C124.993279,278.998627 124.503250,278.992737 124.258430,278.996979 
	C125.419540,272.132996 132.986877,265.418976 141.539001,264.146362 
	C152.442215,262.523926 161.446213,266.211853 168.263748,274.946503 
	C168.732117,275.546539 168.778656,276.475769 169.023438,277.615479 
z"/>
<path fill="#8647E0" opacity="1.000000" stroke="none" 
	d="
M191.024506,302.586426 
	C190.894165,302.979889 190.702423,302.989960 190.222626,303.020447 
	C184.505783,298.042725 185.798080,291.418121 186.130844,285.318237 
	C186.649002,275.819336 196.529587,265.504974 205.744919,264.084167 
	C206.655869,263.943726 207.654175,264.369812 208.845047,264.834167 
	C202.943192,267.917755 195.917587,269.438263 192.067093,275.695374 
	C186.806793,284.243347 186.518082,293.166473 191.024506,302.586426 
z"/>
<path fill="#8445DE" opacity="1.000000" stroke="none" 
	d="
M198.979340,169.019699 
	C199.727005,169.310211 200.792175,169.377838 201.175598,169.924026 
	C209.338654,181.552368 207.419693,196.177933 196.603119,205.553589 
	C196.170029,205.928970 195.349243,205.857025 194.319427,205.955414 
	C193.929764,205.917313 193.890350,205.872849 194.038101,205.560272 
	C194.769302,204.505280 195.288666,203.699890 195.946518,203.030640 
	C200.499146,198.398972 203.622437,193.364792 204.192871,186.450699 
	C204.752274,179.670227 201.050095,174.747177 198.916534,169.082916 
	C198.937515,169.061890 198.979340,169.019699 198.979340,169.019699 
z"/>
<path fill="#8445DE" opacity="1.000000" stroke="none" 
	d="
M193.949615,205.939392 
	C191.922729,207.615646 190.101669,210.202316 187.789978,210.761826 
	C178.013855,213.127899 168.389587,213.250641 160.311401,205.765869 
	C159.740326,205.236786 159.474030,204.378723 159.050064,203.321716 
	C159.034119,202.969788 159.073669,202.927734 159.439850,202.974228 
	C166.001785,208.568939 173.333054,211.055634 181.482605,209.863327 
	C185.722382,209.243027 189.760910,207.247284 193.890350,205.872849 
	C193.890350,205.872849 193.929764,205.917313 193.949615,205.939392 
z"/>
<path fill="#8647E0" opacity="1.000000" stroke="none" 
	d="
M235.004242,278.625305 
	C234.851532,278.989319 234.644470,279.004700 234.126770,279.042938 
	C228.663971,272.073364 222.316574,266.922485 213.126633,265.492249 
	C214.564377,264.845032 216.523300,263.753754 217.860748,264.270630 
	C225.032288,267.042206 231.628830,270.721161 235.004242,278.625305 
z"/>
<path fill="#8445DE" opacity="1.000000" stroke="none" 
	d="
M194.948517,165.051483 
	C196.311737,166.107361 197.653336,167.184555 198.987122,168.640717 
	C198.979340,169.019699 198.937515,169.061890 198.572418,169.033829 
	C197.099487,167.709045 195.991638,166.412323 194.883774,165.115601 
	C194.883774,165.115601 194.926880,165.072784 194.948517,165.051483 
z"/>
<path fill="#8A49E7" opacity="1.000000" stroke="none" 
	d="
M169.906540,278.782928 
	C169.686157,278.898865 169.425247,278.704376 169.118713,278.204102 
	C169.347839,278.072815 169.612137,278.264221 169.906540,278.782928 
z"/>
<path fill="#F5F5F6" opacity="1.000000" stroke="none" 
	d="
M193.250198,94.700348 
	C194.377396,94.890350 195.504578,95.080353 196.805222,95.299583 
	C196.805222,98.365173 196.805222,101.318863 196.805222,104.629753 
	C195.437912,104.762810 194.171890,104.993301 192.905792,104.993683 
	C151.119949,105.006287 109.333893,104.934113 67.548592,105.079933 
	C62.966148,105.095917 61.809231,103.231079 61.948257,99.186081 
	C62.081501,95.309242 64.209114,94.822762 67.495903,94.835197 
	C97.960907,94.950554 128.426407,94.938576 158.891769,94.950630 
	C168.879974,94.954582 178.868164,94.920715 189.736130,94.878494 
	C191.493988,94.802017 192.372101,94.751183 193.250198,94.700348 
z"/>
<path fill="#F3F2F5" opacity="1.000000" stroke="none" 
	d="
M154.995300,44.994900 
	C154.805344,44.969322 154.615402,44.943748 154.022034,44.586956 
	C159.347336,30.364134 162.494370,14.095735 182.459808,13.149052 
	C182.650574,13.162861 182.968018,12.947021 183.375183,12.966099 
	C188.347900,12.184763 192.903687,11.316255 197.489777,10.658972 
	C198.160568,10.562832 198.975571,11.472802 199.723846,11.917237 
	C199.723846,11.917237 199.341934,11.884828 198.802460,11.940583 
	C196.487869,12.612267 194.712769,13.228196 192.937668,13.844124 
	C191.880539,13.846612 190.823395,13.849101 189.011169,13.919788 
	C187.063095,14.942137 185.358078,15.649669 184.760406,16.890553 
	C180.952744,24.795843 177.389145,32.818684 173.745148,40.802811 
	C173.745148,40.802807 173.860413,40.866802 173.455399,40.907547 
	C167.032028,42.297165 161.013657,43.646030 154.995300,44.994900 
z"/>
<path fill="#F3F3F5" opacity="1.000000" stroke="none" 
	d="
M108.207405,29.878735 
	C110.524445,29.310087 112.841476,28.741438 115.982979,28.106806 
	C123.187958,27.072302 129.568466,26.103781 135.944061,25.491226 
	C135.221237,27.862617 134.503357,29.878044 133.785477,31.893469 
	C133.785477,31.893469 133.882294,31.961325 133.593475,32.059814 
	C133.129578,32.744038 132.954498,33.329773 132.779434,33.915508 
	C132.779434,33.915508 132.869934,33.939552 132.571869,34.088722 
	C129.955139,39.185856 127.877106,44.269718 125.197929,49.014103 
	C124.143875,50.880672 121.958603,52.685452 119.919556,53.305851 
	C114.713997,54.889702 109.300873,55.791382 103.970787,56.965965 
	C103.970787,56.965965 103.659668,56.841183 103.450760,56.518913 
	C107.124901,47.733635 111.007950,39.270630 115.001404,30.567017 
	C112.297058,30.293047 110.252228,30.085892 108.207405,29.878735 
z"/>
<path fill="#6132A9" opacity="1.000000" stroke="none" 
	d="
M193.460144,94.489227 
	C192.372101,94.751183 191.493988,94.802017 190.177551,94.777092 
	C187.970093,94.469978 186.201187,94.038582 184.431824,94.036720 
	C146.132950,93.996292 107.834007,94.003777 69.535088,94.002037 
	C67.738594,94.001961 65.942101,94.002029 64.145599,94.002029 
	C64.152267,93.758987 64.158936,93.515953 64.165596,93.272911 
	C108.071983,93.272911 151.978363,93.272911 197.326691,93.272911 
	C195.175720,93.864212 194.422897,94.071167 193.460144,94.489227 
z"/>
<path fill="#6F43B2" opacity="1.000000" stroke="none" 
	d="
M107.820084,29.916275 
	C110.252228,30.085892 112.297058,30.293047 115.001404,30.567017 
	C111.007950,39.270630 107.124901,47.733635 103.286560,56.552536 
	C98.870171,55.618355 102.261200,53.068790 102.859383,51.651962 
	C105.036552,46.495178 107.736969,41.560112 110.212753,36.527992 
	C110.781448,35.372093 111.241219,34.162598 112.183083,31.974039 
	C103.092735,32.475025 95.386810,35.462448 87.157837,37.796539 
	C88.117889,36.780312 89.271210,35.147945 90.808983,34.605556 
	C94.353149,33.355473 98.084061,32.634830 101.864685,31.346851 
	C103.804367,30.647484 105.618568,30.300650 107.820084,29.916275 
z"/>
<path fill="#6F4DA8" opacity="1.000000" stroke="none" 
	d="
M182.269058,13.135240 
	C162.494370,14.095735 159.347336,30.364134 153.739014,44.637520 
	C153.471039,43.901928 152.449280,42.513985 152.793015,41.709393 
	C155.957092,34.303055 159.184357,26.910585 162.801498,19.719440 
	C163.802826,17.728689 166.167587,16.423744 167.999435,14.479374 
	C172.094070,13.419036 176.096085,12.683471 180.672714,12.204739 
	C181.587921,12.686127 181.928482,12.910683 182.269058,13.135240 
z"/>
<path fill="#6E3EB6" opacity="1.000000" stroke="none" 
	d="
M104.235252,57.248634 
	C109.300873,55.791382 114.713997,54.889702 119.919556,53.305851 
	C121.958603,52.685452 124.143875,50.880672 125.197929,49.014103 
	C127.877106,44.269718 129.955139,39.185856 132.560669,34.043266 
	C130.440887,40.092869 128.068436,46.350803 125.577599,52.561260 
	C125.313202,53.220501 124.417229,53.925179 123.709152,54.061066 
	C117.319359,55.287384 110.906097,56.391407 104.235252,57.248634 
z"/>
<path fill="#6E3EB6" opacity="1.000000" stroke="none" 
	d="
M174.114044,40.822823 
	C177.389145,32.818684 180.952744,24.795843 184.760406,16.890553 
	C185.358078,15.649669 187.063095,14.942137 188.626740,14.025927 
	C185.265503,21.457884 181.580795,28.876385 177.765701,36.227222 
	C176.904449,37.886681 175.589203,39.310528 174.114044,40.822823 
z"/>
<path fill="#7245B3" opacity="1.000000" stroke="none" 
	d="
M75.095459,63.798897 
	C78.583672,55.273109 82.441696,46.768753 86.577232,38.059029 
	C84.865219,43.312824 83.073486,48.855602 80.814087,54.200695 
	C79.393860,57.560562 77.272224,60.623940 75.095459,63.798897 
z"/>
<path fill="#6D43AF" opacity="1.000000" stroke="none" 
	d="
M135.948990,25.135260 
	C129.568466,26.103781 123.187958,27.072302 116.379974,28.028357 
	C116.403152,27.389273 116.749199,26.343184 117.320557,26.200714 
	C123.245972,24.723228 129.207687,23.391315 135.564819,22.014175 
	C135.987320,22.443335 136.004318,22.877275 136.006561,23.930065 
	C135.977554,24.744360 135.963272,24.939810 135.948990,25.135260 
z"/>
<path fill="#6E3EB6" opacity="1.000000" stroke="none" 
	d="
M200.071838,11.897103 
	C198.975571,11.472802 198.160568,10.562832 197.489777,10.658972 
	C192.903687,11.316255 188.347900,12.184763 183.385666,12.639126 
	C182.993378,11.856912 182.997757,11.420751 183.002136,10.984589 
	C187.002075,10.284213 191.002014,9.583837 195.414505,8.860914 
	C197.129288,8.928126 198.544022,8.749632 199.683517,9.227457 
	C200.207214,9.447048 200.191132,10.953860 200.071838,11.897103 
z"/>
<path fill="#6E3EB6" opacity="1.000000" stroke="none" 
	d="
M155.260529,45.272987 
	C161.013657,43.646030 167.032028,42.297165 173.428345,40.847431 
	C173.334564,41.497158 172.962387,42.806965 172.375595,42.911453 
	C166.779724,43.907894 161.147522,44.700165 155.260529,45.272987 
z"/>
<path fill="#6E3EB6" opacity="1.000000" stroke="none" 
	d="
M57.151810,68.111542 
	C62.616417,66.478119 68.298584,65.120338 74.394775,63.735882 
	C74.316383,64.435898 73.922050,65.694183 73.316185,65.805962 
	C68.022049,66.782738 62.690098,67.554543 57.151810,68.111542 
z"/>
<path fill="#8043D6" opacity="1.000000" stroke="none" 
	d="
M211.635178,29.217001 
	C211.968445,32.226192 212.735382,35.576862 208.369095,36.956059 
	C209.094238,34.409958 210.185059,31.816311 211.635178,29.217001 
z"/>
<path fill="#6E3EB6" opacity="1.000000" stroke="none" 
	d="
M135.944061,25.491226 
	C135.963272,24.939810 135.977554,24.744360 136.017822,24.255665 
	C140.290848,27.510359 135.556656,29.232635 134.128540,31.795082 
	C134.503357,29.878044 135.221237,27.862617 135.944061,25.491226 
z"/>
<path fill="#6E3EB6" opacity="1.000000" stroke="none" 
	d="
M193.142334,14.111316 
	C194.712769,13.228196 196.487869,12.612267 198.631409,12.027024 
	C197.115570,12.831308 195.231277,13.604908 193.142334,14.111316 
z"/>
<path fill="#6E3EB6" opacity="1.000000" stroke="none" 
	d="
M53.675789,66.221375 
	C54.219131,66.484901 54.560276,66.950470 55.033569,67.678017 
	C54.601673,67.434464 54.037632,66.928947 53.675789,66.221375 
z"/>
<path fill="#6F4DA8" opacity="1.000000" stroke="none" 
	d="
M57.901978,57.244621 
	C58.030693,57.727421 57.850384,58.393692 57.372009,59.263790 
	C57.246948,58.787773 57.419952,58.107933 57.901978,57.244621 
z"/>
<path fill="#6E3EB6" opacity="1.000000" stroke="none" 
	d="
M133.074860,33.781029 
	C132.954498,33.329773 133.129578,32.744038 133.574005,32.003990 
	C133.685684,32.448635 133.527985,33.047588 133.074860,33.781029 
z"/>
<path fill="#6E3EB6" opacity="1.000000" stroke="none" 
	d="
M54.690224,64.166306 
	C54.782986,64.338623 54.669151,64.661880 54.310047,65.111244 
	C54.204391,64.930649 54.344013,64.623940 54.690224,64.166306 
z"/>
<path fill="#6F4DA8" opacity="1.000000" stroke="none" 
	d="
M55.849304,62.037369 
	C55.943069,62.236629 55.794456,62.602211 55.354942,63.095470 
	C55.244999,62.883327 55.425961,62.543510 55.849304,62.037369 
z"/>
<path fill="#6F4DA8" opacity="1.000000" stroke="none" 
	d="
M56.803307,60.074356 
	C56.921017,60.281429 56.782009,60.700840 56.353065,61.316872 
	C56.224285,61.104557 56.385437,60.695625 56.803307,60.074356 
z"/>
<path fill="#724FAB" opacity="1.000000" stroke="none" 
	d="
M285.175598,181.754242 
	C284.624298,181.597748 284.314697,181.135361 283.964203,180.390793 
	C288.739563,161.194839 293.540100,142.277008 298.386536,123.370972 
	C299.265289,119.943001 300.332184,116.563278 301.689087,113.095520 
	C300.293091,120.763687 298.618591,128.521744 296.726532,136.226395 
	C293.020905,151.316132 289.194000,166.376068 285.175598,181.754242 
z"/>
<path fill="#6D43AF" opacity="1.000000" stroke="none" 
	d="
M272.141663,163.677521 
	C271.797028,163.997437 271.596375,163.983032 271.094666,163.946838 
	C276.731934,144.158325 282.670319,124.391556 289.041870,104.306068 
	C289.642303,103.984268 289.809601,103.981194 289.976898,103.978111 
	C287.512299,113.232384 285.272217,122.553925 282.524292,131.723282 
	C279.344604,142.333130 275.718109,152.809082 272.141663,163.677521 
z"/>
<path fill="#6D43AF" opacity="1.000000" stroke="none" 
	d="
M244.194489,138.848389 
	C246.510193,124.114365 249.148117,109.205360 251.863007,94.310379 
	C252.328568,91.756096 253.134262,89.256683 249.140015,88.268646 
	C253.376724,86.714005 254.842941,88.116463 253.888931,93.392838 
	C252.246094,102.479050 250.367462,111.522362 248.650421,120.595520 
	C247.700760,125.613571 246.928711,130.665466 245.957458,135.679001 
	C245.753738,136.730621 245.027939,137.681076 244.194489,138.848389 
z"/>
<path fill="#6D43AF" opacity="1.000000" stroke="none" 
	d="
M293.281494,199.863953 
	C292.950165,199.827637 292.930206,199.631622 292.874695,199.142578 
	C296.511261,188.502563 300.200256,178.161530 303.840942,167.803497 
	C304.550140,165.785706 305.071533,163.701904 306.099121,161.323410 
	C306.518646,160.998260 306.998871,160.998154 306.998901,160.998154 
	C303.217804,173.198715 299.461975,185.407257 295.600494,197.582306 
	C295.335480,198.417801 294.280457,199.002747 293.281494,199.863953 
z"/>
<path fill="#6F4DA8" opacity="1.000000" stroke="none" 
	d="
M290.143585,103.614029 
	C289.809601,103.981194 289.642303,103.984268 289.224030,103.990494 
	C290.050201,96.368752 290.050201,96.368752 278.963074,93.964455 
	C272.172852,92.491951 271.640167,92.850471 269.212494,100.551376 
	C268.217377,92.974579 270.612244,90.670494 278.108551,92.063248 
	C281.353210,92.666084 284.630615,93.233879 287.775635,94.200058 
	C293.089386,95.832489 290.813110,99.845314 290.143585,103.614029 
z"/>
<path fill="#6F4DA8" opacity="1.000000" stroke="none" 
	d="
M322.875275,103.783020 
	C321.799194,103.778809 320.727051,103.333687 319.616150,103.030403 
	C306.402893,99.423004 306.401367,99.428543 302.293518,112.793671 
	C301.291992,107.865479 302.210541,103.016121 306.351837,99.608902 
	C308.867889,97.538803 319.456879,100.349190 322.875275,103.783020 
z"/>
<path fill="#6F43B2" opacity="1.000000" stroke="none" 
	d="
M311.937256,140.851974 
	C314.830231,131.461075 317.723206,122.070190 320.928772,112.582367 
	C321.435028,112.720795 321.678131,112.881310 321.970673,112.966965 
	C318.835754,122.835960 315.700836,132.704956 312.282837,142.437469 
	C311.978943,141.817993 311.958099,141.334976 311.937256,140.851974 
z"/>
<path fill="#6D43AF" opacity="1.000000" stroke="none" 
	d="
M314.214417,91.259132 
	C322.374054,92.449959 330.781952,93.911995 339.187927,95.385284 
	C340.491364,95.613747 341.785736,95.893799 343.458649,96.309296 
	C334.042664,94.823738 324.252380,93.178886 314.214417,91.259132 
z"/>
<path fill="#6D43AF" opacity="1.000000" stroke="none" 
	d="
M263.248474,81.313324 
	C271.757416,82.270866 280.523315,83.501083 289.645538,85.127327 
	C290.001831,85.523354 290.013000,85.991676 290.013000,85.991676 
	C281.177155,84.523117 272.341339,83.054565 263.248474,81.313324 
z"/>
<path fill="#724FAB" opacity="1.000000" stroke="none" 
	d="
M290.278931,86.262726 
	C290.013000,85.991676 290.001831,85.523354 289.996338,85.289192 
	C297.191711,86.843460 304.392548,88.631889 311.804077,90.707947 
	C304.858124,89.508301 297.701477,88.021034 290.278931,86.262726 
z"/>
<path fill="#7245B3" opacity="1.000000" stroke="none" 
	d="
M311.728973,141.158020 
	C311.958099,141.334976 311.978943,141.817993 312.008118,142.664001 
	C310.523956,148.854828 309.031403,154.682648 307.268860,160.754318 
	C306.998871,160.998154 306.518646,160.998260 306.278564,160.997559 
	C307.865875,154.485931 309.693298,147.974991 311.728973,141.158020 
z"/>
<path fill="#6F43B2" opacity="1.000000" stroke="none" 
	d="
M234.100159,76.636841 
	C234.419189,76.177902 234.864975,76.075462 235.650757,75.908661 
	C241.177429,77.036690 246.364136,78.229065 251.767410,79.716019 
	C246.064957,79.004837 240.145935,77.999092 234.100159,76.636841 
z"/>
<path fill="#6F4DA8" opacity="1.000000" stroke="none" 
	d="
M322.120239,112.647697 
	C321.678131,112.881310 321.435028,112.720795 321.134644,112.291550 
	C321.641876,109.673737 322.255768,107.249786 322.854187,104.444107 
	C327.418762,107.145988 321.778961,109.526237 322.120239,112.647697 
z"/>
<path fill="#7245B3" opacity="1.000000" stroke="none" 
	d="
M275.901062,61.485584 
	C277.655121,61.974838 279.095551,62.241467 280.512146,62.503674 
	C280.512146,65.267754 280.512146,67.834122 280.512146,70.646851 
	C277.940094,72.168152 276.047668,72.175232 274.367706,68.844238 
	C272.222076,64.589943 270.713837,64.559616 268.248688,68.439461 
	C265.749634,72.372704 263.198914,71.765648 259.980713,69.027924 
	C261.547760,66.420097 263.037048,63.941685 264.381409,61.704491 
	C267.012939,60.697876 269.609375,59.704689 273.337067,58.278759 
	C273.640961,58.681751 274.614197,59.972351 275.901062,61.485584 
z"/>
<path fill="#6D43AF" opacity="1.000000" stroke="none" 
	d="
M316.015778,72.919121 
	C313.635590,73.489624 311.476501,74.366936 309.317444,75.244255 
	C309.382324,75.851776 309.447205,76.459297 309.512085,77.066818 
	C307.939331,76.113075 306.366608,75.159325 304.722595,74.162354 
	C305.653229,70.441345 312.562408,69.503471 307.320465,64.069305 
	C313.229095,65.948341 317.887146,67.429680 322.277802,68.825989 
	C322.513794,71.487610 322.794464,74.652893 323.145416,78.611328 
	C322.218201,78.821220 320.607819,79.185760 318.934784,79.564484 
	C317.905884,77.147079 317.071381,75.186508 316.015778,72.919121 
z"/>
<path fill="#773DC5" opacity="1.000000" stroke="none" 
	d="
M182.702301,11.005657 
	C182.997757,11.420751 182.993378,11.856912 182.978516,12.620047 
	C182.968018,12.947021 182.650574,13.162861 182.459808,13.149050 
	C181.928482,12.910683 181.587921,12.686127 181.085022,12.198048 
	C181.415955,11.631925 181.909210,11.329325 182.702301,11.005657 
z"/>
<path fill="#000000" opacity="1.000000" stroke="none" 
	d="
M140.877884,211.088379 
	C142.161163,213.321075 143.810974,215.389420 144.805466,217.735535 
	C151.163498,232.734787 144.879135,251.748657 124.836693,253.124176 
	C107.979553,254.281128 98.461899,240.755432 98.011734,229.931900 
	C97.358574,214.227539 112.502975,201.696304 128.642868,205.515518 
	C132.689148,206.472992 136.331223,209.138641 140.515442,211.099991 
	C140.871826,211.180725 140.941391,211.052444 140.877884,211.088379 
z"/>
<path fill="#000000" opacity="1.000000" stroke="none" 
	d="
M124.946533,279.392395 
	C128.509048,274.797272 132.066299,270.945221 137.124802,268.144836 
	C147.459702,262.423492 162.170258,268.262146 167.519165,277.921936 
	C170.882095,284.999298 170.860947,292.251923 168.718887,299.209198 
	C166.011581,308.002380 158.766434,312.710327 150.271927,313.772339 
	C138.236542,315.277069 127.560905,309.302521 123.685600,297.038208 
	C121.903740,291.399109 122.053146,285.364105 124.946533,279.392395 
z"/>
<path fill="#000000" opacity="1.000000" stroke="none" 
	d="
M188.932678,248.899719 
	C184.077881,250.379913 179.630325,253.810928 174.049561,250.708145 
	C167.482986,247.057312 165.461807,241.702240 168.599579,234.802383 
	C171.141754,229.212234 177.327179,226.802124 183.426285,229.025238 
	C189.567184,231.263580 192.504639,237.150284 190.635956,243.600098 
	C190.189331,245.141586 189.533325,246.622421 188.910919,248.519104 
	C188.848221,248.907059 188.959564,248.953812 188.932678,248.899719 
z"/>
<path fill="#000000" opacity="1.000000" stroke="none" 
	d="
M194.522629,165.074692 
	C195.991638,166.412323 197.099487,167.709045 198.551453,169.054840 
	C201.050095,174.747177 204.752274,179.670227 204.192871,186.450699 
	C203.622437,193.364792 200.499146,198.398972 195.946518,203.030640 
	C195.288666,203.699890 194.769302,204.505280 194.038101,205.560272 
	C189.760910,207.247284 185.722382,209.243027 181.482605,209.863327 
	C173.333054,211.055634 166.001785,208.568939 159.460205,202.953735 
	C157.357681,199.269760 155.234085,195.781586 153.910599,192.012451 
	C149.259598,178.766937 160.644180,159.295044 177.237274,159.765228 
	C183.725815,159.949097 188.932510,161.961456 194.522629,165.074692 
z"/>
</svg>